M48
; DRILL file {KiCad (6.0.11-0)} date Tuesday, May 30, 2023 at 02:23:41 PM
; FORMAT={-:-/ absolute / inch / decimal}
; #@! TF.CreationDate,2023-05-30T14:23:41-05:00
; #@! TF.GenerationSoftware,Kicad,Pcbnew,(6.0.11-0)
; #@! TF.FileFunction,Plated,1,2,PTH
FMAT,2
INCH
; #@! TA.AperFunction,Plated,PTH,ComponentDrill
T1C0.0079
; #@! TA.AperFunction,Plated,PTH,ViaDrill
T2C0.0157
; #@! TA.AperFunction,Plated,PTH,ViaDrill
T3C0.0177
; #@! TA.AperFunction,Plated,PTH,ComponentDrill
T4C0.0197
; #@! TA.AperFunction,Plated,PTH,ViaDrill
T5C0.0236
; #@! TA.AperFunction,Plated,PTH,ComponentDrill
T6C0.0394
; #@! TA.AperFunction,Plated,PTH,ComponentDrill
T7C0.0472
; #@! TA.AperFunction,Plated,PTH,ComponentDrill
T8C0.1260
%
G90
G05
T1
X4.2051Y-3.5243
X4.2051Y-3.5844
X4.2351Y-3.4943
X4.2351Y-3.5543
X4.2351Y-3.6144
X4.2652Y-3.5243
X4.2652Y-3.5844
X4.2952Y-3.4943
X4.2952Y-3.5543
X4.2952Y-3.6144
X4.3252Y-3.5243
X4.3252Y-3.5844
T2
X4.252Y-3.9291
X4.3504Y-4.2087
X4.4055Y-4.6727
X4.4331Y-3.2244
X4.4764Y-4.4685
X4.4921Y-4.6727
X4.5394Y-3.9838
X4.5571Y-3.7776
X4.5866Y-3.3307
X4.5866Y-3.3937
X4.6142Y-3.2992
X4.6142Y-3.3622
X4.6417Y-4.1378
X4.6457Y-4.0197
X4.6535Y-3.1693
X4.6769Y-3.8661
X4.7205Y-4.0591
X4.7323Y-3.0157
X4.7323Y-3.3307
X4.7323Y-3.626
X4.7325Y-3.7756
X4.7677Y-4.8346
X4.7953Y-4.1339
X4.8189Y-4.6437
X4.8425Y-4.2874
X4.8425Y-4.4134
X4.874Y-4.6752
X4.874Y-4.8661
X4.8937Y-4.3504
X4.9016Y-4.0276
X4.937Y-3.2992
X4.937Y-3.811
X4.9646Y-3.7795
X4.9685Y-3.4331
X5.0034Y-3.9606
X5.0034Y-4.0591
X5.0034Y-4.1575
X5.0034Y-4.2559
X5.0236Y-3.7441
X5.1024Y-3.3346
X5.1024Y-4.1417
X5.122Y-3.3661
X5.122Y-4.1732
X5.1417Y-3.1378
X5.1417Y-3.3346
X5.1417Y-3.3976
X5.1417Y-3.9449
X5.1417Y-4.1417
X5.1417Y-4.2047
X5.1811Y-3.3346
X5.1811Y-4.1417
X5.2008Y-3.0984
X5.2008Y-3.9055
X5.2205Y-3.3346
X5.2205Y-4.1417
X5.2638Y-3.1378
X5.2638Y-3.9449
X5.2992Y-3.2126
X5.2992Y-3.4646
X5.2992Y-4.0197
X5.2992Y-4.2717
X5.311Y-3.7402
X5.311Y-4.5472
X5.378Y-3.6772
X5.378Y-4.4843
X5.4173Y-3.6772
X5.4173Y-4.4843
X5.4567Y-3.6772
X5.4567Y-4.4843
X5.6024Y-3.689
X5.6024Y-4.4961
X5.6614Y-3.7338
X5.6614Y-4.5408
T3
X4.437Y-4.0866
T4
X4.0394Y-2.9528
X4.0394Y-4.8031
X4.067Y-2.8859
X4.067Y-3.0196
X4.067Y-4.7363
X4.067Y-4.87
X4.1339Y-2.8583
X4.1339Y-3.0472
X4.1339Y-4.7087
X4.1339Y-4.8976
X4.2007Y-2.8859
X4.2007Y-3.0196
X4.2007Y-4.7363
X4.2007Y-4.87
X4.2283Y-2.9528
X4.2283Y-4.8031
X5.5354Y-2.9528
X5.5354Y-4.8031
X5.5631Y-2.8859
X5.5631Y-3.0196
X5.5631Y-4.7363
X5.5631Y-4.87
X5.6299Y-2.8583
X5.6299Y-3.0472
X5.6299Y-4.7087
X5.6299Y-4.8976
X5.6967Y-2.8859
X5.6967Y-3.0196
X5.6967Y-4.7363
X5.6967Y-4.87
X5.7244Y-2.9528
X5.7244Y-4.8031
T5
X4.5383Y-4.2421
T6
X4.3898Y-2.8937
X4.4898Y-2.8937
X4.5898Y-2.8937
X4.6898Y-2.8937
X4.7898Y-2.8937
X4.8898Y-2.8937
X4.9898Y-2.8937
X5.0898Y-2.8937
X5.1291Y-4.9311
X5.1898Y-2.8937
X5.2291Y-4.9311
X5.2898Y-2.8937
X5.3291Y-4.9311
X5.4291Y-4.9311
T7
X4.1339Y-4.4291
X4.1339Y-4.5669
X5.6339Y-3.1772
X5.6339Y-3.315
X5.6339Y-3.9843
X5.6339Y-4.122
T8
X4.1339Y-2.9528
X4.1339Y-4.8031
X5.6299Y-2.9528
X5.6299Y-4.8031
T0
M30
