%TF.GenerationSoftware,KiCad,Pcbnew,(6.0.11-0)*%
%TF.CreationDate,2023-05-30T14:23:44-05:00*%
%TF.ProjectId,HoneywellStringLightsController,486f6e65-7977-4656-9c6c-537472696e67,rev?*%
%TF.SameCoordinates,Original*%
%TF.FileFunction,Legend,Bot*%
%TF.FilePolarity,Positive*%
%FSLAX46Y46*%
G04 Gerber Fmt 4.6, Leading zero omitted, Abs format (unit mm)*
G04 Created by KiCad (PCBNEW (6.0.11-0)) date 2023-05-30 14:23:44*
%MOMM*%
%LPD*%
G01*
G04 APERTURE LIST*
%ADD10C,0.200000*%
%ADD11C,0.625000*%
%ADD12C,0.250000*%
%ADD13C,0.160000*%
%ADD14C,0.150000*%
G04 APERTURE END LIST*
D10*
X114200000Y-76500000D02*
X113800000Y-76500000D01*
X113800000Y-76500000D02*
X113800000Y-76800000D01*
X113800000Y-76800000D02*
X114200000Y-76800000D01*
X114200000Y-76800000D02*
X114200000Y-76500000D01*
G36*
X114200000Y-76500000D02*
G01*
X113800000Y-76500000D01*
X113800000Y-76800000D01*
X114200000Y-76800000D01*
X114200000Y-76500000D01*
G37*
D11*
X114312500Y-77400000D02*
G75*
G03*
X114312500Y-77400000I-312500J0D01*
G01*
D10*
X138200000Y-76500000D02*
X137800000Y-76500000D01*
X137800000Y-76500000D02*
X137800000Y-76800000D01*
X137800000Y-76800000D02*
X138200000Y-76800000D01*
X138200000Y-76800000D02*
X138200000Y-76500000D01*
G36*
X138200000Y-76500000D02*
G01*
X137800000Y-76500000D01*
X137800000Y-76800000D01*
X138200000Y-76800000D01*
X138200000Y-76500000D01*
G37*
X130500000Y-75200000D02*
X129500000Y-75200000D01*
X129500000Y-75200000D02*
X129500000Y-74800000D01*
X129500000Y-74800000D02*
X130500000Y-74800000D01*
X130500000Y-74800000D02*
X130500000Y-75200000D01*
G36*
X130500000Y-75200000D02*
G01*
X129500000Y-75200000D01*
X129500000Y-74800000D01*
X130500000Y-74800000D01*
X130500000Y-75200000D01*
G37*
X134500000Y-75200000D02*
X133500000Y-75200000D01*
X133500000Y-75200000D02*
X133500000Y-74800000D01*
X133500000Y-74800000D02*
X134500000Y-74800000D01*
X134500000Y-74800000D02*
X134500000Y-75200000D01*
G36*
X134500000Y-75200000D02*
G01*
X133500000Y-75200000D01*
X133500000Y-74800000D01*
X134500000Y-74800000D01*
X134500000Y-75200000D01*
G37*
X110200000Y-76500000D02*
X109800000Y-76500000D01*
X109800000Y-76500000D02*
X109800000Y-76800000D01*
X109800000Y-76800000D02*
X110200000Y-76800000D01*
X110200000Y-76800000D02*
X110200000Y-76500000D01*
G36*
X110200000Y-76500000D02*
G01*
X109800000Y-76500000D01*
X109800000Y-76800000D01*
X110200000Y-76800000D01*
X110200000Y-76500000D01*
G37*
X126200000Y-76500000D02*
X125800000Y-76500000D01*
X125800000Y-76500000D02*
X125800000Y-76800000D01*
X125800000Y-76800000D02*
X126200000Y-76800000D01*
X126200000Y-76800000D02*
X126200000Y-76500000D01*
G36*
X126200000Y-76500000D02*
G01*
X125800000Y-76500000D01*
X125800000Y-76800000D01*
X126200000Y-76800000D01*
X126200000Y-76500000D01*
G37*
X126500000Y-75200000D02*
X125500000Y-75200000D01*
X125500000Y-75200000D02*
X125500000Y-74800000D01*
X125500000Y-74800000D02*
X126500000Y-74800000D01*
X126500000Y-74800000D02*
X126500000Y-75200000D01*
G36*
X126500000Y-75200000D02*
G01*
X125500000Y-75200000D01*
X125500000Y-74800000D01*
X126500000Y-74800000D01*
X126500000Y-75200000D01*
G37*
X118500000Y-75200000D02*
X117500000Y-75200000D01*
X117500000Y-75200000D02*
X117500000Y-74800000D01*
X117500000Y-74800000D02*
X118500000Y-74800000D01*
X118500000Y-74800000D02*
X118500000Y-75200000D01*
G36*
X118500000Y-75200000D02*
G01*
X117500000Y-75200000D01*
X117500000Y-74800000D01*
X118500000Y-74800000D01*
X118500000Y-75200000D01*
G37*
D11*
X110312500Y-77400000D02*
G75*
G03*
X110312500Y-77400000I-312500J0D01*
G01*
D10*
X118200000Y-76500000D02*
X117800000Y-76500000D01*
X117800000Y-76500000D02*
X117800000Y-76800000D01*
X117800000Y-76800000D02*
X118200000Y-76800000D01*
X118200000Y-76800000D02*
X118200000Y-76500000D01*
G36*
X118200000Y-76500000D02*
G01*
X117800000Y-76500000D01*
X117800000Y-76800000D01*
X118200000Y-76800000D01*
X118200000Y-76500000D01*
G37*
X130000000Y-75000000D02*
X130000000Y-76500000D01*
X122000000Y-75000000D02*
X122000000Y-76500000D01*
X118000000Y-75000000D02*
X118000000Y-76500000D01*
X139500000Y-75000000D02*
X108500000Y-75000000D01*
X143000000Y-106200000D02*
X143000000Y-118500000D01*
D11*
X122312500Y-77400000D02*
G75*
G03*
X122312500Y-77400000I-312500J0D01*
G01*
D10*
X138500000Y-75200000D02*
X137500000Y-75200000D01*
X137500000Y-75200000D02*
X137500000Y-74800000D01*
X137500000Y-74800000D02*
X138500000Y-74800000D01*
X138500000Y-74800000D02*
X138500000Y-75200000D01*
G36*
X138500000Y-75200000D02*
G01*
X137500000Y-75200000D01*
X137500000Y-74800000D01*
X138500000Y-74800000D01*
X138500000Y-75200000D01*
G37*
X122500000Y-75200000D02*
X121500000Y-75200000D01*
X121500000Y-75200000D02*
X121500000Y-74800000D01*
X121500000Y-74800000D02*
X122500000Y-74800000D01*
X122500000Y-74800000D02*
X122500000Y-75200000D01*
G36*
X122500000Y-75200000D02*
G01*
X121500000Y-75200000D01*
X121500000Y-74800000D01*
X122500000Y-74800000D01*
X122500000Y-75200000D01*
G37*
X138000000Y-75000000D02*
X138000000Y-76500000D01*
X110500000Y-75200000D02*
X109500000Y-75200000D01*
X109500000Y-75200000D02*
X109500000Y-74800000D01*
X109500000Y-74800000D02*
X110500000Y-74800000D01*
X110500000Y-74800000D02*
X110500000Y-75200000D01*
G36*
X110500000Y-75200000D02*
G01*
X109500000Y-75200000D01*
X109500000Y-74800000D01*
X110500000Y-74800000D01*
X110500000Y-75200000D01*
G37*
D11*
X126312500Y-77400000D02*
G75*
G03*
X126312500Y-77400000I-312500J0D01*
G01*
D10*
X130200000Y-76500000D02*
X129800000Y-76500000D01*
X129800000Y-76500000D02*
X129800000Y-76800000D01*
X129800000Y-76800000D02*
X130200000Y-76800000D01*
X130200000Y-76800000D02*
X130200000Y-76500000D01*
G36*
X130200000Y-76500000D02*
G01*
X129800000Y-76500000D01*
X129800000Y-76800000D01*
X130200000Y-76800000D01*
X130200000Y-76500000D01*
G37*
D11*
X130312500Y-77400000D02*
G75*
G03*
X130312500Y-77400000I-312500J0D01*
G01*
X134312500Y-77400000D02*
G75*
G03*
X134312500Y-77400000I-312500J0D01*
G01*
X138312500Y-77400000D02*
G75*
G03*
X138312500Y-77400000I-312500J0D01*
G01*
D10*
X114000000Y-75000000D02*
X114000000Y-76500000D01*
X122200000Y-76500000D02*
X121800000Y-76500000D01*
X121800000Y-76500000D02*
X121800000Y-76800000D01*
X121800000Y-76800000D02*
X122200000Y-76800000D01*
X122200000Y-76800000D02*
X122200000Y-76500000D01*
G36*
X122200000Y-76500000D02*
G01*
X121800000Y-76500000D01*
X121800000Y-76800000D01*
X122200000Y-76800000D01*
X122200000Y-76500000D01*
G37*
X143000000Y-85700000D02*
X143000000Y-99700000D01*
X126000000Y-75000000D02*
X126000000Y-76500000D01*
X110000000Y-75000000D02*
X110000000Y-76500000D01*
X105000000Y-78500000D02*
X105000000Y-111000000D01*
X134200000Y-76500000D02*
X133800000Y-76500000D01*
X133800000Y-76500000D02*
X133800000Y-76800000D01*
X133800000Y-76800000D02*
X134200000Y-76800000D01*
X134200000Y-76800000D02*
X134200000Y-76500000D01*
G36*
X134200000Y-76500000D02*
G01*
X133800000Y-76500000D01*
X133800000Y-76800000D01*
X134200000Y-76800000D01*
X134200000Y-76500000D01*
G37*
X139500000Y-122000000D02*
X108500000Y-122000000D01*
X134000000Y-75000000D02*
X134000000Y-76500000D01*
X139720157Y-89000000D02*
X126420157Y-89000000D01*
X114500000Y-75200000D02*
X113500000Y-75200000D01*
X113500000Y-75200000D02*
X113500000Y-74800000D01*
X113500000Y-74800000D02*
X114500000Y-74800000D01*
X114500000Y-74800000D02*
X114500000Y-75200000D01*
G36*
X114500000Y-75200000D02*
G01*
X113500000Y-75200000D01*
X113500000Y-74800000D01*
X114500000Y-74800000D01*
X114500000Y-75200000D01*
G37*
D11*
X118312500Y-77400000D02*
G75*
G03*
X118312500Y-77400000I-312500J0D01*
G01*
D10*
X138346190Y-90587380D02*
X138917619Y-90587380D01*
X138631904Y-90587380D02*
X138631904Y-89587380D01*
X138727142Y-89730238D01*
X138822380Y-89825476D01*
X138917619Y-89873095D01*
X137917619Y-90492142D02*
X137870000Y-90539761D01*
X137917619Y-90587380D01*
X137965238Y-90539761D01*
X137917619Y-90492142D01*
X137917619Y-90587380D01*
X137917619Y-89968333D02*
X137870000Y-90015952D01*
X137917619Y-90063571D01*
X137965238Y-90015952D01*
X137917619Y-89968333D01*
X137917619Y-90063571D01*
X136727142Y-90539761D02*
X136584285Y-90587380D01*
X136346190Y-90587380D01*
X136250952Y-90539761D01*
X136203333Y-90492142D01*
X136155714Y-90396904D01*
X136155714Y-90301666D01*
X136203333Y-90206428D01*
X136250952Y-90158809D01*
X136346190Y-90111190D01*
X136536666Y-90063571D01*
X136631904Y-90015952D01*
X136679523Y-89968333D01*
X136727142Y-89873095D01*
X136727142Y-89777857D01*
X136679523Y-89682619D01*
X136631904Y-89635000D01*
X136536666Y-89587380D01*
X136298571Y-89587380D01*
X136155714Y-89635000D01*
X135346190Y-90539761D02*
X135441428Y-90587380D01*
X135631904Y-90587380D01*
X135727142Y-90539761D01*
X135774761Y-90444523D01*
X135774761Y-90063571D01*
X135727142Y-89968333D01*
X135631904Y-89920714D01*
X135441428Y-89920714D01*
X135346190Y-89968333D01*
X135298571Y-90063571D01*
X135298571Y-90158809D01*
X135774761Y-90254047D01*
X134870000Y-90587380D02*
X134870000Y-89920714D01*
X134870000Y-90111190D02*
X134822380Y-90015952D01*
X134774761Y-89968333D01*
X134679523Y-89920714D01*
X134584285Y-89920714D01*
X134250952Y-90587380D02*
X134250952Y-89920714D01*
X134250952Y-89587380D02*
X134298571Y-89635000D01*
X134250952Y-89682619D01*
X134203333Y-89635000D01*
X134250952Y-89587380D01*
X134250952Y-89682619D01*
X133346190Y-90587380D02*
X133346190Y-90063571D01*
X133393809Y-89968333D01*
X133489047Y-89920714D01*
X133679523Y-89920714D01*
X133774761Y-89968333D01*
X133346190Y-90539761D02*
X133441428Y-90587380D01*
X133679523Y-90587380D01*
X133774761Y-90539761D01*
X133822380Y-90444523D01*
X133822380Y-90349285D01*
X133774761Y-90254047D01*
X133679523Y-90206428D01*
X133441428Y-90206428D01*
X133346190Y-90158809D01*
X132727142Y-90587380D02*
X132822380Y-90539761D01*
X132870000Y-90444523D01*
X132870000Y-89587380D01*
X131727142Y-89587380D02*
X131155714Y-89587380D01*
X131441428Y-90587380D02*
X131441428Y-89587380D01*
X130822380Y-90587380D02*
X130822380Y-89920714D01*
X130822380Y-90111190D02*
X130774761Y-90015952D01*
X130727142Y-89968333D01*
X130631904Y-89920714D01*
X130536666Y-89920714D01*
X129774761Y-90587380D02*
X129774761Y-90063571D01*
X129822380Y-89968333D01*
X129917619Y-89920714D01*
X130108095Y-89920714D01*
X130203333Y-89968333D01*
X129774761Y-90539761D02*
X129870000Y-90587380D01*
X130108095Y-90587380D01*
X130203333Y-90539761D01*
X130250952Y-90444523D01*
X130250952Y-90349285D01*
X130203333Y-90254047D01*
X130108095Y-90206428D01*
X129870000Y-90206428D01*
X129774761Y-90158809D01*
X129298571Y-89920714D02*
X129298571Y-90587380D01*
X129298571Y-90015952D02*
X129250952Y-89968333D01*
X129155714Y-89920714D01*
X129012857Y-89920714D01*
X128917619Y-89968333D01*
X128870000Y-90063571D01*
X128870000Y-90587380D01*
X128441428Y-90539761D02*
X128346190Y-90587380D01*
X128155714Y-90587380D01*
X128060476Y-90539761D01*
X128012857Y-90444523D01*
X128012857Y-90396904D01*
X128060476Y-90301666D01*
X128155714Y-90254047D01*
X128298571Y-90254047D01*
X128393809Y-90206428D01*
X128441428Y-90111190D01*
X128441428Y-90063571D01*
X128393809Y-89968333D01*
X128298571Y-89920714D01*
X128155714Y-89920714D01*
X128060476Y-89968333D01*
X127584285Y-90587380D02*
X127584285Y-89920714D01*
X127584285Y-90015952D02*
X127536666Y-89968333D01*
X127441428Y-89920714D01*
X127298571Y-89920714D01*
X127203333Y-89968333D01*
X127155714Y-90063571D01*
X127155714Y-90587380D01*
X127155714Y-90063571D02*
X127108095Y-89968333D01*
X127012857Y-89920714D01*
X126870000Y-89920714D01*
X126774761Y-89968333D01*
X126727142Y-90063571D01*
X126727142Y-90587380D01*
X126250952Y-90587380D02*
X126250952Y-89920714D01*
X126250952Y-89587380D02*
X126298571Y-89635000D01*
X126250952Y-89682619D01*
X126203333Y-89635000D01*
X126250952Y-89587380D01*
X126250952Y-89682619D01*
X125917619Y-89920714D02*
X125536666Y-89920714D01*
X125774761Y-89587380D02*
X125774761Y-90444523D01*
X125727142Y-90539761D01*
X125631904Y-90587380D01*
X125536666Y-90587380D01*
X124155714Y-90968333D02*
X124203333Y-90920714D01*
X124298571Y-90777857D01*
X124346190Y-90682619D01*
X124393809Y-90539761D01*
X124441428Y-90301666D01*
X124441428Y-90111190D01*
X124393809Y-89873095D01*
X124346190Y-89730238D01*
X124298571Y-89635000D01*
X124203333Y-89492142D01*
X124155714Y-89444523D01*
X123917619Y-89587380D02*
X123346190Y-89587380D01*
X123631904Y-90587380D02*
X123631904Y-89587380D01*
X123108095Y-89587380D02*
X122441428Y-90587380D01*
X122441428Y-89587380D02*
X123108095Y-90587380D01*
X122155714Y-90968333D02*
X122108095Y-90920714D01*
X122012857Y-90777857D01*
X121965238Y-90682619D01*
X121917619Y-90539761D01*
X121870000Y-90301666D01*
X121870000Y-90111190D01*
X121917619Y-89873095D01*
X121965238Y-89730238D01*
X122012857Y-89635000D01*
X122108095Y-89492142D01*
X122155714Y-89444523D01*
X138965238Y-91197380D02*
X138346190Y-91197380D01*
X138679523Y-91578333D01*
X138536666Y-91578333D01*
X138441428Y-91625952D01*
X138393809Y-91673571D01*
X138346190Y-91768809D01*
X138346190Y-92006904D01*
X138393809Y-92102142D01*
X138441428Y-92149761D01*
X138536666Y-92197380D01*
X138822380Y-92197380D01*
X138917619Y-92149761D01*
X138965238Y-92102142D01*
X137917619Y-92102142D02*
X137870000Y-92149761D01*
X137917619Y-92197380D01*
X137965238Y-92149761D01*
X137917619Y-92102142D01*
X137917619Y-92197380D01*
X137917619Y-91578333D02*
X137870000Y-91625952D01*
X137917619Y-91673571D01*
X137965238Y-91625952D01*
X137917619Y-91578333D01*
X137917619Y-91673571D01*
X136727142Y-92149761D02*
X136584285Y-92197380D01*
X136346190Y-92197380D01*
X136250952Y-92149761D01*
X136203333Y-92102142D01*
X136155714Y-92006904D01*
X136155714Y-91911666D01*
X136203333Y-91816428D01*
X136250952Y-91768809D01*
X136346190Y-91721190D01*
X136536666Y-91673571D01*
X136631904Y-91625952D01*
X136679523Y-91578333D01*
X136727142Y-91483095D01*
X136727142Y-91387857D01*
X136679523Y-91292619D01*
X136631904Y-91245000D01*
X136536666Y-91197380D01*
X136298571Y-91197380D01*
X136155714Y-91245000D01*
X135346190Y-92149761D02*
X135441428Y-92197380D01*
X135631904Y-92197380D01*
X135727142Y-92149761D01*
X135774761Y-92054523D01*
X135774761Y-91673571D01*
X135727142Y-91578333D01*
X135631904Y-91530714D01*
X135441428Y-91530714D01*
X135346190Y-91578333D01*
X135298571Y-91673571D01*
X135298571Y-91768809D01*
X135774761Y-91864047D01*
X134870000Y-92197380D02*
X134870000Y-91530714D01*
X134870000Y-91721190D02*
X134822380Y-91625952D01*
X134774761Y-91578333D01*
X134679523Y-91530714D01*
X134584285Y-91530714D01*
X134250952Y-92197380D02*
X134250952Y-91530714D01*
X134250952Y-91197380D02*
X134298571Y-91245000D01*
X134250952Y-91292619D01*
X134203333Y-91245000D01*
X134250952Y-91197380D01*
X134250952Y-91292619D01*
X133346190Y-92197380D02*
X133346190Y-91673571D01*
X133393809Y-91578333D01*
X133489047Y-91530714D01*
X133679523Y-91530714D01*
X133774761Y-91578333D01*
X133346190Y-92149761D02*
X133441428Y-92197380D01*
X133679523Y-92197380D01*
X133774761Y-92149761D01*
X133822380Y-92054523D01*
X133822380Y-91959285D01*
X133774761Y-91864047D01*
X133679523Y-91816428D01*
X133441428Y-91816428D01*
X133346190Y-91768809D01*
X132727142Y-92197380D02*
X132822380Y-92149761D01*
X132870000Y-92054523D01*
X132870000Y-91197380D01*
X131012857Y-92197380D02*
X131346190Y-91721190D01*
X131584285Y-92197380D02*
X131584285Y-91197380D01*
X131203333Y-91197380D01*
X131108095Y-91245000D01*
X131060476Y-91292619D01*
X131012857Y-91387857D01*
X131012857Y-91530714D01*
X131060476Y-91625952D01*
X131108095Y-91673571D01*
X131203333Y-91721190D01*
X131584285Y-91721190D01*
X130203333Y-92149761D02*
X130298571Y-92197380D01*
X130489047Y-92197380D01*
X130584285Y-92149761D01*
X130631904Y-92054523D01*
X130631904Y-91673571D01*
X130584285Y-91578333D01*
X130489047Y-91530714D01*
X130298571Y-91530714D01*
X130203333Y-91578333D01*
X130155714Y-91673571D01*
X130155714Y-91768809D01*
X130631904Y-91864047D01*
X129298571Y-92149761D02*
X129393809Y-92197380D01*
X129584285Y-92197380D01*
X129679523Y-92149761D01*
X129727142Y-92102142D01*
X129774761Y-92006904D01*
X129774761Y-91721190D01*
X129727142Y-91625952D01*
X129679523Y-91578333D01*
X129584285Y-91530714D01*
X129393809Y-91530714D01*
X129298571Y-91578333D01*
X128489047Y-92149761D02*
X128584285Y-92197380D01*
X128774761Y-92197380D01*
X128870000Y-92149761D01*
X128917619Y-92054523D01*
X128917619Y-91673571D01*
X128870000Y-91578333D01*
X128774761Y-91530714D01*
X128584285Y-91530714D01*
X128489047Y-91578333D01*
X128441428Y-91673571D01*
X128441428Y-91768809D01*
X128917619Y-91864047D01*
X128012857Y-92197380D02*
X128012857Y-91530714D01*
X128012857Y-91197380D02*
X128060476Y-91245000D01*
X128012857Y-91292619D01*
X127965238Y-91245000D01*
X128012857Y-91197380D01*
X128012857Y-91292619D01*
X127631904Y-91530714D02*
X127393809Y-92197380D01*
X127155714Y-91530714D01*
X126393809Y-92149761D02*
X126489047Y-92197380D01*
X126679523Y-92197380D01*
X126774761Y-92149761D01*
X126822380Y-92054523D01*
X126822380Y-91673571D01*
X126774761Y-91578333D01*
X126679523Y-91530714D01*
X126489047Y-91530714D01*
X126393809Y-91578333D01*
X126346190Y-91673571D01*
X126346190Y-91768809D01*
X126822380Y-91864047D01*
X124870000Y-92578333D02*
X124917619Y-92530714D01*
X125012857Y-92387857D01*
X125060476Y-92292619D01*
X125108095Y-92149761D01*
X125155714Y-91911666D01*
X125155714Y-91721190D01*
X125108095Y-91483095D01*
X125060476Y-91340238D01*
X125012857Y-91245000D01*
X124917619Y-91102142D01*
X124870000Y-91054523D01*
X123917619Y-92197380D02*
X124250952Y-91721190D01*
X124489047Y-92197380D02*
X124489047Y-91197380D01*
X124108095Y-91197380D01*
X124012857Y-91245000D01*
X123965238Y-91292619D01*
X123917619Y-91387857D01*
X123917619Y-91530714D01*
X123965238Y-91625952D01*
X124012857Y-91673571D01*
X124108095Y-91721190D01*
X124489047Y-91721190D01*
X123584285Y-91197380D02*
X122917619Y-92197380D01*
X122917619Y-91197380D02*
X123584285Y-92197380D01*
X122631904Y-92578333D02*
X122584285Y-92530714D01*
X122489047Y-92387857D01*
X122441428Y-92292619D01*
X122393809Y-92149761D01*
X122346190Y-91911666D01*
X122346190Y-91721190D01*
X122393809Y-91483095D01*
X122441428Y-91340238D01*
X122489047Y-91245000D01*
X122584285Y-91102142D01*
X122631904Y-91054523D01*
X138393809Y-92807380D02*
X138870000Y-92807380D01*
X138917619Y-93283571D01*
X138870000Y-93235952D01*
X138774761Y-93188333D01*
X138536666Y-93188333D01*
X138441428Y-93235952D01*
X138393809Y-93283571D01*
X138346190Y-93378809D01*
X138346190Y-93616904D01*
X138393809Y-93712142D01*
X138441428Y-93759761D01*
X138536666Y-93807380D01*
X138774761Y-93807380D01*
X138870000Y-93759761D01*
X138917619Y-93712142D01*
X137917619Y-93712142D02*
X137870000Y-93759761D01*
X137917619Y-93807380D01*
X137965238Y-93759761D01*
X137917619Y-93712142D01*
X137917619Y-93807380D01*
X137917619Y-93188333D02*
X137870000Y-93235952D01*
X137917619Y-93283571D01*
X137965238Y-93235952D01*
X137917619Y-93188333D01*
X137917619Y-93283571D01*
X136727142Y-93759761D02*
X136584285Y-93807380D01*
X136346190Y-93807380D01*
X136250952Y-93759761D01*
X136203333Y-93712142D01*
X136155714Y-93616904D01*
X136155714Y-93521666D01*
X136203333Y-93426428D01*
X136250952Y-93378809D01*
X136346190Y-93331190D01*
X136536666Y-93283571D01*
X136631904Y-93235952D01*
X136679523Y-93188333D01*
X136727142Y-93093095D01*
X136727142Y-92997857D01*
X136679523Y-92902619D01*
X136631904Y-92855000D01*
X136536666Y-92807380D01*
X136298571Y-92807380D01*
X136155714Y-92855000D01*
X135870000Y-93140714D02*
X135489047Y-93140714D01*
X135727142Y-92807380D02*
X135727142Y-93664523D01*
X135679523Y-93759761D01*
X135584285Y-93807380D01*
X135489047Y-93807380D01*
X134727142Y-93807380D02*
X134727142Y-93283571D01*
X134774761Y-93188333D01*
X134870000Y-93140714D01*
X135060476Y-93140714D01*
X135155714Y-93188333D01*
X134727142Y-93759761D02*
X134822380Y-93807380D01*
X135060476Y-93807380D01*
X135155714Y-93759761D01*
X135203333Y-93664523D01*
X135203333Y-93569285D01*
X135155714Y-93474047D01*
X135060476Y-93426428D01*
X134822380Y-93426428D01*
X134727142Y-93378809D01*
X134393809Y-93140714D02*
X134012857Y-93140714D01*
X134250952Y-92807380D02*
X134250952Y-93664523D01*
X134203333Y-93759761D01*
X134108095Y-93807380D01*
X134012857Y-93807380D01*
X133250952Y-93140714D02*
X133250952Y-93807380D01*
X133679523Y-93140714D02*
X133679523Y-93664523D01*
X133631904Y-93759761D01*
X133536666Y-93807380D01*
X133393809Y-93807380D01*
X133298571Y-93759761D01*
X133250952Y-93712142D01*
X132822380Y-93759761D02*
X132727142Y-93807380D01*
X132536666Y-93807380D01*
X132441428Y-93759761D01*
X132393809Y-93664523D01*
X132393809Y-93616904D01*
X132441428Y-93521666D01*
X132536666Y-93474047D01*
X132679523Y-93474047D01*
X132774761Y-93426428D01*
X132822380Y-93331190D01*
X132822380Y-93283571D01*
X132774761Y-93188333D01*
X132679523Y-93140714D01*
X132536666Y-93140714D01*
X132441428Y-93188333D01*
X130727142Y-93807380D02*
X131203333Y-93807380D01*
X131203333Y-92807380D01*
X130393809Y-93283571D02*
X130060476Y-93283571D01*
X129917619Y-93807380D02*
X130393809Y-93807380D01*
X130393809Y-92807380D01*
X129917619Y-92807380D01*
X129489047Y-93807380D02*
X129489047Y-92807380D01*
X129250952Y-92807380D01*
X129108095Y-92855000D01*
X129012857Y-92950238D01*
X128965238Y-93045476D01*
X128917619Y-93235952D01*
X128917619Y-93378809D01*
X128965238Y-93569285D01*
X129012857Y-93664523D01*
X129108095Y-93759761D01*
X129250952Y-93807380D01*
X129489047Y-93807380D01*
X139108095Y-95417380D02*
X139679523Y-95417380D01*
X139393809Y-95417380D02*
X139393809Y-94417380D01*
X139489047Y-94560238D01*
X139584285Y-94655476D01*
X139679523Y-94703095D01*
X138774761Y-94417380D02*
X138155714Y-94417380D01*
X138489047Y-94798333D01*
X138346190Y-94798333D01*
X138250952Y-94845952D01*
X138203333Y-94893571D01*
X138155714Y-94988809D01*
X138155714Y-95226904D01*
X138203333Y-95322142D01*
X138250952Y-95369761D01*
X138346190Y-95417380D01*
X138631904Y-95417380D01*
X138727142Y-95369761D01*
X138774761Y-95322142D01*
X137727142Y-95322142D02*
X137679523Y-95369761D01*
X137727142Y-95417380D01*
X137774761Y-95369761D01*
X137727142Y-95322142D01*
X137727142Y-95417380D01*
X137727142Y-94798333D02*
X137679523Y-94845952D01*
X137727142Y-94893571D01*
X137774761Y-94845952D01*
X137727142Y-94798333D01*
X137727142Y-94893571D01*
X135965238Y-94465000D02*
X136060476Y-94417380D01*
X136203333Y-94417380D01*
X136346190Y-94465000D01*
X136441428Y-94560238D01*
X136489047Y-94655476D01*
X136536666Y-94845952D01*
X136536666Y-94988809D01*
X136489047Y-95179285D01*
X136441428Y-95274523D01*
X136346190Y-95369761D01*
X136203333Y-95417380D01*
X136108095Y-95417380D01*
X135965238Y-95369761D01*
X135917619Y-95322142D01*
X135917619Y-94988809D01*
X136108095Y-94988809D01*
X135060476Y-95417380D02*
X135060476Y-94893571D01*
X135108095Y-94798333D01*
X135203333Y-94750714D01*
X135393809Y-94750714D01*
X135489047Y-94798333D01*
X135060476Y-95369761D02*
X135155714Y-95417380D01*
X135393809Y-95417380D01*
X135489047Y-95369761D01*
X135536666Y-95274523D01*
X135536666Y-95179285D01*
X135489047Y-95084047D01*
X135393809Y-95036428D01*
X135155714Y-95036428D01*
X135060476Y-94988809D01*
X134727142Y-94750714D02*
X134346190Y-94750714D01*
X134584285Y-94417380D02*
X134584285Y-95274523D01*
X134536666Y-95369761D01*
X134441428Y-95417380D01*
X134346190Y-95417380D01*
X133631904Y-95369761D02*
X133727142Y-95417380D01*
X133917619Y-95417380D01*
X134012857Y-95369761D01*
X134060476Y-95274523D01*
X134060476Y-94893571D01*
X134012857Y-94798333D01*
X133917619Y-94750714D01*
X133727142Y-94750714D01*
X133631904Y-94798333D01*
X133584285Y-94893571D01*
X133584285Y-94988809D01*
X134060476Y-95084047D01*
X132393809Y-95417380D02*
X132393809Y-94417380D01*
X132012857Y-94417380D01*
X131917619Y-94465000D01*
X131870000Y-94512619D01*
X131822380Y-94607857D01*
X131822380Y-94750714D01*
X131870000Y-94845952D01*
X131917619Y-94893571D01*
X132012857Y-94941190D01*
X132393809Y-94941190D01*
X130870000Y-95417380D02*
X131441428Y-95417380D01*
X131155714Y-95417380D02*
X131155714Y-94417380D01*
X131250952Y-94560238D01*
X131346190Y-94655476D01*
X131441428Y-94703095D01*
X130393809Y-95369761D02*
X130393809Y-95417380D01*
X130441428Y-95512619D01*
X130489047Y-95560238D01*
X129203333Y-94750714D02*
X129203333Y-95750714D01*
X129203333Y-94798333D02*
X129108095Y-94750714D01*
X128917619Y-94750714D01*
X128822380Y-94798333D01*
X128774761Y-94845952D01*
X128727142Y-94941190D01*
X128727142Y-95226904D01*
X128774761Y-95322142D01*
X128822380Y-95369761D01*
X128917619Y-95417380D01*
X129108095Y-95417380D01*
X129203333Y-95369761D01*
X128155714Y-95417380D02*
X128250952Y-95369761D01*
X128298571Y-95322142D01*
X128346190Y-95226904D01*
X128346190Y-94941190D01*
X128298571Y-94845952D01*
X128250952Y-94798333D01*
X128155714Y-94750714D01*
X128012857Y-94750714D01*
X127917619Y-94798333D01*
X127870000Y-94845952D01*
X127822380Y-94941190D01*
X127822380Y-95226904D01*
X127870000Y-95322142D01*
X127917619Y-95369761D01*
X128012857Y-95417380D01*
X128155714Y-95417380D01*
X127393809Y-95417380D02*
X127393809Y-94750714D01*
X127393809Y-94941190D02*
X127346190Y-94845952D01*
X127298571Y-94798333D01*
X127203333Y-94750714D01*
X127108095Y-94750714D01*
X126917619Y-94750714D02*
X126536666Y-94750714D01*
X126774761Y-94417380D02*
X126774761Y-95274523D01*
X126727142Y-95369761D01*
X126631904Y-95417380D01*
X126536666Y-95417380D01*
X125489047Y-95131666D02*
X125012857Y-95131666D01*
X125584285Y-95417380D02*
X125250952Y-94417380D01*
X124917619Y-95417380D01*
X139108095Y-97027380D02*
X139679523Y-97027380D01*
X139393809Y-97027380D02*
X139393809Y-96027380D01*
X139489047Y-96170238D01*
X139584285Y-96265476D01*
X139679523Y-96313095D01*
X138250952Y-96027380D02*
X138441428Y-96027380D01*
X138536666Y-96075000D01*
X138584285Y-96122619D01*
X138679523Y-96265476D01*
X138727142Y-96455952D01*
X138727142Y-96836904D01*
X138679523Y-96932142D01*
X138631904Y-96979761D01*
X138536666Y-97027380D01*
X138346190Y-97027380D01*
X138250952Y-96979761D01*
X138203333Y-96932142D01*
X138155714Y-96836904D01*
X138155714Y-96598809D01*
X138203333Y-96503571D01*
X138250952Y-96455952D01*
X138346190Y-96408333D01*
X138536666Y-96408333D01*
X138631904Y-96455952D01*
X138679523Y-96503571D01*
X138727142Y-96598809D01*
X137727142Y-96932142D02*
X137679523Y-96979761D01*
X137727142Y-97027380D01*
X137774761Y-96979761D01*
X137727142Y-96932142D01*
X137727142Y-97027380D01*
X137727142Y-96408333D02*
X137679523Y-96455952D01*
X137727142Y-96503571D01*
X137774761Y-96455952D01*
X137727142Y-96408333D01*
X137727142Y-96503571D01*
X135965238Y-96075000D02*
X136060476Y-96027380D01*
X136203333Y-96027380D01*
X136346190Y-96075000D01*
X136441428Y-96170238D01*
X136489047Y-96265476D01*
X136536666Y-96455952D01*
X136536666Y-96598809D01*
X136489047Y-96789285D01*
X136441428Y-96884523D01*
X136346190Y-96979761D01*
X136203333Y-97027380D01*
X136108095Y-97027380D01*
X135965238Y-96979761D01*
X135917619Y-96932142D01*
X135917619Y-96598809D01*
X136108095Y-96598809D01*
X135060476Y-97027380D02*
X135060476Y-96503571D01*
X135108095Y-96408333D01*
X135203333Y-96360714D01*
X135393809Y-96360714D01*
X135489047Y-96408333D01*
X135060476Y-96979761D02*
X135155714Y-97027380D01*
X135393809Y-97027380D01*
X135489047Y-96979761D01*
X135536666Y-96884523D01*
X135536666Y-96789285D01*
X135489047Y-96694047D01*
X135393809Y-96646428D01*
X135155714Y-96646428D01*
X135060476Y-96598809D01*
X134727142Y-96360714D02*
X134346190Y-96360714D01*
X134584285Y-96027380D02*
X134584285Y-96884523D01*
X134536666Y-96979761D01*
X134441428Y-97027380D01*
X134346190Y-97027380D01*
X133631904Y-96979761D02*
X133727142Y-97027380D01*
X133917619Y-97027380D01*
X134012857Y-96979761D01*
X134060476Y-96884523D01*
X134060476Y-96503571D01*
X134012857Y-96408333D01*
X133917619Y-96360714D01*
X133727142Y-96360714D01*
X133631904Y-96408333D01*
X133584285Y-96503571D01*
X133584285Y-96598809D01*
X134060476Y-96694047D01*
X132393809Y-97027380D02*
X132393809Y-96027380D01*
X131822380Y-97027380D01*
X131822380Y-96027380D01*
X131393809Y-96122619D02*
X131346190Y-96075000D01*
X131250952Y-96027380D01*
X131012857Y-96027380D01*
X130917619Y-96075000D01*
X130870000Y-96122619D01*
X130822380Y-96217857D01*
X130822380Y-96313095D01*
X130870000Y-96455952D01*
X131441428Y-97027380D01*
X130822380Y-97027380D01*
X130346190Y-96979761D02*
X130346190Y-97027380D01*
X130393809Y-97122619D01*
X130441428Y-97170238D01*
X129155714Y-96360714D02*
X129155714Y-97360714D01*
X129155714Y-96408333D02*
X129060476Y-96360714D01*
X128870000Y-96360714D01*
X128774761Y-96408333D01*
X128727142Y-96455952D01*
X128679523Y-96551190D01*
X128679523Y-96836904D01*
X128727142Y-96932142D01*
X128774761Y-96979761D01*
X128870000Y-97027380D01*
X129060476Y-97027380D01*
X129155714Y-96979761D01*
X128108095Y-97027380D02*
X128203333Y-96979761D01*
X128250952Y-96932142D01*
X128298571Y-96836904D01*
X128298571Y-96551190D01*
X128250952Y-96455952D01*
X128203333Y-96408333D01*
X128108095Y-96360714D01*
X127965238Y-96360714D01*
X127870000Y-96408333D01*
X127822380Y-96455952D01*
X127774761Y-96551190D01*
X127774761Y-96836904D01*
X127822380Y-96932142D01*
X127870000Y-96979761D01*
X127965238Y-97027380D01*
X128108095Y-97027380D01*
X127346190Y-97027380D02*
X127346190Y-96360714D01*
X127346190Y-96551190D02*
X127298571Y-96455952D01*
X127250952Y-96408333D01*
X127155714Y-96360714D01*
X127060476Y-96360714D01*
X126870000Y-96360714D02*
X126489047Y-96360714D01*
X126727142Y-96027380D02*
X126727142Y-96884523D01*
X126679523Y-96979761D01*
X126584285Y-97027380D01*
X126489047Y-97027380D01*
X125441428Y-96741666D02*
X124965238Y-96741666D01*
X125536666Y-97027380D02*
X125203333Y-96027380D01*
X124870000Y-97027380D01*
X139108095Y-98637380D02*
X139679523Y-98637380D01*
X139393809Y-98637380D02*
X139393809Y-97637380D01*
X139489047Y-97780238D01*
X139584285Y-97875476D01*
X139679523Y-97923095D01*
X138774761Y-97637380D02*
X138108095Y-97637380D01*
X138536666Y-98637380D01*
X137727142Y-98542142D02*
X137679523Y-98589761D01*
X137727142Y-98637380D01*
X137774761Y-98589761D01*
X137727142Y-98542142D01*
X137727142Y-98637380D01*
X137727142Y-98018333D02*
X137679523Y-98065952D01*
X137727142Y-98113571D01*
X137774761Y-98065952D01*
X137727142Y-98018333D01*
X137727142Y-98113571D01*
X135965238Y-97685000D02*
X136060476Y-97637380D01*
X136203333Y-97637380D01*
X136346190Y-97685000D01*
X136441428Y-97780238D01*
X136489047Y-97875476D01*
X136536666Y-98065952D01*
X136536666Y-98208809D01*
X136489047Y-98399285D01*
X136441428Y-98494523D01*
X136346190Y-98589761D01*
X136203333Y-98637380D01*
X136108095Y-98637380D01*
X135965238Y-98589761D01*
X135917619Y-98542142D01*
X135917619Y-98208809D01*
X136108095Y-98208809D01*
X135060476Y-98637380D02*
X135060476Y-98113571D01*
X135108095Y-98018333D01*
X135203333Y-97970714D01*
X135393809Y-97970714D01*
X135489047Y-98018333D01*
X135060476Y-98589761D02*
X135155714Y-98637380D01*
X135393809Y-98637380D01*
X135489047Y-98589761D01*
X135536666Y-98494523D01*
X135536666Y-98399285D01*
X135489047Y-98304047D01*
X135393809Y-98256428D01*
X135155714Y-98256428D01*
X135060476Y-98208809D01*
X134727142Y-97970714D02*
X134346190Y-97970714D01*
X134584285Y-97637380D02*
X134584285Y-98494523D01*
X134536666Y-98589761D01*
X134441428Y-98637380D01*
X134346190Y-98637380D01*
X133631904Y-98589761D02*
X133727142Y-98637380D01*
X133917619Y-98637380D01*
X134012857Y-98589761D01*
X134060476Y-98494523D01*
X134060476Y-98113571D01*
X134012857Y-98018333D01*
X133917619Y-97970714D01*
X133727142Y-97970714D01*
X133631904Y-98018333D01*
X133584285Y-98113571D01*
X133584285Y-98208809D01*
X134060476Y-98304047D01*
X132393809Y-98637380D02*
X132393809Y-97637380D01*
X132012857Y-97637380D01*
X131917619Y-97685000D01*
X131870000Y-97732619D01*
X131822380Y-97827857D01*
X131822380Y-97970714D01*
X131870000Y-98065952D01*
X131917619Y-98113571D01*
X132012857Y-98161190D01*
X132393809Y-98161190D01*
X131441428Y-97732619D02*
X131393809Y-97685000D01*
X131298571Y-97637380D01*
X131060476Y-97637380D01*
X130965238Y-97685000D01*
X130917619Y-97732619D01*
X130870000Y-97827857D01*
X130870000Y-97923095D01*
X130917619Y-98065952D01*
X131489047Y-98637380D01*
X130870000Y-98637380D01*
X130393809Y-98589761D02*
X130393809Y-98637380D01*
X130441428Y-98732619D01*
X130489047Y-98780238D01*
X129203333Y-97970714D02*
X129203333Y-98970714D01*
X129203333Y-98018333D02*
X129108095Y-97970714D01*
X128917619Y-97970714D01*
X128822380Y-98018333D01*
X128774761Y-98065952D01*
X128727142Y-98161190D01*
X128727142Y-98446904D01*
X128774761Y-98542142D01*
X128822380Y-98589761D01*
X128917619Y-98637380D01*
X129108095Y-98637380D01*
X129203333Y-98589761D01*
X128155714Y-98637380D02*
X128250952Y-98589761D01*
X128298571Y-98542142D01*
X128346190Y-98446904D01*
X128346190Y-98161190D01*
X128298571Y-98065952D01*
X128250952Y-98018333D01*
X128155714Y-97970714D01*
X128012857Y-97970714D01*
X127917619Y-98018333D01*
X127870000Y-98065952D01*
X127822380Y-98161190D01*
X127822380Y-98446904D01*
X127870000Y-98542142D01*
X127917619Y-98589761D01*
X128012857Y-98637380D01*
X128155714Y-98637380D01*
X127393809Y-98637380D02*
X127393809Y-97970714D01*
X127393809Y-98161190D02*
X127346190Y-98065952D01*
X127298571Y-98018333D01*
X127203333Y-97970714D01*
X127108095Y-97970714D01*
X126917619Y-97970714D02*
X126536666Y-97970714D01*
X126774761Y-97637380D02*
X126774761Y-98494523D01*
X126727142Y-98589761D01*
X126631904Y-98637380D01*
X126536666Y-98637380D01*
X125489047Y-98351666D02*
X125012857Y-98351666D01*
X125584285Y-98637380D02*
X125250952Y-97637380D01*
X124917619Y-98637380D01*
X139108095Y-100247380D02*
X139679523Y-100247380D01*
X139393809Y-100247380D02*
X139393809Y-99247380D01*
X139489047Y-99390238D01*
X139584285Y-99485476D01*
X139679523Y-99533095D01*
X138536666Y-99675952D02*
X138631904Y-99628333D01*
X138679523Y-99580714D01*
X138727142Y-99485476D01*
X138727142Y-99437857D01*
X138679523Y-99342619D01*
X138631904Y-99295000D01*
X138536666Y-99247380D01*
X138346190Y-99247380D01*
X138250952Y-99295000D01*
X138203333Y-99342619D01*
X138155714Y-99437857D01*
X138155714Y-99485476D01*
X138203333Y-99580714D01*
X138250952Y-99628333D01*
X138346190Y-99675952D01*
X138536666Y-99675952D01*
X138631904Y-99723571D01*
X138679523Y-99771190D01*
X138727142Y-99866428D01*
X138727142Y-100056904D01*
X138679523Y-100152142D01*
X138631904Y-100199761D01*
X138536666Y-100247380D01*
X138346190Y-100247380D01*
X138250952Y-100199761D01*
X138203333Y-100152142D01*
X138155714Y-100056904D01*
X138155714Y-99866428D01*
X138203333Y-99771190D01*
X138250952Y-99723571D01*
X138346190Y-99675952D01*
X137727142Y-100152142D02*
X137679523Y-100199761D01*
X137727142Y-100247380D01*
X137774761Y-100199761D01*
X137727142Y-100152142D01*
X137727142Y-100247380D01*
X137727142Y-99628333D02*
X137679523Y-99675952D01*
X137727142Y-99723571D01*
X137774761Y-99675952D01*
X137727142Y-99628333D01*
X137727142Y-99723571D01*
X135965238Y-99295000D02*
X136060476Y-99247380D01*
X136203333Y-99247380D01*
X136346190Y-99295000D01*
X136441428Y-99390238D01*
X136489047Y-99485476D01*
X136536666Y-99675952D01*
X136536666Y-99818809D01*
X136489047Y-100009285D01*
X136441428Y-100104523D01*
X136346190Y-100199761D01*
X136203333Y-100247380D01*
X136108095Y-100247380D01*
X135965238Y-100199761D01*
X135917619Y-100152142D01*
X135917619Y-99818809D01*
X136108095Y-99818809D01*
X135060476Y-100247380D02*
X135060476Y-99723571D01*
X135108095Y-99628333D01*
X135203333Y-99580714D01*
X135393809Y-99580714D01*
X135489047Y-99628333D01*
X135060476Y-100199761D02*
X135155714Y-100247380D01*
X135393809Y-100247380D01*
X135489047Y-100199761D01*
X135536666Y-100104523D01*
X135536666Y-100009285D01*
X135489047Y-99914047D01*
X135393809Y-99866428D01*
X135155714Y-99866428D01*
X135060476Y-99818809D01*
X134727142Y-99580714D02*
X134346190Y-99580714D01*
X134584285Y-99247380D02*
X134584285Y-100104523D01*
X134536666Y-100199761D01*
X134441428Y-100247380D01*
X134346190Y-100247380D01*
X133631904Y-100199761D02*
X133727142Y-100247380D01*
X133917619Y-100247380D01*
X134012857Y-100199761D01*
X134060476Y-100104523D01*
X134060476Y-99723571D01*
X134012857Y-99628333D01*
X133917619Y-99580714D01*
X133727142Y-99580714D01*
X133631904Y-99628333D01*
X133584285Y-99723571D01*
X133584285Y-99818809D01*
X134060476Y-99914047D01*
X132393809Y-100247380D02*
X132393809Y-99247380D01*
X131822380Y-100247380D01*
X131822380Y-99247380D01*
X130822380Y-100247380D02*
X131393809Y-100247380D01*
X131108095Y-100247380D02*
X131108095Y-99247380D01*
X131203333Y-99390238D01*
X131298571Y-99485476D01*
X131393809Y-99533095D01*
X130346190Y-100199761D02*
X130346190Y-100247380D01*
X130393809Y-100342619D01*
X130441428Y-100390238D01*
X129155714Y-99580714D02*
X129155714Y-100580714D01*
X129155714Y-99628333D02*
X129060476Y-99580714D01*
X128870000Y-99580714D01*
X128774761Y-99628333D01*
X128727142Y-99675952D01*
X128679523Y-99771190D01*
X128679523Y-100056904D01*
X128727142Y-100152142D01*
X128774761Y-100199761D01*
X128870000Y-100247380D01*
X129060476Y-100247380D01*
X129155714Y-100199761D01*
X128108095Y-100247380D02*
X128203333Y-100199761D01*
X128250952Y-100152142D01*
X128298571Y-100056904D01*
X128298571Y-99771190D01*
X128250952Y-99675952D01*
X128203333Y-99628333D01*
X128108095Y-99580714D01*
X127965238Y-99580714D01*
X127870000Y-99628333D01*
X127822380Y-99675952D01*
X127774761Y-99771190D01*
X127774761Y-100056904D01*
X127822380Y-100152142D01*
X127870000Y-100199761D01*
X127965238Y-100247380D01*
X128108095Y-100247380D01*
X127346190Y-100247380D02*
X127346190Y-99580714D01*
X127346190Y-99771190D02*
X127298571Y-99675952D01*
X127250952Y-99628333D01*
X127155714Y-99580714D01*
X127060476Y-99580714D01*
X126870000Y-99580714D02*
X126489047Y-99580714D01*
X126727142Y-99247380D02*
X126727142Y-100104523D01*
X126679523Y-100199761D01*
X126584285Y-100247380D01*
X126489047Y-100247380D01*
X125441428Y-99961666D02*
X124965238Y-99961666D01*
X125536666Y-100247380D02*
X125203333Y-99247380D01*
X124870000Y-100247380D01*
X139108095Y-101857380D02*
X139679523Y-101857380D01*
X139393809Y-101857380D02*
X139393809Y-100857380D01*
X139489047Y-101000238D01*
X139584285Y-101095476D01*
X139679523Y-101143095D01*
X138631904Y-101857380D02*
X138441428Y-101857380D01*
X138346190Y-101809761D01*
X138298571Y-101762142D01*
X138203333Y-101619285D01*
X138155714Y-101428809D01*
X138155714Y-101047857D01*
X138203333Y-100952619D01*
X138250952Y-100905000D01*
X138346190Y-100857380D01*
X138536666Y-100857380D01*
X138631904Y-100905000D01*
X138679523Y-100952619D01*
X138727142Y-101047857D01*
X138727142Y-101285952D01*
X138679523Y-101381190D01*
X138631904Y-101428809D01*
X138536666Y-101476428D01*
X138346190Y-101476428D01*
X138250952Y-101428809D01*
X138203333Y-101381190D01*
X138155714Y-101285952D01*
X137727142Y-101762142D02*
X137679523Y-101809761D01*
X137727142Y-101857380D01*
X137774761Y-101809761D01*
X137727142Y-101762142D01*
X137727142Y-101857380D01*
X137727142Y-101238333D02*
X137679523Y-101285952D01*
X137727142Y-101333571D01*
X137774761Y-101285952D01*
X137727142Y-101238333D01*
X137727142Y-101333571D01*
X135965238Y-100905000D02*
X136060476Y-100857380D01*
X136203333Y-100857380D01*
X136346190Y-100905000D01*
X136441428Y-101000238D01*
X136489047Y-101095476D01*
X136536666Y-101285952D01*
X136536666Y-101428809D01*
X136489047Y-101619285D01*
X136441428Y-101714523D01*
X136346190Y-101809761D01*
X136203333Y-101857380D01*
X136108095Y-101857380D01*
X135965238Y-101809761D01*
X135917619Y-101762142D01*
X135917619Y-101428809D01*
X136108095Y-101428809D01*
X135060476Y-101857380D02*
X135060476Y-101333571D01*
X135108095Y-101238333D01*
X135203333Y-101190714D01*
X135393809Y-101190714D01*
X135489047Y-101238333D01*
X135060476Y-101809761D02*
X135155714Y-101857380D01*
X135393809Y-101857380D01*
X135489047Y-101809761D01*
X135536666Y-101714523D01*
X135536666Y-101619285D01*
X135489047Y-101524047D01*
X135393809Y-101476428D01*
X135155714Y-101476428D01*
X135060476Y-101428809D01*
X134727142Y-101190714D02*
X134346190Y-101190714D01*
X134584285Y-100857380D02*
X134584285Y-101714523D01*
X134536666Y-101809761D01*
X134441428Y-101857380D01*
X134346190Y-101857380D01*
X133631904Y-101809761D02*
X133727142Y-101857380D01*
X133917619Y-101857380D01*
X134012857Y-101809761D01*
X134060476Y-101714523D01*
X134060476Y-101333571D01*
X134012857Y-101238333D01*
X133917619Y-101190714D01*
X133727142Y-101190714D01*
X133631904Y-101238333D01*
X133584285Y-101333571D01*
X133584285Y-101428809D01*
X134060476Y-101524047D01*
X132393809Y-101857380D02*
X132393809Y-100857380D01*
X131822380Y-101857380D01*
X131822380Y-100857380D01*
X131393809Y-100952619D02*
X131346190Y-100905000D01*
X131250952Y-100857380D01*
X131012857Y-100857380D01*
X130917619Y-100905000D01*
X130870000Y-100952619D01*
X130822380Y-101047857D01*
X130822380Y-101143095D01*
X130870000Y-101285952D01*
X131441428Y-101857380D01*
X130822380Y-101857380D01*
X130346190Y-101809761D02*
X130346190Y-101857380D01*
X130393809Y-101952619D01*
X130441428Y-102000238D01*
X129155714Y-101190714D02*
X129155714Y-102190714D01*
X129155714Y-101238333D02*
X129060476Y-101190714D01*
X128870000Y-101190714D01*
X128774761Y-101238333D01*
X128727142Y-101285952D01*
X128679523Y-101381190D01*
X128679523Y-101666904D01*
X128727142Y-101762142D01*
X128774761Y-101809761D01*
X128870000Y-101857380D01*
X129060476Y-101857380D01*
X129155714Y-101809761D01*
X128108095Y-101857380D02*
X128203333Y-101809761D01*
X128250952Y-101762142D01*
X128298571Y-101666904D01*
X128298571Y-101381190D01*
X128250952Y-101285952D01*
X128203333Y-101238333D01*
X128108095Y-101190714D01*
X127965238Y-101190714D01*
X127870000Y-101238333D01*
X127822380Y-101285952D01*
X127774761Y-101381190D01*
X127774761Y-101666904D01*
X127822380Y-101762142D01*
X127870000Y-101809761D01*
X127965238Y-101857380D01*
X128108095Y-101857380D01*
X127346190Y-101857380D02*
X127346190Y-101190714D01*
X127346190Y-101381190D02*
X127298571Y-101285952D01*
X127250952Y-101238333D01*
X127155714Y-101190714D01*
X127060476Y-101190714D01*
X126870000Y-101190714D02*
X126489047Y-101190714D01*
X126727142Y-100857380D02*
X126727142Y-101714523D01*
X126679523Y-101809761D01*
X126584285Y-101857380D01*
X126489047Y-101857380D01*
X125060476Y-101333571D02*
X124917619Y-101381190D01*
X124870000Y-101428809D01*
X124822380Y-101524047D01*
X124822380Y-101666904D01*
X124870000Y-101762142D01*
X124917619Y-101809761D01*
X125012857Y-101857380D01*
X125393809Y-101857380D01*
X125393809Y-100857380D01*
X125060476Y-100857380D01*
X124965238Y-100905000D01*
X124917619Y-100952619D01*
X124870000Y-101047857D01*
X124870000Y-101143095D01*
X124917619Y-101238333D01*
X124965238Y-101285952D01*
X125060476Y-101333571D01*
X125393809Y-101333571D01*
X139679523Y-102562619D02*
X139631904Y-102515000D01*
X139536666Y-102467380D01*
X139298571Y-102467380D01*
X139203333Y-102515000D01*
X139155714Y-102562619D01*
X139108095Y-102657857D01*
X139108095Y-102753095D01*
X139155714Y-102895952D01*
X139727142Y-103467380D01*
X139108095Y-103467380D01*
X138155714Y-103467380D02*
X138727142Y-103467380D01*
X138441428Y-103467380D02*
X138441428Y-102467380D01*
X138536666Y-102610238D01*
X138631904Y-102705476D01*
X138727142Y-102753095D01*
X137727142Y-103372142D02*
X137679523Y-103419761D01*
X137727142Y-103467380D01*
X137774761Y-103419761D01*
X137727142Y-103372142D01*
X137727142Y-103467380D01*
X137727142Y-102848333D02*
X137679523Y-102895952D01*
X137727142Y-102943571D01*
X137774761Y-102895952D01*
X137727142Y-102848333D01*
X137727142Y-102943571D01*
X135965238Y-102515000D02*
X136060476Y-102467380D01*
X136203333Y-102467380D01*
X136346190Y-102515000D01*
X136441428Y-102610238D01*
X136489047Y-102705476D01*
X136536666Y-102895952D01*
X136536666Y-103038809D01*
X136489047Y-103229285D01*
X136441428Y-103324523D01*
X136346190Y-103419761D01*
X136203333Y-103467380D01*
X136108095Y-103467380D01*
X135965238Y-103419761D01*
X135917619Y-103372142D01*
X135917619Y-103038809D01*
X136108095Y-103038809D01*
X135060476Y-103467380D02*
X135060476Y-102943571D01*
X135108095Y-102848333D01*
X135203333Y-102800714D01*
X135393809Y-102800714D01*
X135489047Y-102848333D01*
X135060476Y-103419761D02*
X135155714Y-103467380D01*
X135393809Y-103467380D01*
X135489047Y-103419761D01*
X135536666Y-103324523D01*
X135536666Y-103229285D01*
X135489047Y-103134047D01*
X135393809Y-103086428D01*
X135155714Y-103086428D01*
X135060476Y-103038809D01*
X134727142Y-102800714D02*
X134346190Y-102800714D01*
X134584285Y-102467380D02*
X134584285Y-103324523D01*
X134536666Y-103419761D01*
X134441428Y-103467380D01*
X134346190Y-103467380D01*
X133631904Y-103419761D02*
X133727142Y-103467380D01*
X133917619Y-103467380D01*
X134012857Y-103419761D01*
X134060476Y-103324523D01*
X134060476Y-102943571D01*
X134012857Y-102848333D01*
X133917619Y-102800714D01*
X133727142Y-102800714D01*
X133631904Y-102848333D01*
X133584285Y-102943571D01*
X133584285Y-103038809D01*
X134060476Y-103134047D01*
X132393809Y-103467380D02*
X132393809Y-102467380D01*
X132012857Y-102467380D01*
X131917619Y-102515000D01*
X131870000Y-102562619D01*
X131822380Y-102657857D01*
X131822380Y-102800714D01*
X131870000Y-102895952D01*
X131917619Y-102943571D01*
X132012857Y-102991190D01*
X132393809Y-102991190D01*
X131441428Y-102562619D02*
X131393809Y-102515000D01*
X131298571Y-102467380D01*
X131060476Y-102467380D01*
X130965238Y-102515000D01*
X130917619Y-102562619D01*
X130870000Y-102657857D01*
X130870000Y-102753095D01*
X130917619Y-102895952D01*
X131489047Y-103467380D01*
X130870000Y-103467380D01*
X130393809Y-103419761D02*
X130393809Y-103467380D01*
X130441428Y-103562619D01*
X130489047Y-103610238D01*
X129203333Y-102800714D02*
X129203333Y-103800714D01*
X129203333Y-102848333D02*
X129108095Y-102800714D01*
X128917619Y-102800714D01*
X128822380Y-102848333D01*
X128774761Y-102895952D01*
X128727142Y-102991190D01*
X128727142Y-103276904D01*
X128774761Y-103372142D01*
X128822380Y-103419761D01*
X128917619Y-103467380D01*
X129108095Y-103467380D01*
X129203333Y-103419761D01*
X128155714Y-103467380D02*
X128250952Y-103419761D01*
X128298571Y-103372142D01*
X128346190Y-103276904D01*
X128346190Y-102991190D01*
X128298571Y-102895952D01*
X128250952Y-102848333D01*
X128155714Y-102800714D01*
X128012857Y-102800714D01*
X127917619Y-102848333D01*
X127870000Y-102895952D01*
X127822380Y-102991190D01*
X127822380Y-103276904D01*
X127870000Y-103372142D01*
X127917619Y-103419761D01*
X128012857Y-103467380D01*
X128155714Y-103467380D01*
X127393809Y-103467380D02*
X127393809Y-102800714D01*
X127393809Y-102991190D02*
X127346190Y-102895952D01*
X127298571Y-102848333D01*
X127203333Y-102800714D01*
X127108095Y-102800714D01*
X126917619Y-102800714D02*
X126536666Y-102800714D01*
X126774761Y-102467380D02*
X126774761Y-103324523D01*
X126727142Y-103419761D01*
X126631904Y-103467380D01*
X126536666Y-103467380D01*
X125108095Y-102943571D02*
X124965238Y-102991190D01*
X124917619Y-103038809D01*
X124870000Y-103134047D01*
X124870000Y-103276904D01*
X124917619Y-103372142D01*
X124965238Y-103419761D01*
X125060476Y-103467380D01*
X125441428Y-103467380D01*
X125441428Y-102467380D01*
X125108095Y-102467380D01*
X125012857Y-102515000D01*
X124965238Y-102562619D01*
X124917619Y-102657857D01*
X124917619Y-102753095D01*
X124965238Y-102848333D01*
X125012857Y-102895952D01*
X125108095Y-102943571D01*
X125441428Y-102943571D01*
X139679523Y-104172619D02*
X139631904Y-104125000D01*
X139536666Y-104077380D01*
X139298571Y-104077380D01*
X139203333Y-104125000D01*
X139155714Y-104172619D01*
X139108095Y-104267857D01*
X139108095Y-104363095D01*
X139155714Y-104505952D01*
X139727142Y-105077380D01*
X139108095Y-105077380D01*
X138727142Y-104172619D02*
X138679523Y-104125000D01*
X138584285Y-104077380D01*
X138346190Y-104077380D01*
X138250952Y-104125000D01*
X138203333Y-104172619D01*
X138155714Y-104267857D01*
X138155714Y-104363095D01*
X138203333Y-104505952D01*
X138774761Y-105077380D01*
X138155714Y-105077380D01*
X137727142Y-104982142D02*
X137679523Y-105029761D01*
X137727142Y-105077380D01*
X137774761Y-105029761D01*
X137727142Y-104982142D01*
X137727142Y-105077380D01*
X137727142Y-104458333D02*
X137679523Y-104505952D01*
X137727142Y-104553571D01*
X137774761Y-104505952D01*
X137727142Y-104458333D01*
X137727142Y-104553571D01*
X135965238Y-104125000D02*
X136060476Y-104077380D01*
X136203333Y-104077380D01*
X136346190Y-104125000D01*
X136441428Y-104220238D01*
X136489047Y-104315476D01*
X136536666Y-104505952D01*
X136536666Y-104648809D01*
X136489047Y-104839285D01*
X136441428Y-104934523D01*
X136346190Y-105029761D01*
X136203333Y-105077380D01*
X136108095Y-105077380D01*
X135965238Y-105029761D01*
X135917619Y-104982142D01*
X135917619Y-104648809D01*
X136108095Y-104648809D01*
X135060476Y-105077380D02*
X135060476Y-104553571D01*
X135108095Y-104458333D01*
X135203333Y-104410714D01*
X135393809Y-104410714D01*
X135489047Y-104458333D01*
X135060476Y-105029761D02*
X135155714Y-105077380D01*
X135393809Y-105077380D01*
X135489047Y-105029761D01*
X135536666Y-104934523D01*
X135536666Y-104839285D01*
X135489047Y-104744047D01*
X135393809Y-104696428D01*
X135155714Y-104696428D01*
X135060476Y-104648809D01*
X134727142Y-104410714D02*
X134346190Y-104410714D01*
X134584285Y-104077380D02*
X134584285Y-104934523D01*
X134536666Y-105029761D01*
X134441428Y-105077380D01*
X134346190Y-105077380D01*
X133631904Y-105029761D02*
X133727142Y-105077380D01*
X133917619Y-105077380D01*
X134012857Y-105029761D01*
X134060476Y-104934523D01*
X134060476Y-104553571D01*
X134012857Y-104458333D01*
X133917619Y-104410714D01*
X133727142Y-104410714D01*
X133631904Y-104458333D01*
X133584285Y-104553571D01*
X133584285Y-104648809D01*
X134060476Y-104744047D01*
X132393809Y-105077380D02*
X132393809Y-104077380D01*
X131822380Y-105077380D01*
X131822380Y-104077380D01*
X130822380Y-105077380D02*
X131393809Y-105077380D01*
X131108095Y-105077380D02*
X131108095Y-104077380D01*
X131203333Y-104220238D01*
X131298571Y-104315476D01*
X131393809Y-104363095D01*
X130346190Y-105029761D02*
X130346190Y-105077380D01*
X130393809Y-105172619D01*
X130441428Y-105220238D01*
X129155714Y-104410714D02*
X129155714Y-105410714D01*
X129155714Y-104458333D02*
X129060476Y-104410714D01*
X128870000Y-104410714D01*
X128774761Y-104458333D01*
X128727142Y-104505952D01*
X128679523Y-104601190D01*
X128679523Y-104886904D01*
X128727142Y-104982142D01*
X128774761Y-105029761D01*
X128870000Y-105077380D01*
X129060476Y-105077380D01*
X129155714Y-105029761D01*
X128108095Y-105077380D02*
X128203333Y-105029761D01*
X128250952Y-104982142D01*
X128298571Y-104886904D01*
X128298571Y-104601190D01*
X128250952Y-104505952D01*
X128203333Y-104458333D01*
X128108095Y-104410714D01*
X127965238Y-104410714D01*
X127870000Y-104458333D01*
X127822380Y-104505952D01*
X127774761Y-104601190D01*
X127774761Y-104886904D01*
X127822380Y-104982142D01*
X127870000Y-105029761D01*
X127965238Y-105077380D01*
X128108095Y-105077380D01*
X127346190Y-105077380D02*
X127346190Y-104410714D01*
X127346190Y-104601190D02*
X127298571Y-104505952D01*
X127250952Y-104458333D01*
X127155714Y-104410714D01*
X127060476Y-104410714D01*
X126870000Y-104410714D02*
X126489047Y-104410714D01*
X126727142Y-104077380D02*
X126727142Y-104934523D01*
X126679523Y-105029761D01*
X126584285Y-105077380D01*
X126489047Y-105077380D01*
X125060476Y-104553571D02*
X124917619Y-104601190D01*
X124870000Y-104648809D01*
X124822380Y-104744047D01*
X124822380Y-104886904D01*
X124870000Y-104982142D01*
X124917619Y-105029761D01*
X125012857Y-105077380D01*
X125393809Y-105077380D01*
X125393809Y-104077380D01*
X125060476Y-104077380D01*
X124965238Y-104125000D01*
X124917619Y-104172619D01*
X124870000Y-104267857D01*
X124870000Y-104363095D01*
X124917619Y-104458333D01*
X124965238Y-104505952D01*
X125060476Y-104553571D01*
X125393809Y-104553571D01*
X139679523Y-105782619D02*
X139631904Y-105735000D01*
X139536666Y-105687380D01*
X139298571Y-105687380D01*
X139203333Y-105735000D01*
X139155714Y-105782619D01*
X139108095Y-105877857D01*
X139108095Y-105973095D01*
X139155714Y-106115952D01*
X139727142Y-106687380D01*
X139108095Y-106687380D01*
X138774761Y-105687380D02*
X138155714Y-105687380D01*
X138489047Y-106068333D01*
X138346190Y-106068333D01*
X138250952Y-106115952D01*
X138203333Y-106163571D01*
X138155714Y-106258809D01*
X138155714Y-106496904D01*
X138203333Y-106592142D01*
X138250952Y-106639761D01*
X138346190Y-106687380D01*
X138631904Y-106687380D01*
X138727142Y-106639761D01*
X138774761Y-106592142D01*
X137727142Y-106592142D02*
X137679523Y-106639761D01*
X137727142Y-106687380D01*
X137774761Y-106639761D01*
X137727142Y-106592142D01*
X137727142Y-106687380D01*
X137727142Y-106068333D02*
X137679523Y-106115952D01*
X137727142Y-106163571D01*
X137774761Y-106115952D01*
X137727142Y-106068333D01*
X137727142Y-106163571D01*
X135965238Y-105735000D02*
X136060476Y-105687380D01*
X136203333Y-105687380D01*
X136346190Y-105735000D01*
X136441428Y-105830238D01*
X136489047Y-105925476D01*
X136536666Y-106115952D01*
X136536666Y-106258809D01*
X136489047Y-106449285D01*
X136441428Y-106544523D01*
X136346190Y-106639761D01*
X136203333Y-106687380D01*
X136108095Y-106687380D01*
X135965238Y-106639761D01*
X135917619Y-106592142D01*
X135917619Y-106258809D01*
X136108095Y-106258809D01*
X135060476Y-106687380D02*
X135060476Y-106163571D01*
X135108095Y-106068333D01*
X135203333Y-106020714D01*
X135393809Y-106020714D01*
X135489047Y-106068333D01*
X135060476Y-106639761D02*
X135155714Y-106687380D01*
X135393809Y-106687380D01*
X135489047Y-106639761D01*
X135536666Y-106544523D01*
X135536666Y-106449285D01*
X135489047Y-106354047D01*
X135393809Y-106306428D01*
X135155714Y-106306428D01*
X135060476Y-106258809D01*
X134727142Y-106020714D02*
X134346190Y-106020714D01*
X134584285Y-105687380D02*
X134584285Y-106544523D01*
X134536666Y-106639761D01*
X134441428Y-106687380D01*
X134346190Y-106687380D01*
X133631904Y-106639761D02*
X133727142Y-106687380D01*
X133917619Y-106687380D01*
X134012857Y-106639761D01*
X134060476Y-106544523D01*
X134060476Y-106163571D01*
X134012857Y-106068333D01*
X133917619Y-106020714D01*
X133727142Y-106020714D01*
X133631904Y-106068333D01*
X133584285Y-106163571D01*
X133584285Y-106258809D01*
X134060476Y-106354047D01*
X132393809Y-106687380D02*
X132393809Y-105687380D01*
X132012857Y-105687380D01*
X131917619Y-105735000D01*
X131870000Y-105782619D01*
X131822380Y-105877857D01*
X131822380Y-106020714D01*
X131870000Y-106115952D01*
X131917619Y-106163571D01*
X132012857Y-106211190D01*
X132393809Y-106211190D01*
X130870000Y-106687380D02*
X131441428Y-106687380D01*
X131155714Y-106687380D02*
X131155714Y-105687380D01*
X131250952Y-105830238D01*
X131346190Y-105925476D01*
X131441428Y-105973095D01*
X130393809Y-106639761D02*
X130393809Y-106687380D01*
X130441428Y-106782619D01*
X130489047Y-106830238D01*
X129203333Y-106020714D02*
X129203333Y-107020714D01*
X129203333Y-106068333D02*
X129108095Y-106020714D01*
X128917619Y-106020714D01*
X128822380Y-106068333D01*
X128774761Y-106115952D01*
X128727142Y-106211190D01*
X128727142Y-106496904D01*
X128774761Y-106592142D01*
X128822380Y-106639761D01*
X128917619Y-106687380D01*
X129108095Y-106687380D01*
X129203333Y-106639761D01*
X128155714Y-106687380D02*
X128250952Y-106639761D01*
X128298571Y-106592142D01*
X128346190Y-106496904D01*
X128346190Y-106211190D01*
X128298571Y-106115952D01*
X128250952Y-106068333D01*
X128155714Y-106020714D01*
X128012857Y-106020714D01*
X127917619Y-106068333D01*
X127870000Y-106115952D01*
X127822380Y-106211190D01*
X127822380Y-106496904D01*
X127870000Y-106592142D01*
X127917619Y-106639761D01*
X128012857Y-106687380D01*
X128155714Y-106687380D01*
X127393809Y-106687380D02*
X127393809Y-106020714D01*
X127393809Y-106211190D02*
X127346190Y-106115952D01*
X127298571Y-106068333D01*
X127203333Y-106020714D01*
X127108095Y-106020714D01*
X126917619Y-106020714D02*
X126536666Y-106020714D01*
X126774761Y-105687380D02*
X126774761Y-106544523D01*
X126727142Y-106639761D01*
X126631904Y-106687380D01*
X126536666Y-106687380D01*
X125108095Y-106163571D02*
X124965238Y-106211190D01*
X124917619Y-106258809D01*
X124870000Y-106354047D01*
X124870000Y-106496904D01*
X124917619Y-106592142D01*
X124965238Y-106639761D01*
X125060476Y-106687380D01*
X125441428Y-106687380D01*
X125441428Y-105687380D01*
X125108095Y-105687380D01*
X125012857Y-105735000D01*
X124965238Y-105782619D01*
X124917619Y-105877857D01*
X124917619Y-105973095D01*
X124965238Y-106068333D01*
X125012857Y-106115952D01*
X125108095Y-106163571D01*
X125441428Y-106163571D01*
X139679523Y-107392619D02*
X139631904Y-107345000D01*
X139536666Y-107297380D01*
X139298571Y-107297380D01*
X139203333Y-107345000D01*
X139155714Y-107392619D01*
X139108095Y-107487857D01*
X139108095Y-107583095D01*
X139155714Y-107725952D01*
X139727142Y-108297380D01*
X139108095Y-108297380D01*
X138203333Y-107297380D02*
X138679523Y-107297380D01*
X138727142Y-107773571D01*
X138679523Y-107725952D01*
X138584285Y-107678333D01*
X138346190Y-107678333D01*
X138250952Y-107725952D01*
X138203333Y-107773571D01*
X138155714Y-107868809D01*
X138155714Y-108106904D01*
X138203333Y-108202142D01*
X138250952Y-108249761D01*
X138346190Y-108297380D01*
X138584285Y-108297380D01*
X138679523Y-108249761D01*
X138727142Y-108202142D01*
X137727142Y-108202142D02*
X137679523Y-108249761D01*
X137727142Y-108297380D01*
X137774761Y-108249761D01*
X137727142Y-108202142D01*
X137727142Y-108297380D01*
X137727142Y-107678333D02*
X137679523Y-107725952D01*
X137727142Y-107773571D01*
X137774761Y-107725952D01*
X137727142Y-107678333D01*
X137727142Y-107773571D01*
X136489047Y-107773571D02*
X136155714Y-107773571D01*
X136012857Y-108297380D02*
X136489047Y-108297380D01*
X136489047Y-107297380D01*
X136012857Y-107297380D01*
X135584285Y-107630714D02*
X135584285Y-108297380D01*
X135584285Y-107725952D02*
X135536666Y-107678333D01*
X135441428Y-107630714D01*
X135298571Y-107630714D01*
X135203333Y-107678333D01*
X135155714Y-107773571D01*
X135155714Y-108297380D01*
X134250952Y-108297380D02*
X134250952Y-107773571D01*
X134298571Y-107678333D01*
X134393809Y-107630714D01*
X134584285Y-107630714D01*
X134679523Y-107678333D01*
X134250952Y-108249761D02*
X134346190Y-108297380D01*
X134584285Y-108297380D01*
X134679523Y-108249761D01*
X134727142Y-108154523D01*
X134727142Y-108059285D01*
X134679523Y-107964047D01*
X134584285Y-107916428D01*
X134346190Y-107916428D01*
X134250952Y-107868809D01*
X133774761Y-108297380D02*
X133774761Y-107297380D01*
X133774761Y-107678333D02*
X133679523Y-107630714D01*
X133489047Y-107630714D01*
X133393809Y-107678333D01*
X133346190Y-107725952D01*
X133298571Y-107821190D01*
X133298571Y-108106904D01*
X133346190Y-108202142D01*
X133393809Y-108249761D01*
X133489047Y-108297380D01*
X133679523Y-108297380D01*
X133774761Y-108249761D01*
X132727142Y-108297380D02*
X132822380Y-108249761D01*
X132870000Y-108154523D01*
X132870000Y-107297380D01*
X131965238Y-108249761D02*
X132060476Y-108297380D01*
X132250952Y-108297380D01*
X132346190Y-108249761D01*
X132393809Y-108154523D01*
X132393809Y-107773571D01*
X132346190Y-107678333D01*
X132250952Y-107630714D01*
X132060476Y-107630714D01*
X131965238Y-107678333D01*
X131917619Y-107773571D01*
X131917619Y-107868809D01*
X132393809Y-107964047D01*
X130774761Y-107392619D02*
X130727142Y-107345000D01*
X130631904Y-107297380D01*
X130393809Y-107297380D01*
X130298571Y-107345000D01*
X130250952Y-107392619D01*
X130203333Y-107487857D01*
X130203333Y-107583095D01*
X130250952Y-107725952D01*
X130822380Y-108297380D01*
X130203333Y-108297380D01*
X129774761Y-108202142D02*
X129727142Y-108249761D01*
X129774761Y-108297380D01*
X129822380Y-108249761D01*
X129774761Y-108202142D01*
X129774761Y-108297380D01*
X128822380Y-107297380D02*
X129298571Y-107297380D01*
X129346190Y-107773571D01*
X129298571Y-107725952D01*
X129203333Y-107678333D01*
X128965238Y-107678333D01*
X128870000Y-107725952D01*
X128822380Y-107773571D01*
X128774761Y-107868809D01*
X128774761Y-108106904D01*
X128822380Y-108202142D01*
X128870000Y-108249761D01*
X128965238Y-108297380D01*
X129203333Y-108297380D01*
X129298571Y-108249761D01*
X129346190Y-108202142D01*
X128489047Y-107297380D02*
X128155714Y-108297380D01*
X127822380Y-107297380D01*
X127441428Y-108249761D02*
X127441428Y-108297380D01*
X127489047Y-108392619D01*
X127536666Y-108440238D01*
X126250952Y-107630714D02*
X126250952Y-108630714D01*
X126250952Y-107678333D02*
X126155714Y-107630714D01*
X125965238Y-107630714D01*
X125870000Y-107678333D01*
X125822380Y-107725952D01*
X125774761Y-107821190D01*
X125774761Y-108106904D01*
X125822380Y-108202142D01*
X125870000Y-108249761D01*
X125965238Y-108297380D01*
X126155714Y-108297380D01*
X126250952Y-108249761D01*
X125203333Y-108297380D02*
X125298571Y-108249761D01*
X125346190Y-108202142D01*
X125393809Y-108106904D01*
X125393809Y-107821190D01*
X125346190Y-107725952D01*
X125298571Y-107678333D01*
X125203333Y-107630714D01*
X125060476Y-107630714D01*
X124965238Y-107678333D01*
X124917619Y-107725952D01*
X124870000Y-107821190D01*
X124870000Y-108106904D01*
X124917619Y-108202142D01*
X124965238Y-108249761D01*
X125060476Y-108297380D01*
X125203333Y-108297380D01*
X124441428Y-108297380D02*
X124441428Y-107630714D01*
X124441428Y-107821190D02*
X124393809Y-107725952D01*
X124346190Y-107678333D01*
X124250952Y-107630714D01*
X124155714Y-107630714D01*
X123965238Y-107630714D02*
X123584285Y-107630714D01*
X123822380Y-107297380D02*
X123822380Y-108154523D01*
X123774761Y-108249761D01*
X123679523Y-108297380D01*
X123584285Y-108297380D01*
X122536666Y-108011666D02*
X122060476Y-108011666D01*
X122631904Y-108297380D02*
X122298571Y-107297380D01*
X121965238Y-108297380D01*
X139679523Y-109002619D02*
X139631904Y-108955000D01*
X139536666Y-108907380D01*
X139298571Y-108907380D01*
X139203333Y-108955000D01*
X139155714Y-109002619D01*
X139108095Y-109097857D01*
X139108095Y-109193095D01*
X139155714Y-109335952D01*
X139727142Y-109907380D01*
X139108095Y-109907380D01*
X138250952Y-108907380D02*
X138441428Y-108907380D01*
X138536666Y-108955000D01*
X138584285Y-109002619D01*
X138679523Y-109145476D01*
X138727142Y-109335952D01*
X138727142Y-109716904D01*
X138679523Y-109812142D01*
X138631904Y-109859761D01*
X138536666Y-109907380D01*
X138346190Y-109907380D01*
X138250952Y-109859761D01*
X138203333Y-109812142D01*
X138155714Y-109716904D01*
X138155714Y-109478809D01*
X138203333Y-109383571D01*
X138250952Y-109335952D01*
X138346190Y-109288333D01*
X138536666Y-109288333D01*
X138631904Y-109335952D01*
X138679523Y-109383571D01*
X138727142Y-109478809D01*
X137727142Y-109812142D02*
X137679523Y-109859761D01*
X137727142Y-109907380D01*
X137774761Y-109859761D01*
X137727142Y-109812142D01*
X137727142Y-109907380D01*
X137727142Y-109288333D02*
X137679523Y-109335952D01*
X137727142Y-109383571D01*
X137774761Y-109335952D01*
X137727142Y-109288333D01*
X137727142Y-109383571D01*
X136489047Y-109383571D02*
X136155714Y-109383571D01*
X136012857Y-109907380D02*
X136489047Y-109907380D01*
X136489047Y-108907380D01*
X136012857Y-108907380D01*
X135584285Y-109240714D02*
X135584285Y-109907380D01*
X135584285Y-109335952D02*
X135536666Y-109288333D01*
X135441428Y-109240714D01*
X135298571Y-109240714D01*
X135203333Y-109288333D01*
X135155714Y-109383571D01*
X135155714Y-109907380D01*
X134250952Y-109907380D02*
X134250952Y-109383571D01*
X134298571Y-109288333D01*
X134393809Y-109240714D01*
X134584285Y-109240714D01*
X134679523Y-109288333D01*
X134250952Y-109859761D02*
X134346190Y-109907380D01*
X134584285Y-109907380D01*
X134679523Y-109859761D01*
X134727142Y-109764523D01*
X134727142Y-109669285D01*
X134679523Y-109574047D01*
X134584285Y-109526428D01*
X134346190Y-109526428D01*
X134250952Y-109478809D01*
X133774761Y-109907380D02*
X133774761Y-108907380D01*
X133774761Y-109288333D02*
X133679523Y-109240714D01*
X133489047Y-109240714D01*
X133393809Y-109288333D01*
X133346190Y-109335952D01*
X133298571Y-109431190D01*
X133298571Y-109716904D01*
X133346190Y-109812142D01*
X133393809Y-109859761D01*
X133489047Y-109907380D01*
X133679523Y-109907380D01*
X133774761Y-109859761D01*
X132727142Y-109907380D02*
X132822380Y-109859761D01*
X132870000Y-109764523D01*
X132870000Y-108907380D01*
X131965238Y-109859761D02*
X132060476Y-109907380D01*
X132250952Y-109907380D01*
X132346190Y-109859761D01*
X132393809Y-109764523D01*
X132393809Y-109383571D01*
X132346190Y-109288333D01*
X132250952Y-109240714D01*
X132060476Y-109240714D01*
X131965238Y-109288333D01*
X131917619Y-109383571D01*
X131917619Y-109478809D01*
X132393809Y-109574047D01*
X130774761Y-109002619D02*
X130727142Y-108955000D01*
X130631904Y-108907380D01*
X130393809Y-108907380D01*
X130298571Y-108955000D01*
X130250952Y-109002619D01*
X130203333Y-109097857D01*
X130203333Y-109193095D01*
X130250952Y-109335952D01*
X130822380Y-109907380D01*
X130203333Y-109907380D01*
X129774761Y-109812142D02*
X129727142Y-109859761D01*
X129774761Y-109907380D01*
X129822380Y-109859761D01*
X129774761Y-109812142D01*
X129774761Y-109907380D01*
X128822380Y-108907380D02*
X129298571Y-108907380D01*
X129346190Y-109383571D01*
X129298571Y-109335952D01*
X129203333Y-109288333D01*
X128965238Y-109288333D01*
X128870000Y-109335952D01*
X128822380Y-109383571D01*
X128774761Y-109478809D01*
X128774761Y-109716904D01*
X128822380Y-109812142D01*
X128870000Y-109859761D01*
X128965238Y-109907380D01*
X129203333Y-109907380D01*
X129298571Y-109859761D01*
X129346190Y-109812142D01*
X128489047Y-108907380D02*
X128155714Y-109907380D01*
X127822380Y-108907380D01*
X127441428Y-109859761D02*
X127441428Y-109907380D01*
X127489047Y-110002619D01*
X127536666Y-110050238D01*
X126250952Y-109240714D02*
X126250952Y-110240714D01*
X126250952Y-109288333D02*
X126155714Y-109240714D01*
X125965238Y-109240714D01*
X125870000Y-109288333D01*
X125822380Y-109335952D01*
X125774761Y-109431190D01*
X125774761Y-109716904D01*
X125822380Y-109812142D01*
X125870000Y-109859761D01*
X125965238Y-109907380D01*
X126155714Y-109907380D01*
X126250952Y-109859761D01*
X125203333Y-109907380D02*
X125298571Y-109859761D01*
X125346190Y-109812142D01*
X125393809Y-109716904D01*
X125393809Y-109431190D01*
X125346190Y-109335952D01*
X125298571Y-109288333D01*
X125203333Y-109240714D01*
X125060476Y-109240714D01*
X124965238Y-109288333D01*
X124917619Y-109335952D01*
X124870000Y-109431190D01*
X124870000Y-109716904D01*
X124917619Y-109812142D01*
X124965238Y-109859761D01*
X125060476Y-109907380D01*
X125203333Y-109907380D01*
X124441428Y-109907380D02*
X124441428Y-109240714D01*
X124441428Y-109431190D02*
X124393809Y-109335952D01*
X124346190Y-109288333D01*
X124250952Y-109240714D01*
X124155714Y-109240714D01*
X123965238Y-109240714D02*
X123584285Y-109240714D01*
X123822380Y-108907380D02*
X123822380Y-109764523D01*
X123774761Y-109859761D01*
X123679523Y-109907380D01*
X123584285Y-109907380D01*
X122155714Y-109383571D02*
X122012857Y-109431190D01*
X121965238Y-109478809D01*
X121917619Y-109574047D01*
X121917619Y-109716904D01*
X121965238Y-109812142D01*
X122012857Y-109859761D01*
X122108095Y-109907380D01*
X122489047Y-109907380D01*
X122489047Y-108907380D01*
X122155714Y-108907380D01*
X122060476Y-108955000D01*
X122012857Y-109002619D01*
X121965238Y-109097857D01*
X121965238Y-109193095D01*
X122012857Y-109288333D01*
X122060476Y-109335952D01*
X122155714Y-109383571D01*
X122489047Y-109383571D01*
X139727142Y-110517380D02*
X139108095Y-110517380D01*
X139441428Y-110898333D01*
X139298571Y-110898333D01*
X139203333Y-110945952D01*
X139155714Y-110993571D01*
X139108095Y-111088809D01*
X139108095Y-111326904D01*
X139155714Y-111422142D01*
X139203333Y-111469761D01*
X139298571Y-111517380D01*
X139584285Y-111517380D01*
X139679523Y-111469761D01*
X139727142Y-111422142D01*
X138774761Y-110517380D02*
X138155714Y-110517380D01*
X138489047Y-110898333D01*
X138346190Y-110898333D01*
X138250952Y-110945952D01*
X138203333Y-110993571D01*
X138155714Y-111088809D01*
X138155714Y-111326904D01*
X138203333Y-111422142D01*
X138250952Y-111469761D01*
X138346190Y-111517380D01*
X138631904Y-111517380D01*
X138727142Y-111469761D01*
X138774761Y-111422142D01*
X137727142Y-111422142D02*
X137679523Y-111469761D01*
X137727142Y-111517380D01*
X137774761Y-111469761D01*
X137727142Y-111422142D01*
X137727142Y-111517380D01*
X137727142Y-110898333D02*
X137679523Y-110945952D01*
X137727142Y-110993571D01*
X137774761Y-110945952D01*
X137727142Y-110898333D01*
X137727142Y-110993571D01*
X135917619Y-111517380D02*
X136250952Y-111041190D01*
X136489047Y-111517380D02*
X136489047Y-110517380D01*
X136108095Y-110517380D01*
X136012857Y-110565000D01*
X135965238Y-110612619D01*
X135917619Y-110707857D01*
X135917619Y-110850714D01*
X135965238Y-110945952D01*
X136012857Y-110993571D01*
X136108095Y-111041190D01*
X136489047Y-111041190D01*
X135155714Y-110993571D02*
X135489047Y-110993571D01*
X135489047Y-111517380D02*
X135489047Y-110517380D01*
X135012857Y-110517380D01*
X133298571Y-111517380D02*
X133631904Y-111041190D01*
X133870000Y-111517380D02*
X133870000Y-110517380D01*
X133489047Y-110517380D01*
X133393809Y-110565000D01*
X133346190Y-110612619D01*
X133298571Y-110707857D01*
X133298571Y-110850714D01*
X133346190Y-110945952D01*
X133393809Y-110993571D01*
X133489047Y-111041190D01*
X133870000Y-111041190D01*
X132489047Y-111469761D02*
X132584285Y-111517380D01*
X132774761Y-111517380D01*
X132870000Y-111469761D01*
X132917619Y-111374523D01*
X132917619Y-110993571D01*
X132870000Y-110898333D01*
X132774761Y-110850714D01*
X132584285Y-110850714D01*
X132489047Y-110898333D01*
X132441428Y-110993571D01*
X132441428Y-111088809D01*
X132917619Y-111184047D01*
X131584285Y-111469761D02*
X131679523Y-111517380D01*
X131870000Y-111517380D01*
X131965238Y-111469761D01*
X132012857Y-111422142D01*
X132060476Y-111326904D01*
X132060476Y-111041190D01*
X132012857Y-110945952D01*
X131965238Y-110898333D01*
X131870000Y-110850714D01*
X131679523Y-110850714D01*
X131584285Y-110898333D01*
X130774761Y-111469761D02*
X130870000Y-111517380D01*
X131060476Y-111517380D01*
X131155714Y-111469761D01*
X131203333Y-111374523D01*
X131203333Y-110993571D01*
X131155714Y-110898333D01*
X131060476Y-110850714D01*
X130870000Y-110850714D01*
X130774761Y-110898333D01*
X130727142Y-110993571D01*
X130727142Y-111088809D01*
X131203333Y-111184047D01*
X130298571Y-111517380D02*
X130298571Y-110850714D01*
X130298571Y-110517380D02*
X130346190Y-110565000D01*
X130298571Y-110612619D01*
X130250952Y-110565000D01*
X130298571Y-110517380D01*
X130298571Y-110612619D01*
X129917619Y-110850714D02*
X129679523Y-111517380D01*
X129441428Y-110850714D01*
X128679523Y-111469761D02*
X128774761Y-111517380D01*
X128965238Y-111517380D01*
X129060476Y-111469761D01*
X129108095Y-111374523D01*
X129108095Y-110993571D01*
X129060476Y-110898333D01*
X128965238Y-110850714D01*
X128774761Y-110850714D01*
X128679523Y-110898333D01*
X128631904Y-110993571D01*
X128631904Y-111088809D01*
X129108095Y-111184047D01*
X128203333Y-111517380D02*
X128203333Y-110850714D01*
X128203333Y-111041190D02*
X128155714Y-110945952D01*
X128108095Y-110898333D01*
X128012857Y-110850714D01*
X127917619Y-110850714D01*
D12*
X137869047Y-81565476D02*
X138285714Y-80970238D01*
X138583333Y-81565476D02*
X138583333Y-80315476D01*
X138107142Y-80315476D01*
X137988095Y-80375000D01*
X137928571Y-80434523D01*
X137869047Y-80553571D01*
X137869047Y-80732142D01*
X137928571Y-80851190D01*
X137988095Y-80910714D01*
X138107142Y-80970238D01*
X138583333Y-80970238D01*
X136678571Y-80375000D02*
X136797619Y-80315476D01*
X136976190Y-80315476D01*
X137154761Y-80375000D01*
X137273809Y-80494047D01*
X137333333Y-80613095D01*
X137392857Y-80851190D01*
X137392857Y-81029761D01*
X137333333Y-81267857D01*
X137273809Y-81386904D01*
X137154761Y-81505952D01*
X136976190Y-81565476D01*
X136857142Y-81565476D01*
X136678571Y-81505952D01*
X136619047Y-81446428D01*
X136619047Y-81029761D01*
X136857142Y-81029761D01*
X135666666Y-80910714D02*
X135488095Y-80970238D01*
X135428571Y-81029761D01*
X135369047Y-81148809D01*
X135369047Y-81327380D01*
X135428571Y-81446428D01*
X135488095Y-81505952D01*
X135607142Y-81565476D01*
X136083333Y-81565476D01*
X136083333Y-80315476D01*
X135666666Y-80315476D01*
X135547619Y-80375000D01*
X135488095Y-80434523D01*
X135428571Y-80553571D01*
X135428571Y-80672619D01*
X135488095Y-80791666D01*
X135547619Y-80851190D01*
X135666666Y-80910714D01*
X136083333Y-80910714D01*
X133940476Y-80255952D02*
X135011904Y-81863095D01*
X133642857Y-80315476D02*
X133345238Y-81565476D01*
X133107142Y-80672619D01*
X132869047Y-81565476D01*
X132571428Y-80315476D01*
X131202380Y-81505952D02*
X131023809Y-81565476D01*
X130726190Y-81565476D01*
X130607142Y-81505952D01*
X130547619Y-81446428D01*
X130488095Y-81327380D01*
X130488095Y-81208333D01*
X130547619Y-81089285D01*
X130607142Y-81029761D01*
X130726190Y-80970238D01*
X130964285Y-80910714D01*
X131083333Y-80851190D01*
X131142857Y-80791666D01*
X131202380Y-80672619D01*
X131202380Y-80553571D01*
X131142857Y-80434523D01*
X131083333Y-80375000D01*
X130964285Y-80315476D01*
X130666666Y-80315476D01*
X130488095Y-80375000D01*
X130130952Y-80732142D02*
X129654761Y-80732142D01*
X129952380Y-80315476D02*
X129952380Y-81386904D01*
X129892857Y-81505952D01*
X129773809Y-81565476D01*
X129654761Y-81565476D01*
X129238095Y-81565476D02*
X129238095Y-80732142D01*
X129238095Y-80970238D02*
X129178571Y-80851190D01*
X129119047Y-80791666D01*
X129000000Y-80732142D01*
X128880952Y-80732142D01*
X128464285Y-81565476D02*
X128464285Y-80732142D01*
X128464285Y-80315476D02*
X128523809Y-80375000D01*
X128464285Y-80434523D01*
X128404761Y-80375000D01*
X128464285Y-80315476D01*
X128464285Y-80434523D01*
X127869047Y-80732142D02*
X127869047Y-81565476D01*
X127869047Y-80851190D02*
X127809523Y-80791666D01*
X127690476Y-80732142D01*
X127511904Y-80732142D01*
X127392857Y-80791666D01*
X127333333Y-80910714D01*
X127333333Y-81565476D01*
X126202380Y-80732142D02*
X126202380Y-81744047D01*
X126261904Y-81863095D01*
X126321428Y-81922619D01*
X126440476Y-81982142D01*
X126619047Y-81982142D01*
X126738095Y-81922619D01*
X126202380Y-81505952D02*
X126321428Y-81565476D01*
X126559523Y-81565476D01*
X126678571Y-81505952D01*
X126738095Y-81446428D01*
X126797619Y-81327380D01*
X126797619Y-80970238D01*
X126738095Y-80851190D01*
X126678571Y-80791666D01*
X126559523Y-80732142D01*
X126321428Y-80732142D01*
X126202380Y-80791666D01*
X124059523Y-81565476D02*
X124654761Y-81565476D01*
X124654761Y-80315476D01*
X123642857Y-81565476D02*
X123642857Y-80732142D01*
X123642857Y-80315476D02*
X123702380Y-80375000D01*
X123642857Y-80434523D01*
X123583333Y-80375000D01*
X123642857Y-80315476D01*
X123642857Y-80434523D01*
X122511904Y-80732142D02*
X122511904Y-81744047D01*
X122571428Y-81863095D01*
X122630952Y-81922619D01*
X122750000Y-81982142D01*
X122928571Y-81982142D01*
X123047619Y-81922619D01*
X122511904Y-81505952D02*
X122630952Y-81565476D01*
X122869047Y-81565476D01*
X122988095Y-81505952D01*
X123047619Y-81446428D01*
X123107142Y-81327380D01*
X123107142Y-80970238D01*
X123047619Y-80851190D01*
X122988095Y-80791666D01*
X122869047Y-80732142D01*
X122630952Y-80732142D01*
X122511904Y-80791666D01*
X121916666Y-81565476D02*
X121916666Y-80315476D01*
X121380952Y-81565476D02*
X121380952Y-80910714D01*
X121440476Y-80791666D01*
X121559523Y-80732142D01*
X121738095Y-80732142D01*
X121857142Y-80791666D01*
X121916666Y-80851190D01*
X120964285Y-80732142D02*
X120488095Y-80732142D01*
X120785714Y-80315476D02*
X120785714Y-81386904D01*
X120726190Y-81505952D01*
X120607142Y-81565476D01*
X120488095Y-81565476D01*
X120130952Y-81505952D02*
X120011904Y-81565476D01*
X119773809Y-81565476D01*
X119654761Y-81505952D01*
X119595238Y-81386904D01*
X119595238Y-81327380D01*
X119654761Y-81208333D01*
X119773809Y-81148809D01*
X119952380Y-81148809D01*
X120071428Y-81089285D01*
X120130952Y-80970238D01*
X120130952Y-80910714D01*
X120071428Y-80791666D01*
X119952380Y-80732142D01*
X119773809Y-80732142D01*
X119654761Y-80791666D01*
X117392857Y-81446428D02*
X117452380Y-81505952D01*
X117630952Y-81565476D01*
X117750000Y-81565476D01*
X117928571Y-81505952D01*
X118047619Y-81386904D01*
X118107142Y-81267857D01*
X118166666Y-81029761D01*
X118166666Y-80851190D01*
X118107142Y-80613095D01*
X118047619Y-80494047D01*
X117928571Y-80375000D01*
X117750000Y-80315476D01*
X117630952Y-80315476D01*
X117452380Y-80375000D01*
X117392857Y-80434523D01*
X116678571Y-81565476D02*
X116797619Y-81505952D01*
X116857142Y-81446428D01*
X116916666Y-81327380D01*
X116916666Y-80970238D01*
X116857142Y-80851190D01*
X116797619Y-80791666D01*
X116678571Y-80732142D01*
X116500000Y-80732142D01*
X116380952Y-80791666D01*
X116321428Y-80851190D01*
X116261904Y-80970238D01*
X116261904Y-81327380D01*
X116321428Y-81446428D01*
X116380952Y-81505952D01*
X116500000Y-81565476D01*
X116678571Y-81565476D01*
X115726190Y-80732142D02*
X115726190Y-81565476D01*
X115726190Y-80851190D02*
X115666666Y-80791666D01*
X115547619Y-80732142D01*
X115369047Y-80732142D01*
X115250000Y-80791666D01*
X115190476Y-80910714D01*
X115190476Y-81565476D01*
X114773809Y-80732142D02*
X114297619Y-80732142D01*
X114595238Y-80315476D02*
X114595238Y-81386904D01*
X114535714Y-81505952D01*
X114416666Y-81565476D01*
X114297619Y-81565476D01*
X113880952Y-81565476D02*
X113880952Y-80732142D01*
X113880952Y-80970238D02*
X113821428Y-80851190D01*
X113761904Y-80791666D01*
X113642857Y-80732142D01*
X113523809Y-80732142D01*
X112928571Y-81565476D02*
X113047619Y-81505952D01*
X113107142Y-81446428D01*
X113166666Y-81327380D01*
X113166666Y-80970238D01*
X113107142Y-80851190D01*
X113047619Y-80791666D01*
X112928571Y-80732142D01*
X112750000Y-80732142D01*
X112630952Y-80791666D01*
X112571428Y-80851190D01*
X112511904Y-80970238D01*
X112511904Y-81327380D01*
X112571428Y-81446428D01*
X112630952Y-81505952D01*
X112750000Y-81565476D01*
X112928571Y-81565476D01*
X111797619Y-81565476D02*
X111916666Y-81505952D01*
X111976190Y-81386904D01*
X111976190Y-80315476D01*
X111142857Y-81565476D02*
X111261904Y-81505952D01*
X111321428Y-81386904D01*
X111321428Y-80315476D01*
X110190476Y-81505952D02*
X110309523Y-81565476D01*
X110547619Y-81565476D01*
X110666666Y-81505952D01*
X110726190Y-81386904D01*
X110726190Y-80910714D01*
X110666666Y-80791666D01*
X110547619Y-80732142D01*
X110309523Y-80732142D01*
X110190476Y-80791666D01*
X110130952Y-80910714D01*
X110130952Y-81029761D01*
X110726190Y-81148809D01*
X109595238Y-81565476D02*
X109595238Y-80732142D01*
X109595238Y-80970238D02*
X109535714Y-80851190D01*
X109476190Y-80791666D01*
X109357142Y-80732142D01*
X109238095Y-80732142D01*
D10*
X137095238Y-82928571D02*
X136952380Y-82976190D01*
X136904761Y-83023809D01*
X136857142Y-83119047D01*
X136857142Y-83261904D01*
X136904761Y-83357142D01*
X136952380Y-83404761D01*
X137047619Y-83452380D01*
X137428571Y-83452380D01*
X137428571Y-82452380D01*
X137095238Y-82452380D01*
X137000000Y-82500000D01*
X136952380Y-82547619D01*
X136904761Y-82642857D01*
X136904761Y-82738095D01*
X136952380Y-82833333D01*
X137000000Y-82880952D01*
X137095238Y-82928571D01*
X137428571Y-82928571D01*
X136523809Y-82785714D02*
X136285714Y-83452380D01*
X136047619Y-82785714D02*
X136285714Y-83452380D01*
X136380952Y-83690476D01*
X136428571Y-83738095D01*
X136523809Y-83785714D01*
X134285714Y-82976190D02*
X134333333Y-82928571D01*
X134428571Y-82880952D01*
X134523809Y-82880952D01*
X134619047Y-82928571D01*
X134666666Y-82976190D01*
X134714285Y-83071428D01*
X134714285Y-83166666D01*
X134666666Y-83261904D01*
X134619047Y-83309523D01*
X134523809Y-83357142D01*
X134428571Y-83357142D01*
X134333333Y-83309523D01*
X134285714Y-83261904D01*
X134285714Y-82880952D02*
X134285714Y-83261904D01*
X134238095Y-83309523D01*
X134190476Y-83309523D01*
X134095238Y-83261904D01*
X134047619Y-83166666D01*
X134047619Y-82928571D01*
X134142857Y-82785714D01*
X134285714Y-82690476D01*
X134476190Y-82642857D01*
X134666666Y-82690476D01*
X134809523Y-82785714D01*
X134904761Y-82928571D01*
X134952380Y-83119047D01*
X134904761Y-83309523D01*
X134809523Y-83452380D01*
X134666666Y-83547619D01*
X134476190Y-83595238D01*
X134285714Y-83547619D01*
X134142857Y-83452380D01*
X133619047Y-83452380D02*
X133619047Y-82452380D01*
X133523809Y-83071428D02*
X133238095Y-83452380D01*
X133238095Y-82785714D02*
X133619047Y-83166666D01*
X132809523Y-83452380D02*
X132809523Y-82452380D01*
X132809523Y-82833333D02*
X132714285Y-82785714D01*
X132523809Y-82785714D01*
X132428571Y-82833333D01*
X132380952Y-82880952D01*
X132333333Y-82976190D01*
X132333333Y-83261904D01*
X132380952Y-83357142D01*
X132428571Y-83404761D01*
X132523809Y-83452380D01*
X132714285Y-83452380D01*
X132809523Y-83404761D01*
X132000000Y-83452380D02*
X131476190Y-82785714D01*
X132000000Y-82785714D02*
X131476190Y-83452380D01*
X130952380Y-82880952D02*
X131047619Y-82833333D01*
X131095238Y-82785714D01*
X131142857Y-82690476D01*
X131142857Y-82642857D01*
X131095238Y-82547619D01*
X131047619Y-82500000D01*
X130952380Y-82452380D01*
X130761904Y-82452380D01*
X130666666Y-82500000D01*
X130619047Y-82547619D01*
X130571428Y-82642857D01*
X130571428Y-82690476D01*
X130619047Y-82785714D01*
X130666666Y-82833333D01*
X130761904Y-82880952D01*
X130952380Y-82880952D01*
X131047619Y-82928571D01*
X131095238Y-82976190D01*
X131142857Y-83071428D01*
X131142857Y-83261904D01*
X131095238Y-83357142D01*
X131047619Y-83404761D01*
X130952380Y-83452380D01*
X130761904Y-83452380D01*
X130666666Y-83404761D01*
X130619047Y-83357142D01*
X130571428Y-83261904D01*
X130571428Y-83071428D01*
X130619047Y-82976190D01*
X130666666Y-82928571D01*
X130761904Y-82880952D01*
X129619047Y-83452380D02*
X130190476Y-83452380D01*
X129904761Y-83452380D02*
X129904761Y-82452380D01*
X130000000Y-82595238D01*
X130095238Y-82690476D01*
X130190476Y-82738095D01*
X128428571Y-83071428D02*
X127666666Y-83071428D01*
X126523809Y-82785714D02*
X126285714Y-83452380D01*
X126047619Y-82785714D01*
X125142857Y-83452380D02*
X125714285Y-83452380D01*
X125428571Y-83452380D02*
X125428571Y-82452380D01*
X125523809Y-82595238D01*
X125619047Y-82690476D01*
X125714285Y-82738095D01*
X123952380Y-83071428D02*
X123190476Y-83071428D01*
X121952380Y-83452380D02*
X121952380Y-82452380D01*
X121714285Y-82452380D01*
X121571428Y-82500000D01*
X121476190Y-82595238D01*
X121428571Y-82690476D01*
X121380952Y-82880952D01*
X121380952Y-83023809D01*
X121428571Y-83214285D01*
X121476190Y-83309523D01*
X121571428Y-83404761D01*
X121714285Y-83452380D01*
X121952380Y-83452380D01*
X120571428Y-83404761D02*
X120666666Y-83452380D01*
X120857142Y-83452380D01*
X120952380Y-83404761D01*
X121000000Y-83309523D01*
X121000000Y-82928571D01*
X120952380Y-82833333D01*
X120857142Y-82785714D01*
X120666666Y-82785714D01*
X120571428Y-82833333D01*
X120523809Y-82928571D01*
X120523809Y-83023809D01*
X121000000Y-83119047D01*
X119666666Y-83404761D02*
X119761904Y-83452380D01*
X119952380Y-83452380D01*
X120047619Y-83404761D01*
X120095238Y-83357142D01*
X120142857Y-83261904D01*
X120142857Y-82976190D01*
X120095238Y-82880952D01*
X120047619Y-82833333D01*
X119952380Y-82785714D01*
X119761904Y-82785714D01*
X119666666Y-82833333D01*
X118857142Y-83404761D02*
X118952380Y-83452380D01*
X119142857Y-83452380D01*
X119238095Y-83404761D01*
X119285714Y-83309523D01*
X119285714Y-82928571D01*
X119238095Y-82833333D01*
X119142857Y-82785714D01*
X118952380Y-82785714D01*
X118857142Y-82833333D01*
X118809523Y-82928571D01*
X118809523Y-83023809D01*
X119285714Y-83119047D01*
X118380952Y-83452380D02*
X118380952Y-82785714D01*
X118380952Y-82880952D02*
X118333333Y-82833333D01*
X118238095Y-82785714D01*
X118095238Y-82785714D01*
X118000000Y-82833333D01*
X117952380Y-82928571D01*
X117952380Y-83452380D01*
X117952380Y-82928571D02*
X117904761Y-82833333D01*
X117809523Y-82785714D01*
X117666666Y-82785714D01*
X117571428Y-82833333D01*
X117523809Y-82928571D01*
X117523809Y-83452380D01*
X117047619Y-83452380D02*
X117047619Y-82452380D01*
X117047619Y-82833333D02*
X116952380Y-82785714D01*
X116761904Y-82785714D01*
X116666666Y-82833333D01*
X116619047Y-82880952D01*
X116571428Y-82976190D01*
X116571428Y-83261904D01*
X116619047Y-83357142D01*
X116666666Y-83404761D01*
X116761904Y-83452380D01*
X116952380Y-83452380D01*
X117047619Y-83404761D01*
X115761904Y-83404761D02*
X115857142Y-83452380D01*
X116047619Y-83452380D01*
X116142857Y-83404761D01*
X116190476Y-83309523D01*
X116190476Y-82928571D01*
X116142857Y-82833333D01*
X116047619Y-82785714D01*
X115857142Y-82785714D01*
X115761904Y-82833333D01*
X115714285Y-82928571D01*
X115714285Y-83023809D01*
X116190476Y-83119047D01*
X115285714Y-83452380D02*
X115285714Y-82785714D01*
X115285714Y-82976190D02*
X115238095Y-82880952D01*
X115190476Y-82833333D01*
X115095238Y-82785714D01*
X115000000Y-82785714D01*
X113952380Y-82547619D02*
X113904761Y-82500000D01*
X113809523Y-82452380D01*
X113571428Y-82452380D01*
X113476190Y-82500000D01*
X113428571Y-82547619D01*
X113380952Y-82642857D01*
X113380952Y-82738095D01*
X113428571Y-82880952D01*
X114000000Y-83452380D01*
X113380952Y-83452380D01*
X112761904Y-82452380D02*
X112666666Y-82452380D01*
X112571428Y-82500000D01*
X112523809Y-82547619D01*
X112476190Y-82642857D01*
X112428571Y-82833333D01*
X112428571Y-83071428D01*
X112476190Y-83261904D01*
X112523809Y-83357142D01*
X112571428Y-83404761D01*
X112666666Y-83452380D01*
X112761904Y-83452380D01*
X112857142Y-83404761D01*
X112904761Y-83357142D01*
X112952380Y-83261904D01*
X113000000Y-83071428D01*
X113000000Y-82833333D01*
X112952380Y-82642857D01*
X112904761Y-82547619D01*
X112857142Y-82500000D01*
X112761904Y-82452380D01*
X112047619Y-82547619D02*
X112000000Y-82500000D01*
X111904761Y-82452380D01*
X111666666Y-82452380D01*
X111571428Y-82500000D01*
X111523809Y-82547619D01*
X111476190Y-82642857D01*
X111476190Y-82738095D01*
X111523809Y-82880952D01*
X112095238Y-83452380D01*
X111476190Y-83452380D01*
X111095238Y-82547619D02*
X111047619Y-82500000D01*
X110952380Y-82452380D01*
X110714285Y-82452380D01*
X110619047Y-82500000D01*
X110571428Y-82547619D01*
X110523809Y-82642857D01*
X110523809Y-82738095D01*
X110571428Y-82880952D01*
X111142857Y-83452380D01*
X110523809Y-83452380D01*
X139108095Y-87500000D02*
X139203333Y-87452380D01*
X139346190Y-87452380D01*
X139489047Y-87500000D01*
X139584285Y-87595238D01*
X139631904Y-87690476D01*
X139679523Y-87880952D01*
X139679523Y-88023809D01*
X139631904Y-88214285D01*
X139584285Y-88309523D01*
X139489047Y-88404761D01*
X139346190Y-88452380D01*
X139250952Y-88452380D01*
X139108095Y-88404761D01*
X139060476Y-88357142D01*
X139060476Y-88023809D01*
X139250952Y-88023809D01*
X138631904Y-88452380D02*
X138631904Y-87452380D01*
X138250952Y-87452380D01*
X138155714Y-87500000D01*
X138108095Y-87547619D01*
X138060476Y-87642857D01*
X138060476Y-87785714D01*
X138108095Y-87880952D01*
X138155714Y-87928571D01*
X138250952Y-87976190D01*
X138631904Y-87976190D01*
X137631904Y-88452380D02*
X137631904Y-87452380D01*
X136965238Y-87452380D02*
X136774761Y-87452380D01*
X136679523Y-87500000D01*
X136584285Y-87595238D01*
X136536666Y-87785714D01*
X136536666Y-88119047D01*
X136584285Y-88309523D01*
X136679523Y-88404761D01*
X136774761Y-88452380D01*
X136965238Y-88452380D01*
X137060476Y-88404761D01*
X137155714Y-88309523D01*
X137203333Y-88119047D01*
X137203333Y-87785714D01*
X137155714Y-87595238D01*
X137060476Y-87500000D01*
X136965238Y-87452380D01*
X135393809Y-88166666D02*
X134917619Y-88166666D01*
X135489047Y-88452380D02*
X135155714Y-87452380D01*
X134822380Y-88452380D01*
X134536666Y-88404761D02*
X134441428Y-88452380D01*
X134250952Y-88452380D01*
X134155714Y-88404761D01*
X134108095Y-88309523D01*
X134108095Y-88261904D01*
X134155714Y-88166666D01*
X134250952Y-88119047D01*
X134393809Y-88119047D01*
X134489047Y-88071428D01*
X134536666Y-87976190D01*
X134536666Y-87928571D01*
X134489047Y-87833333D01*
X134393809Y-87785714D01*
X134250952Y-87785714D01*
X134155714Y-87833333D01*
X133727142Y-88404761D02*
X133631904Y-88452380D01*
X133441428Y-88452380D01*
X133346190Y-88404761D01*
X133298571Y-88309523D01*
X133298571Y-88261904D01*
X133346190Y-88166666D01*
X133441428Y-88119047D01*
X133584285Y-88119047D01*
X133679523Y-88071428D01*
X133727142Y-87976190D01*
X133727142Y-87928571D01*
X133679523Y-87833333D01*
X133584285Y-87785714D01*
X133441428Y-87785714D01*
X133346190Y-87833333D01*
X132870000Y-88452380D02*
X132870000Y-87785714D01*
X132870000Y-87452380D02*
X132917619Y-87500000D01*
X132870000Y-87547619D01*
X132822380Y-87500000D01*
X132870000Y-87452380D01*
X132870000Y-87547619D01*
X131965238Y-87785714D02*
X131965238Y-88595238D01*
X132012857Y-88690476D01*
X132060476Y-88738095D01*
X132155714Y-88785714D01*
X132298571Y-88785714D01*
X132393809Y-88738095D01*
X131965238Y-88404761D02*
X132060476Y-88452380D01*
X132250952Y-88452380D01*
X132346190Y-88404761D01*
X132393809Y-88357142D01*
X132441428Y-88261904D01*
X132441428Y-87976190D01*
X132393809Y-87880952D01*
X132346190Y-87833333D01*
X132250952Y-87785714D01*
X132060476Y-87785714D01*
X131965238Y-87833333D01*
X131489047Y-87785714D02*
X131489047Y-88452380D01*
X131489047Y-87880952D02*
X131441428Y-87833333D01*
X131346190Y-87785714D01*
X131203333Y-87785714D01*
X131108095Y-87833333D01*
X131060476Y-87928571D01*
X131060476Y-88452380D01*
X130584285Y-88452380D02*
X130584285Y-87785714D01*
X130584285Y-87880952D02*
X130536666Y-87833333D01*
X130441428Y-87785714D01*
X130298571Y-87785714D01*
X130203333Y-87833333D01*
X130155714Y-87928571D01*
X130155714Y-88452380D01*
X130155714Y-87928571D02*
X130108095Y-87833333D01*
X130012857Y-87785714D01*
X129870000Y-87785714D01*
X129774761Y-87833333D01*
X129727142Y-87928571D01*
X129727142Y-88452380D01*
X128870000Y-88404761D02*
X128965238Y-88452380D01*
X129155714Y-88452380D01*
X129250952Y-88404761D01*
X129298571Y-88309523D01*
X129298571Y-87928571D01*
X129250952Y-87833333D01*
X129155714Y-87785714D01*
X128965238Y-87785714D01*
X128870000Y-87833333D01*
X128822380Y-87928571D01*
X128822380Y-88023809D01*
X129298571Y-88119047D01*
X128393809Y-87785714D02*
X128393809Y-88452380D01*
X128393809Y-87880952D02*
X128346190Y-87833333D01*
X128250952Y-87785714D01*
X128108095Y-87785714D01*
X128012857Y-87833333D01*
X127965238Y-87928571D01*
X127965238Y-88452380D01*
X127631904Y-87785714D02*
X127250952Y-87785714D01*
X127489047Y-87452380D02*
X127489047Y-88309523D01*
X127441428Y-88404761D01*
X127346190Y-88452380D01*
X127250952Y-88452380D01*
X126965238Y-88404761D02*
X126870000Y-88452380D01*
X126679523Y-88452380D01*
X126584285Y-88404761D01*
X126536666Y-88309523D01*
X126536666Y-88261904D01*
X126584285Y-88166666D01*
X126679523Y-88119047D01*
X126822380Y-88119047D01*
X126917619Y-88071428D01*
X126965238Y-87976190D01*
X126965238Y-87928571D01*
X126917619Y-87833333D01*
X126822380Y-87785714D01*
X126679523Y-87785714D01*
X126584285Y-87833333D01*
%TO.C,JP1*%
X114806966Y-101452380D02*
X114806966Y-102166666D01*
X114854585Y-102309523D01*
X114949823Y-102404761D01*
X115092680Y-102452380D01*
X115187918Y-102452380D01*
X114330775Y-102452380D02*
X114330775Y-101452380D01*
X113949823Y-101452380D01*
X113854585Y-101500000D01*
X113806966Y-101547619D01*
X113759347Y-101642857D01*
X113759347Y-101785714D01*
X113806966Y-101880952D01*
X113854585Y-101928571D01*
X113949823Y-101976190D01*
X114330775Y-101976190D01*
X112806966Y-102452380D02*
X113378394Y-102452380D01*
X113092680Y-102452380D02*
X113092680Y-101452380D01*
X113187918Y-101595238D01*
X113283156Y-101690476D01*
X113378394Y-101738095D01*
D13*
X116285714Y-105461904D02*
X116285714Y-106033333D01*
X116323809Y-106147619D01*
X116400000Y-106223809D01*
X116514285Y-106261904D01*
X116590476Y-106261904D01*
X115980952Y-105461904D02*
X115485714Y-105461904D01*
X115752380Y-105766666D01*
X115638095Y-105766666D01*
X115561904Y-105804761D01*
X115523809Y-105842857D01*
X115485714Y-105919047D01*
X115485714Y-106109523D01*
X115523809Y-106185714D01*
X115561904Y-106223809D01*
X115638095Y-106261904D01*
X115866666Y-106261904D01*
X115942857Y-106223809D01*
X115980952Y-106185714D01*
X115333333Y-106338095D02*
X114723809Y-106338095D01*
X114647619Y-105461904D02*
X114380952Y-106261904D01*
X114114285Y-105461904D01*
X114038095Y-106338095D02*
X113428571Y-106338095D01*
X113276190Y-106223809D02*
X113161904Y-106261904D01*
X112971428Y-106261904D01*
X112895238Y-106223809D01*
X112857142Y-106185714D01*
X112819047Y-106109523D01*
X112819047Y-106033333D01*
X112857142Y-105957142D01*
X112895238Y-105919047D01*
X112971428Y-105880952D01*
X113123809Y-105842857D01*
X113200000Y-105804761D01*
X113238095Y-105766666D01*
X113276190Y-105690476D01*
X113276190Y-105614285D01*
X113238095Y-105538095D01*
X113200000Y-105500000D01*
X113123809Y-105461904D01*
X112933333Y-105461904D01*
X112819047Y-105500000D01*
X112476190Y-105842857D02*
X112209523Y-105842857D01*
X112095238Y-106261904D02*
X112476190Y-106261904D01*
X112476190Y-105461904D01*
X112095238Y-105461904D01*
X111371428Y-106261904D02*
X111752380Y-106261904D01*
X111752380Y-105461904D01*
X111564109Y-103345056D02*
X111068871Y-103345056D01*
X111335537Y-103649818D01*
X111221252Y-103649818D01*
X111145061Y-103687913D01*
X111106966Y-103726009D01*
X111068871Y-103802199D01*
X111068871Y-103992675D01*
X111106966Y-104068866D01*
X111145061Y-104106961D01*
X111221252Y-104145056D01*
X111449823Y-104145056D01*
X111526013Y-104106961D01*
X111564109Y-104068866D01*
X110840299Y-103345056D02*
X110573633Y-104145056D01*
X110306966Y-103345056D01*
X110116490Y-103345056D02*
X109621252Y-103345056D01*
X109887918Y-103649818D01*
X109773633Y-103649818D01*
X109697442Y-103687913D01*
X109659347Y-103726009D01*
X109621252Y-103802199D01*
X109621252Y-103992675D01*
X109659347Y-104068866D01*
X109697442Y-104106961D01*
X109773633Y-104145056D01*
X110002204Y-104145056D01*
X110078394Y-104106961D01*
X110116490Y-104068866D01*
X117123333Y-103345056D02*
X117504286Y-103345056D01*
X117542381Y-103726009D01*
X117504286Y-103687913D01*
X117428095Y-103649818D01*
X117237619Y-103649818D01*
X117161429Y-103687913D01*
X117123333Y-103726009D01*
X117085238Y-103802199D01*
X117085238Y-103992675D01*
X117123333Y-104068866D01*
X117161429Y-104106961D01*
X117237619Y-104145056D01*
X117428095Y-104145056D01*
X117504286Y-104106961D01*
X117542381Y-104068866D01*
X116856667Y-103345056D02*
X116590000Y-104145056D01*
X116323333Y-103345056D01*
D14*
X115473633Y-105283152D02*
X114873633Y-105283152D01*
X112573633Y-104783152D02*
X115373633Y-104783152D01*
X115373633Y-102783152D02*
X112573633Y-102783152D01*
X116023633Y-104083152D02*
X116023633Y-103483152D01*
X115173633Y-104983152D02*
X114873633Y-105283152D01*
X115173633Y-104983152D02*
X115473633Y-105283152D01*
X111923633Y-103483152D02*
X111923633Y-104083152D01*
X115323633Y-104783152D02*
G75*
G03*
X116023633Y-104083152I1J699999D01*
G01*
X111923633Y-104083152D02*
G75*
G03*
X112623633Y-104783152I700000J0D01*
G01*
X112623633Y-102783152D02*
G75*
G03*
X111923633Y-103483152I0J-700000D01*
G01*
X116023633Y-103483152D02*
G75*
G03*
X115323633Y-102783152I-699999J1D01*
G01*
%TD*%
M02*
