%TF.GenerationSoftware,KiCad,Pcbnew,(6.0.11-0)*%
%TF.CreationDate,2023-05-30T14:23:44-05:00*%
%TF.ProjectId,HoneywellStringLightsController,486f6e65-7977-4656-9c6c-537472696e67,rev?*%
%TF.SameCoordinates,Original*%
%TF.FileFunction,Copper,L2,Bot*%
%TF.FilePolarity,Positive*%
%FSLAX46Y46*%
G04 Gerber Fmt 4.6, Leading zero omitted, Abs format (unit mm)*
G04 Created by KiCad (PCBNEW (6.0.11-0)) date 2023-05-30 14:23:44*
%MOMM*%
%LPD*%
G01*
G04 APERTURE LIST*
G04 Aperture macros list*
%AMFreePoly0*
4,1,22,0.550000,-0.750000,0.000000,-0.750000,0.000000,-0.745033,-0.079941,-0.743568,-0.215256,-0.701293,-0.333266,-0.622738,-0.424486,-0.514219,-0.481581,-0.384460,-0.499164,-0.250000,-0.500000,-0.250000,-0.500000,0.250000,-0.499164,0.250000,-0.499963,0.256109,-0.478152,0.396186,-0.417904,0.524511,-0.324060,0.630769,-0.204165,0.706417,-0.067858,0.745374,0.000000,0.744959,0.000000,0.750000,
0.550000,0.750000,0.550000,-0.750000,0.550000,-0.750000,$1*%
%AMFreePoly1*
4,1,20,0.000000,0.744959,0.073905,0.744508,0.209726,0.703889,0.328688,0.626782,0.421226,0.519385,0.479903,0.390333,0.500000,0.250000,0.500000,-0.250000,0.499851,-0.262216,0.476331,-0.402017,0.414519,-0.529596,0.319384,-0.634700,0.198574,-0.708877,0.061801,-0.746166,0.000000,-0.745033,0.000000,-0.750000,-0.550000,-0.750000,-0.550000,0.750000,0.000000,0.750000,0.000000,0.744959,
0.000000,0.744959,$1*%
G04 Aperture macros list end*
%TA.AperFunction,ComponentPad*%
%ADD10C,0.475000*%
%TD*%
%TA.AperFunction,ComponentPad*%
%ADD11C,0.800000*%
%TD*%
%TA.AperFunction,ComponentPad*%
%ADD12C,6.400000*%
%TD*%
%TA.AperFunction,ComponentPad*%
%ADD13R,1.700000X1.700000*%
%TD*%
%TA.AperFunction,ComponentPad*%
%ADD14O,1.700000X1.700000*%
%TD*%
%TA.AperFunction,ComponentPad*%
%ADD15R,2.400000X2.400000*%
%TD*%
%TA.AperFunction,ComponentPad*%
%ADD16C,2.400000*%
%TD*%
%TA.AperFunction,SMDPad,CuDef*%
%ADD17FreePoly0,180.000000*%
%TD*%
%TA.AperFunction,SMDPad,CuDef*%
%ADD18R,1.000000X1.500000*%
%TD*%
%TA.AperFunction,SMDPad,CuDef*%
%ADD19FreePoly1,180.000000*%
%TD*%
%TA.AperFunction,ViaPad*%
%ADD20C,1.200000*%
%TD*%
%TA.AperFunction,ViaPad*%
%ADD21C,0.800000*%
%TD*%
%TA.AperFunction,ViaPad*%
%ADD22C,0.900000*%
%TD*%
%TA.AperFunction,Conductor*%
%ADD23C,1.000000*%
%TD*%
%TA.AperFunction,Conductor*%
%ADD24C,0.250000*%
%TD*%
G04 APERTURE END LIST*
D10*
%TO.P,U1,39,GND*%
%TO.N,GND*%
X106810000Y-91042500D03*
X109860000Y-91042500D03*
X109097500Y-91805000D03*
X106810000Y-89517500D03*
X109097500Y-88755000D03*
X109860000Y-89517500D03*
X107572500Y-91805000D03*
X108335000Y-89517500D03*
X108335000Y-91042500D03*
X107572500Y-88755000D03*
X109097500Y-90280000D03*
X107572500Y-90280000D03*
%TD*%
D11*
%TO.P,H2,1,1*%
%TO.N,GND*%
X141302944Y-76697056D03*
X141302944Y-73302944D03*
X140600000Y-75000000D03*
X145400000Y-75000000D03*
X144697056Y-76697056D03*
D12*
X143000000Y-75000000D03*
D11*
X143000000Y-72600000D03*
X143000000Y-77400000D03*
X144697056Y-73302944D03*
%TD*%
%TO.P,H3,1,1*%
%TO.N,GND*%
X103302944Y-123697056D03*
X102600000Y-122000000D03*
X105000000Y-119600000D03*
X107400000Y-122000000D03*
X103302944Y-120302944D03*
D12*
X105000000Y-122000000D03*
D11*
X106697056Y-123697056D03*
X106697056Y-120302944D03*
X105000000Y-124400000D03*
%TD*%
D13*
%TO.P,J3,1,Pin_1*%
%TO.N,GND*%
X111500000Y-73500000D03*
D14*
%TO.P,J3,2,Pin_2*%
%TO.N,/~{RTS}*%
X114040000Y-73500000D03*
%TO.P,J3,3,Pin_3*%
%TO.N,Net-(J3-Pad3)*%
X116580000Y-73500000D03*
%TO.P,J3,4,Pin_4*%
%TO.N,/GPIO3*%
X119120000Y-73500000D03*
%TO.P,J3,5,Pin_5*%
%TO.N,/GPIO1*%
X121660000Y-73500000D03*
%TO.P,J3,6,Pin_6*%
%TO.N,/~{DTR}*%
X124200000Y-73500000D03*
%TO.P,J3,7,Pin_7*%
%TO.N,/GPIO5*%
X126740000Y-73500000D03*
%TO.P,J3,8,Pin_8*%
%TO.N,/GPIO4*%
X129280000Y-73500000D03*
%TO.P,J3,9,Pin_9*%
%TO.N,/GPIO2*%
X131820000Y-73500000D03*
%TO.P,J3,10,Pin_10*%
%TO.N,/GPIO0*%
X134360000Y-73500000D03*
%TD*%
D15*
%TO.P,J5,1,Pin_1*%
%TO.N,/LAMPS_B_POS*%
X143100000Y-104700000D03*
D16*
%TO.P,J5,2,Pin_2*%
%TO.N,/LAMPS_B_NEG*%
X143100000Y-101200000D03*
%TD*%
D13*
%TO.P,J2,1,Pin_1*%
%TO.N,GND*%
X137900000Y-125250000D03*
D14*
%TO.P,J2,2,Pin_2*%
%TO.N,/RF_RX*%
X135360000Y-125250000D03*
%TO.P,J2,3,Pin_3*%
X132820000Y-125250000D03*
%TO.P,J2,4,Pin_4*%
%TO.N,Net-(C5-Pad1)*%
X130280000Y-125250000D03*
%TD*%
D15*
%TO.P,J1,1,Pin_1*%
%TO.N,GND*%
X105000000Y-112500000D03*
D16*
%TO.P,J1,2,Pin_2*%
%TO.N,+5V*%
X105000000Y-116000000D03*
%TD*%
D15*
%TO.P,J4,1,Pin_1*%
%TO.N,/LAMPS_A_POS*%
X143100000Y-84200000D03*
D16*
%TO.P,J4,2,Pin_2*%
%TO.N,/LAMPS_A_NEG*%
X143100000Y-80700000D03*
%TD*%
D11*
%TO.P,H1,1,1*%
%TO.N,GND*%
X106697056Y-76697056D03*
X103302944Y-76697056D03*
D12*
X105000000Y-75000000D03*
D11*
X103302944Y-73302944D03*
X106697056Y-73302944D03*
X107400000Y-75000000D03*
X105000000Y-72600000D03*
X105000000Y-77400000D03*
X102600000Y-75000000D03*
%TD*%
%TO.P,H4,1,1*%
%TO.N,GND*%
X143000000Y-119600000D03*
X144697056Y-123697056D03*
X144697056Y-120302944D03*
X140600000Y-122000000D03*
X143000000Y-124400000D03*
D12*
X143000000Y-122000000D03*
D11*
X141302944Y-120302944D03*
X141302944Y-123697056D03*
X145400000Y-122000000D03*
%TD*%
D17*
%TO.P,JP1,1,A*%
%TO.N,+5V*%
X115273633Y-103783152D03*
D18*
%TO.P,JP1,2,C*%
%TO.N,Net-(J3-Pad3)*%
X113973633Y-103783152D03*
D19*
%TO.P,JP1,3,B*%
%TO.N,+3V3*%
X112673633Y-103783152D03*
%TD*%
D20*
%TO.N,+5V*%
X115273633Y-107750000D03*
D21*
%TO.N,GND*%
X129600000Y-105200000D03*
X136600000Y-113900000D03*
X113700000Y-113500000D03*
X130100000Y-106000000D03*
X117900000Y-105100000D03*
X134600000Y-108500000D03*
X123800000Y-123600000D03*
X129600000Y-84700000D03*
X132600000Y-84700000D03*
X131600000Y-84700000D03*
X119900000Y-103100000D03*
X130600000Y-105200000D03*
X134900000Y-115500000D03*
X110500000Y-106900000D03*
X130600000Y-100200000D03*
X124500000Y-102300000D03*
X127600000Y-95100000D03*
X120200000Y-84600000D03*
X123800000Y-118750000D03*
X133700000Y-100200000D03*
X121800000Y-105000000D03*
X130600000Y-84700000D03*
X120200000Y-92100000D03*
X108000000Y-99800000D03*
X132100000Y-78700000D03*
X130600000Y-106800000D03*
X134600000Y-88000000D03*
X136600000Y-93400000D03*
X137600000Y-93400000D03*
X130100000Y-85500000D03*
X120200000Y-76600000D03*
X130600000Y-86300000D03*
X118793904Y-98200000D03*
X137600000Y-113900000D03*
X133700000Y-79700000D03*
X130600000Y-79700000D03*
X131600000Y-105200000D03*
X132100000Y-99200000D03*
X134600000Y-81600000D03*
X126200000Y-87200000D03*
X132600000Y-105200000D03*
X134600000Y-102100000D03*
X123000000Y-108900000D03*
X123000000Y-112100000D03*
X120205611Y-95899999D03*
X138600000Y-93400000D03*
X134900000Y-95000000D03*
X142300000Y-93700000D03*
X138600000Y-113900000D03*
X142300000Y-114200000D03*
X124300000Y-110500000D03*
D22*
%TO.N,+3V3*%
X112700000Y-103800000D03*
D21*
X114100000Y-118687500D03*
%TO.N,/ESP_EN*%
X122400000Y-117950000D03*
X118000000Y-102100000D03*
%TO.N,/GPIO5*%
X112600000Y-81900000D03*
X111900000Y-118687500D03*
%TO.N,/GPIO2*%
X125400000Y-83800000D03*
%TO.N,/GPIO0*%
X121100000Y-122800000D03*
X115300000Y-101187500D03*
X118200000Y-80500000D03*
%TO.N,/EN_2V5_A*%
X143800000Y-94837500D03*
X126100000Y-96000000D03*
%TO.N,/EN_2V5_B*%
X125400000Y-96800000D03*
X143800000Y-115337500D03*
%TO.N,/G_N1_B*%
X117200000Y-85400000D03*
X127087500Y-105600000D03*
%TO.N,/G_P1_B*%
X116500000Y-86200000D03*
X127087500Y-108100000D03*
%TO.N,/G_N2_B*%
X117200000Y-83800000D03*
X127087500Y-100600000D03*
%TO.N,/G_P2_B*%
X116500000Y-84600000D03*
X127087500Y-103100000D03*
%TO.N,/RF_RX*%
X115750000Y-95950000D03*
%TD*%
D23*
%TO.N,+5V*%
X115273633Y-103783152D02*
X115273633Y-107750000D01*
D24*
%TO.N,+3V3*%
X112673633Y-103783152D02*
X112673633Y-117261133D01*
X112673633Y-117261133D02*
X114100000Y-118687500D01*
%TO.N,/ESP_EN*%
X118000000Y-102500000D02*
X122100000Y-106600000D01*
X118000000Y-102100000D02*
X118000000Y-102500000D01*
X122100000Y-106600000D02*
X122100000Y-117650000D01*
X122100000Y-117650000D02*
X122400000Y-117950000D01*
%TO.N,/GPIO5*%
X113000000Y-82300000D02*
X113000000Y-102000000D01*
X111800000Y-104400000D02*
X112200000Y-104800000D01*
X112200000Y-104800000D02*
X112200000Y-118387500D01*
X113000000Y-102000000D02*
X111800000Y-103200000D01*
X112200000Y-118387500D02*
X111900000Y-118687500D01*
X111800000Y-103200000D02*
X111800000Y-104400000D01*
X112600000Y-81900000D02*
X113000000Y-82300000D01*
%TO.N,/GPIO2*%
X125400000Y-79920000D02*
X131820000Y-73500000D01*
X125400000Y-83800000D02*
X125400000Y-79920000D01*
%TO.N,/GPIO0*%
X115000000Y-83700000D02*
X115000000Y-100887500D01*
X118200000Y-80500000D02*
X115000000Y-83700000D01*
X121100000Y-106987500D02*
X121100000Y-122800000D01*
X115300000Y-101187500D02*
X121100000Y-106987500D01*
X115000000Y-100887500D02*
X115300000Y-101187500D01*
%TO.N,/EN_2V5_A*%
X126100000Y-96000000D02*
X142637500Y-96000000D01*
X142637500Y-96000000D02*
X143800000Y-94837500D01*
%TO.N,/EN_2V5_B*%
X143800000Y-109200000D02*
X143800000Y-115337500D01*
X131400000Y-96800000D02*
X143800000Y-109200000D01*
X125400000Y-96800000D02*
X131400000Y-96800000D01*
%TO.N,/G_N1_B*%
X122800000Y-98400000D02*
X126300000Y-101900000D01*
X117200000Y-85400000D02*
X118000000Y-85400000D01*
X127087500Y-104187500D02*
X127087500Y-105600000D01*
X118000000Y-85400000D02*
X122800000Y-90200000D01*
X126300000Y-103400000D02*
X127087500Y-104187500D01*
X122800000Y-90200000D02*
X122800000Y-98400000D01*
X126300000Y-101900000D02*
X126300000Y-103400000D01*
%TO.N,/G_P1_B*%
X118100000Y-86200000D02*
X116500000Y-86200000D01*
X127087500Y-106687500D02*
X126300000Y-105900000D01*
X122300000Y-98900000D02*
X122300000Y-90400000D01*
X125600000Y-103600000D02*
X125600000Y-102200000D01*
X126300000Y-105900000D02*
X126300000Y-104300000D01*
X127087500Y-108100000D02*
X127087500Y-106687500D01*
X122300000Y-90400000D02*
X118100000Y-86200000D01*
X126300000Y-104300000D02*
X125600000Y-103600000D01*
X125600000Y-102200000D02*
X122300000Y-98900000D01*
%TO.N,/G_N2_B*%
X123800000Y-97312500D02*
X123800000Y-89800000D01*
X117800000Y-83800000D02*
X117200000Y-83800000D01*
X123800000Y-89800000D02*
X117800000Y-83800000D01*
X127087500Y-100600000D02*
X123800000Y-97312500D01*
%TO.N,/G_P2_B*%
X116500000Y-84600000D02*
X117900000Y-84600000D01*
X117900000Y-84600000D02*
X123300000Y-90000000D01*
X123300000Y-97900000D02*
X127087500Y-101687500D01*
X127087500Y-101687500D02*
X127087500Y-103100000D01*
X123300000Y-90000000D02*
X123300000Y-97900000D01*
%TO.N,/RF_RX*%
X121600000Y-118200000D02*
X127400000Y-124000000D01*
X131570000Y-124000000D02*
X132820000Y-125250000D01*
X116100000Y-100900000D02*
X116100000Y-101300000D01*
X121600000Y-106800000D02*
X121600000Y-118200000D01*
X115750000Y-100550000D02*
X116100000Y-100900000D01*
X115750000Y-95950000D02*
X115750000Y-100550000D01*
X127400000Y-124000000D02*
X131570000Y-124000000D01*
X116100000Y-101300000D02*
X121600000Y-106800000D01*
X135360000Y-125250000D02*
X132820000Y-125250000D01*
D23*
%TO.N,Net-(J3-Pad3)*%
X113973633Y-103783152D02*
X113973633Y-76106367D01*
X113973633Y-76106367D02*
X116580000Y-73500000D01*
%TD*%
%TA.AperFunction,Conductor*%
%TO.N,GND*%
G36*
X142987103Y-70256921D02*
G01*
X143000000Y-70259486D01*
X143012170Y-70257065D01*
X143022599Y-70257065D01*
X143035735Y-70256060D01*
X143356412Y-70270061D01*
X143408103Y-70272318D01*
X143419051Y-70273276D01*
X143818604Y-70325878D01*
X143829413Y-70327785D01*
X144222854Y-70415008D01*
X144233471Y-70417853D01*
X144617813Y-70539036D01*
X144628128Y-70542789D01*
X145000468Y-70697017D01*
X145010412Y-70701655D01*
X145295219Y-70849916D01*
X145367867Y-70887734D01*
X145377387Y-70893230D01*
X145717262Y-71109755D01*
X145726266Y-71116059D01*
X146045993Y-71361393D01*
X146054397Y-71368445D01*
X146130501Y-71438182D01*
X146351519Y-71640709D01*
X146359291Y-71648481D01*
X146470515Y-71769860D01*
X146631555Y-71945603D01*
X146638607Y-71954007D01*
X146768743Y-72123604D01*
X146883941Y-72273734D01*
X146890245Y-72282738D01*
X147003163Y-72459983D01*
X147096455Y-72606421D01*
X147106770Y-72622613D01*
X147112265Y-72632132D01*
X147259935Y-72915801D01*
X147298341Y-72989579D01*
X147302983Y-72999532D01*
X147428937Y-73303613D01*
X147457208Y-73371865D01*
X147460964Y-73382187D01*
X147522653Y-73577838D01*
X147582147Y-73766528D01*
X147584992Y-73777145D01*
X147662836Y-74128276D01*
X147672214Y-74170579D01*
X147674122Y-74181396D01*
X147700412Y-74381088D01*
X147726724Y-74580948D01*
X147727682Y-74591898D01*
X147743940Y-74964265D01*
X147742935Y-74977401D01*
X147742935Y-74987830D01*
X147740514Y-75000000D01*
X147742935Y-75012170D01*
X147743079Y-75012894D01*
X147745500Y-75037476D01*
X147745500Y-121962524D01*
X147743079Y-121987103D01*
X147740514Y-122000000D01*
X147742935Y-122012170D01*
X147742935Y-122022599D01*
X147743940Y-122035735D01*
X147727682Y-122408102D01*
X147726724Y-122419051D01*
X147674216Y-122817891D01*
X147674123Y-122818596D01*
X147672215Y-122829413D01*
X147608321Y-123117624D01*
X147584992Y-123222854D01*
X147582147Y-123233471D01*
X147471754Y-123583595D01*
X147460967Y-123617806D01*
X147457211Y-123628128D01*
X147402464Y-123760300D01*
X147302987Y-124000459D01*
X147298345Y-124010412D01*
X147120207Y-124352612D01*
X147112266Y-124367867D01*
X147106771Y-124377385D01*
X147092681Y-124399502D01*
X146890245Y-124717262D01*
X146883941Y-124726266D01*
X146638607Y-125045993D01*
X146631555Y-125054397D01*
X146495419Y-125202962D01*
X146359291Y-125351519D01*
X146351519Y-125359291D01*
X146202962Y-125495419D01*
X146054397Y-125631555D01*
X146045993Y-125638607D01*
X145957901Y-125706202D01*
X145726266Y-125883941D01*
X145717262Y-125890245D01*
X145377387Y-126106770D01*
X145367868Y-126112265D01*
X145010412Y-126298345D01*
X145000468Y-126302983D01*
X144628128Y-126457211D01*
X144617813Y-126460964D01*
X144233472Y-126582147D01*
X144222855Y-126584992D01*
X143829413Y-126672215D01*
X143818604Y-126674122D01*
X143419052Y-126726724D01*
X143408103Y-126727682D01*
X143356412Y-126729939D01*
X143035735Y-126743940D01*
X143022599Y-126742935D01*
X143012170Y-126742935D01*
X143000000Y-126740514D01*
X142987103Y-126743079D01*
X142962524Y-126745500D01*
X105037476Y-126745500D01*
X105012897Y-126743079D01*
X105000000Y-126740514D01*
X104987830Y-126742935D01*
X104977401Y-126742935D01*
X104964265Y-126743940D01*
X104643588Y-126729939D01*
X104591897Y-126727682D01*
X104580948Y-126726724D01*
X104181396Y-126674122D01*
X104170587Y-126672215D01*
X103777145Y-126584992D01*
X103766528Y-126582147D01*
X103382187Y-126460964D01*
X103371872Y-126457211D01*
X102999532Y-126302983D01*
X102989588Y-126298345D01*
X102632132Y-126112265D01*
X102622613Y-126106770D01*
X102282738Y-125890245D01*
X102273734Y-125883941D01*
X102042099Y-125706202D01*
X101954007Y-125638607D01*
X101945603Y-125631555D01*
X101797038Y-125495419D01*
X101648481Y-125359291D01*
X101640709Y-125351519D01*
X101504581Y-125202962D01*
X101368445Y-125054397D01*
X101361393Y-125045993D01*
X101116059Y-124726266D01*
X101109755Y-124717262D01*
X100907319Y-124399502D01*
X100893229Y-124377385D01*
X100887734Y-124367867D01*
X100879793Y-124352612D01*
X100701655Y-124010412D01*
X100697013Y-124000459D01*
X100597537Y-123760300D01*
X100542789Y-123628128D01*
X100539033Y-123617806D01*
X100528247Y-123583595D01*
X100417853Y-123233471D01*
X100415008Y-123222854D01*
X100391679Y-123117624D01*
X100327785Y-122829413D01*
X100325877Y-122818596D01*
X100325785Y-122817891D01*
X100273276Y-122419051D01*
X100272318Y-122408102D01*
X100256060Y-122035735D01*
X100257065Y-122022599D01*
X100257065Y-122012170D01*
X100259486Y-122000000D01*
X100256921Y-121987103D01*
X100254500Y-121962524D01*
X100254500Y-118680596D01*
X111240729Y-118680596D01*
X111246466Y-118732558D01*
X111256690Y-118825160D01*
X111258113Y-118838053D01*
X111260723Y-118845184D01*
X111260723Y-118845186D01*
X111288242Y-118920384D01*
X111312553Y-118986819D01*
X111400908Y-119118305D01*
X111406527Y-119123418D01*
X111406528Y-119123419D01*
X111417903Y-119133769D01*
X111518076Y-119224919D01*
X111657293Y-119300508D01*
X111810522Y-119340707D01*
X111894477Y-119342026D01*
X111961319Y-119343076D01*
X111961322Y-119343076D01*
X111968916Y-119343195D01*
X112123332Y-119307829D01*
X112193742Y-119272417D01*
X112258072Y-119240063D01*
X112258075Y-119240061D01*
X112264855Y-119236651D01*
X112270626Y-119231722D01*
X112270629Y-119231720D01*
X112379536Y-119138704D01*
X112379536Y-119138703D01*
X112385314Y-119133769D01*
X112477755Y-119005124D01*
X112536842Y-118858141D01*
X112545733Y-118795666D01*
X112558581Y-118705391D01*
X112558581Y-118705388D01*
X112559162Y-118701307D01*
X112559307Y-118687500D01*
X112557561Y-118673067D01*
X112547226Y-118587668D01*
X112551596Y-118536430D01*
X112560201Y-118507656D01*
X112562036Y-118502008D01*
X112576390Y-118461133D01*
X112576390Y-118461132D01*
X112579018Y-118453649D01*
X112579500Y-118448084D01*
X112579500Y-118445376D01*
X112579614Y-118442742D01*
X112579643Y-118442644D01*
X112579807Y-118442651D01*
X112579851Y-118441947D01*
X112581713Y-118435722D01*
X112579597Y-118381865D01*
X112579500Y-118376918D01*
X112579500Y-118007884D01*
X112599502Y-117939763D01*
X112653158Y-117893270D01*
X112723432Y-117883166D01*
X112788012Y-117912660D01*
X112794595Y-117918789D01*
X113410249Y-118534443D01*
X113444275Y-118596755D01*
X113446076Y-118639985D01*
X113442092Y-118670246D01*
X113440729Y-118680596D01*
X113446466Y-118732558D01*
X113456690Y-118825160D01*
X113458113Y-118838053D01*
X113460723Y-118845184D01*
X113460723Y-118845186D01*
X113488242Y-118920384D01*
X113512553Y-118986819D01*
X113600908Y-119118305D01*
X113606527Y-119123418D01*
X113606528Y-119123419D01*
X113617903Y-119133769D01*
X113718076Y-119224919D01*
X113857293Y-119300508D01*
X114010522Y-119340707D01*
X114094477Y-119342026D01*
X114161319Y-119343076D01*
X114161322Y-119343076D01*
X114168916Y-119343195D01*
X114323332Y-119307829D01*
X114393742Y-119272417D01*
X114458072Y-119240063D01*
X114458075Y-119240061D01*
X114464855Y-119236651D01*
X114470626Y-119231722D01*
X114470629Y-119231720D01*
X114579536Y-119138704D01*
X114579536Y-119138703D01*
X114585314Y-119133769D01*
X114677755Y-119005124D01*
X114736842Y-118858141D01*
X114745733Y-118795666D01*
X114758581Y-118705391D01*
X114758581Y-118705388D01*
X114759162Y-118701307D01*
X114759307Y-118687500D01*
X114757561Y-118673067D01*
X114743780Y-118559192D01*
X114740276Y-118530233D01*
X114684280Y-118382046D01*
X114675814Y-118369728D01*
X114598855Y-118257751D01*
X114598854Y-118257749D01*
X114594553Y-118251492D01*
X114476275Y-118146111D01*
X114468889Y-118142200D01*
X114342988Y-118075539D01*
X114342989Y-118075539D01*
X114336274Y-118071984D01*
X114182633Y-118033392D01*
X114175034Y-118033352D01*
X114175033Y-118033352D01*
X114114626Y-118033036D01*
X114033335Y-118032610D01*
X113965321Y-118012252D01*
X113944901Y-117995707D01*
X113090038Y-117140844D01*
X113056012Y-117078532D01*
X113053133Y-117051749D01*
X113053133Y-104918638D01*
X113073135Y-104850517D01*
X113126791Y-104804024D01*
X113179133Y-104792638D01*
X113223633Y-104792638D01*
X113322934Y-104772886D01*
X113323769Y-104777082D01*
X113371013Y-104772006D01*
X113374314Y-104772975D01*
X113374332Y-104772886D01*
X113448566Y-104787652D01*
X113506705Y-104787652D01*
X114393133Y-104787651D01*
X114461254Y-104807653D01*
X114507747Y-104861309D01*
X114519133Y-104913651D01*
X114519133Y-107314069D01*
X114502252Y-107377069D01*
X114492009Y-107394811D01*
X114488708Y-107400529D01*
X114433202Y-107571361D01*
X114432512Y-107577924D01*
X114432512Y-107577925D01*
X114422808Y-107670251D01*
X114414426Y-107750000D01*
X114433202Y-107928639D01*
X114435242Y-107934917D01*
X114435242Y-107934918D01*
X114486637Y-108093096D01*
X114488708Y-108099471D01*
X114578520Y-108255029D01*
X114582938Y-108259936D01*
X114582939Y-108259937D01*
X114694289Y-108383604D01*
X114698711Y-108388515D01*
X114704053Y-108392396D01*
X114704055Y-108392398D01*
X114838687Y-108490214D01*
X114844029Y-108494095D01*
X114850057Y-108496779D01*
X114850059Y-108496780D01*
X115002092Y-108564469D01*
X115008123Y-108567154D01*
X115095972Y-108585827D01*
X115177364Y-108603128D01*
X115177369Y-108603128D01*
X115183821Y-108604500D01*
X115363445Y-108604500D01*
X115369897Y-108603128D01*
X115369902Y-108603128D01*
X115451294Y-108585827D01*
X115539143Y-108567154D01*
X115545174Y-108564469D01*
X115697207Y-108496780D01*
X115697209Y-108496779D01*
X115703237Y-108494095D01*
X115708579Y-108490214D01*
X115843211Y-108392398D01*
X115843213Y-108392396D01*
X115848555Y-108388515D01*
X115852977Y-108383604D01*
X115964327Y-108259937D01*
X115964328Y-108259936D01*
X115968746Y-108255029D01*
X116058558Y-108099471D01*
X116060630Y-108093096D01*
X116112024Y-107934918D01*
X116112024Y-107934917D01*
X116114064Y-107928639D01*
X116132840Y-107750000D01*
X116124458Y-107670251D01*
X116114754Y-107577925D01*
X116114754Y-107577924D01*
X116114064Y-107571361D01*
X116058558Y-107400529D01*
X116055257Y-107394811D01*
X116045014Y-107377069D01*
X116028133Y-107314069D01*
X116028133Y-104133959D01*
X116029633Y-104114574D01*
X116034446Y-104083663D01*
X116034446Y-104083660D01*
X116035134Y-104079243D01*
X116036033Y-104005679D01*
X116034183Y-103991531D01*
X116033119Y-103975194D01*
X116033119Y-103601935D01*
X116034186Y-103588145D01*
X116034072Y-103588135D01*
X116034446Y-103583664D01*
X116035134Y-103579243D01*
X116035376Y-103559489D01*
X116035978Y-103510156D01*
X116036033Y-103505679D01*
X116017463Y-103363665D01*
X116004299Y-103316516D01*
X115998882Y-103297116D01*
X115998881Y-103297113D01*
X115997677Y-103292801D01*
X115939994Y-103161708D01*
X115922655Y-103133851D01*
X115903481Y-103103046D01*
X115903477Y-103103040D01*
X115901117Y-103099249D01*
X115898241Y-103095828D01*
X115898237Y-103095822D01*
X115811845Y-102993046D01*
X115811844Y-102993045D01*
X115808960Y-102989614D01*
X115773790Y-102958168D01*
X115757460Y-102943567D01*
X115757455Y-102943563D01*
X115754113Y-102940575D01*
X115750380Y-102938090D01*
X115750376Y-102938087D01*
X115638616Y-102863693D01*
X115638610Y-102863690D01*
X115634888Y-102861212D01*
X115568483Y-102829538D01*
X115564208Y-102828203D01*
X115564202Y-102828200D01*
X115436064Y-102788167D01*
X115436059Y-102788166D01*
X115431777Y-102786828D01*
X115359152Y-102775066D01*
X115232089Y-102772737D01*
X115220427Y-102772523D01*
X115215953Y-102772441D01*
X115211511Y-102772994D01*
X115207031Y-102773231D01*
X115207025Y-102773125D01*
X115198301Y-102773666D01*
X114854133Y-102773666D01*
X114786012Y-102753664D01*
X114739519Y-102700008D01*
X114728133Y-102647666D01*
X114728133Y-101832935D01*
X114748135Y-101764814D01*
X114801791Y-101718321D01*
X114872065Y-101708217D01*
X114917322Y-101726308D01*
X114918076Y-101724919D01*
X115057293Y-101800508D01*
X115210522Y-101840707D01*
X115307138Y-101842225D01*
X115368772Y-101843193D01*
X115436570Y-101864262D01*
X115455888Y-101880082D01*
X120683595Y-107107789D01*
X120717621Y-107170101D01*
X120720500Y-107196884D01*
X120720500Y-122205187D01*
X120700498Y-122273308D01*
X120677330Y-122300135D01*
X120610039Y-122358838D01*
X120518950Y-122488444D01*
X120461406Y-122636037D01*
X120440729Y-122793096D01*
X120458113Y-122950553D01*
X120512553Y-123099319D01*
X120600908Y-123230805D01*
X120606527Y-123235918D01*
X120606528Y-123235919D01*
X120617903Y-123246269D01*
X120718076Y-123337419D01*
X120857293Y-123413008D01*
X121010522Y-123453207D01*
X121094477Y-123454526D01*
X121161319Y-123455576D01*
X121161322Y-123455576D01*
X121168916Y-123455695D01*
X121323332Y-123420329D01*
X121393742Y-123384917D01*
X121458072Y-123352563D01*
X121458075Y-123352561D01*
X121464855Y-123349151D01*
X121470626Y-123344222D01*
X121470629Y-123344220D01*
X121579536Y-123251204D01*
X121579536Y-123251203D01*
X121585314Y-123246269D01*
X121677755Y-123117624D01*
X121736842Y-122970641D01*
X121757705Y-122824047D01*
X121758581Y-122817891D01*
X121758581Y-122817888D01*
X121759162Y-122813807D01*
X121759307Y-122800000D01*
X121740276Y-122642733D01*
X121684280Y-122494546D01*
X121594553Y-122363992D01*
X121521681Y-122299065D01*
X121484126Y-122238816D01*
X121479500Y-122204989D01*
X121479500Y-118920384D01*
X121499502Y-118852263D01*
X121553158Y-118805770D01*
X121623432Y-118795666D01*
X121688012Y-118825160D01*
X121694595Y-118831289D01*
X127093522Y-124230216D01*
X127108664Y-124248964D01*
X127109779Y-124250189D01*
X127115429Y-124258940D01*
X127123607Y-124265387D01*
X127123609Y-124265389D01*
X127141800Y-124279729D01*
X127146241Y-124283675D01*
X127146303Y-124283602D01*
X127150267Y-124286961D01*
X127153944Y-124290638D01*
X127169692Y-124301892D01*
X127174362Y-124305398D01*
X127214647Y-124337156D01*
X127223281Y-124340188D01*
X127230734Y-124345514D01*
X127279850Y-124360203D01*
X127285492Y-124362036D01*
X127305081Y-124368915D01*
X127333851Y-124379018D01*
X127339416Y-124379500D01*
X127342124Y-124379500D01*
X127344758Y-124379614D01*
X127344856Y-124379643D01*
X127344849Y-124379807D01*
X127345553Y-124379851D01*
X127351778Y-124381713D01*
X127405635Y-124379597D01*
X127410582Y-124379500D01*
X129299933Y-124379500D01*
X129368054Y-124399502D01*
X129414547Y-124453158D01*
X129424651Y-124523432D01*
X129398883Y-124583506D01*
X129349720Y-124645869D01*
X129347031Y-124650980D01*
X129347029Y-124650983D01*
X129334073Y-124675609D01*
X129255203Y-124825515D01*
X129195007Y-125019378D01*
X129171148Y-125220964D01*
X129184424Y-125423522D01*
X129185845Y-125429118D01*
X129185846Y-125429123D01*
X129219547Y-125561818D01*
X129234392Y-125620269D01*
X129236809Y-125625512D01*
X129271803Y-125701419D01*
X129319377Y-125804616D01*
X129436533Y-125970389D01*
X129581938Y-126112035D01*
X129750720Y-126224812D01*
X129756023Y-126227090D01*
X129756026Y-126227092D01*
X129844707Y-126265192D01*
X129937228Y-126304942D01*
X130010244Y-126321464D01*
X130129579Y-126348467D01*
X130129584Y-126348468D01*
X130135216Y-126349742D01*
X130140987Y-126349969D01*
X130140989Y-126349969D01*
X130200756Y-126352317D01*
X130338053Y-126357712D01*
X130448596Y-126341684D01*
X130533231Y-126329413D01*
X130533236Y-126329412D01*
X130538945Y-126328584D01*
X130544409Y-126326729D01*
X130544414Y-126326728D01*
X130725693Y-126265192D01*
X130725698Y-126265190D01*
X130731165Y-126263334D01*
X130908276Y-126164147D01*
X130948029Y-126131085D01*
X131059913Y-126038031D01*
X131064345Y-126034345D01*
X131121463Y-125965669D01*
X131190453Y-125882718D01*
X131190455Y-125882715D01*
X131194147Y-125878276D01*
X131293334Y-125701165D01*
X131295190Y-125695698D01*
X131295192Y-125695693D01*
X131356728Y-125514414D01*
X131356729Y-125514409D01*
X131358584Y-125508945D01*
X131359412Y-125503236D01*
X131359413Y-125503231D01*
X131387179Y-125311727D01*
X131387712Y-125308053D01*
X131389232Y-125250000D01*
X131377797Y-125125551D01*
X131371187Y-125053613D01*
X131371186Y-125053610D01*
X131370658Y-125047859D01*
X131369090Y-125042299D01*
X131317125Y-124858046D01*
X131317124Y-124858044D01*
X131315557Y-124852487D01*
X131304978Y-124831033D01*
X131228331Y-124675609D01*
X131225776Y-124670428D01*
X131158914Y-124580889D01*
X131134182Y-124514339D01*
X131149356Y-124444983D01*
X131199618Y-124394841D01*
X131259872Y-124379500D01*
X131360616Y-124379500D01*
X131428737Y-124399502D01*
X131449711Y-124416405D01*
X131756477Y-124723171D01*
X131790503Y-124785483D01*
X131787715Y-124849630D01*
X131786828Y-124852487D01*
X131735007Y-125019378D01*
X131711148Y-125220964D01*
X131724424Y-125423522D01*
X131725845Y-125429118D01*
X131725846Y-125429123D01*
X131759547Y-125561818D01*
X131774392Y-125620269D01*
X131776809Y-125625512D01*
X131811803Y-125701419D01*
X131859377Y-125804616D01*
X131976533Y-125970389D01*
X132121938Y-126112035D01*
X132290720Y-126224812D01*
X132296023Y-126227090D01*
X132296026Y-126227092D01*
X132384707Y-126265192D01*
X132477228Y-126304942D01*
X132550244Y-126321464D01*
X132669579Y-126348467D01*
X132669584Y-126348468D01*
X132675216Y-126349742D01*
X132680987Y-126349969D01*
X132680989Y-126349969D01*
X132740756Y-126352317D01*
X132878053Y-126357712D01*
X132988596Y-126341684D01*
X133073231Y-126329413D01*
X133073236Y-126329412D01*
X133078945Y-126328584D01*
X133084409Y-126326729D01*
X133084414Y-126326728D01*
X133265693Y-126265192D01*
X133265698Y-126265190D01*
X133271165Y-126263334D01*
X133448276Y-126164147D01*
X133488029Y-126131085D01*
X133599913Y-126038031D01*
X133604345Y-126034345D01*
X133661463Y-125965669D01*
X133730453Y-125882718D01*
X133730455Y-125882715D01*
X133734147Y-125878276D01*
X133833334Y-125701165D01*
X133833787Y-125701419D01*
X133877368Y-125650151D01*
X133946488Y-125629500D01*
X134237990Y-125629500D01*
X134306111Y-125649502D01*
X134352416Y-125702749D01*
X134399377Y-125804616D01*
X134516533Y-125970389D01*
X134661938Y-126112035D01*
X134830720Y-126224812D01*
X134836023Y-126227090D01*
X134836026Y-126227092D01*
X134924707Y-126265192D01*
X135017228Y-126304942D01*
X135090244Y-126321464D01*
X135209579Y-126348467D01*
X135209584Y-126348468D01*
X135215216Y-126349742D01*
X135220987Y-126349969D01*
X135220989Y-126349969D01*
X135280756Y-126352317D01*
X135418053Y-126357712D01*
X135528596Y-126341684D01*
X135613231Y-126329413D01*
X135613236Y-126329412D01*
X135618945Y-126328584D01*
X135624409Y-126326729D01*
X135624414Y-126326728D01*
X135805693Y-126265192D01*
X135805698Y-126265190D01*
X135811165Y-126263334D01*
X135988276Y-126164147D01*
X136028029Y-126131085D01*
X136042766Y-126118828D01*
X136796001Y-126118828D01*
X136797209Y-126131088D01*
X136808315Y-126186931D01*
X136817633Y-126209427D01*
X136859983Y-126272808D01*
X136877192Y-126290017D01*
X136940575Y-126332368D01*
X136963066Y-126341684D01*
X137018915Y-126352793D01*
X137031170Y-126354000D01*
X137627885Y-126354000D01*
X137643124Y-126349525D01*
X137644329Y-126348135D01*
X137646000Y-126340452D01*
X137646000Y-126335884D01*
X138154000Y-126335884D01*
X138158475Y-126351123D01*
X138159865Y-126352328D01*
X138167548Y-126353999D01*
X138768828Y-126353999D01*
X138781088Y-126352791D01*
X138836931Y-126341685D01*
X138859427Y-126332367D01*
X138922808Y-126290017D01*
X138940017Y-126272808D01*
X138982368Y-126209425D01*
X138991684Y-126186934D01*
X139002793Y-126131085D01*
X139004000Y-126118830D01*
X139004000Y-125522115D01*
X138999525Y-125506876D01*
X138998135Y-125505671D01*
X138990452Y-125504000D01*
X138172115Y-125504000D01*
X138156876Y-125508475D01*
X138155671Y-125509865D01*
X138154000Y-125517548D01*
X138154000Y-126335884D01*
X137646000Y-126335884D01*
X137646000Y-125522115D01*
X137641525Y-125506876D01*
X137640135Y-125505671D01*
X137632452Y-125504000D01*
X136814116Y-125504000D01*
X136798877Y-125508475D01*
X136797672Y-125509865D01*
X136796001Y-125517548D01*
X136796001Y-126118828D01*
X136042766Y-126118828D01*
X136139913Y-126038031D01*
X136144345Y-126034345D01*
X136201463Y-125965669D01*
X136270453Y-125882718D01*
X136270455Y-125882715D01*
X136274147Y-125878276D01*
X136373334Y-125701165D01*
X136375190Y-125695698D01*
X136375192Y-125695693D01*
X136436728Y-125514414D01*
X136436729Y-125514409D01*
X136438584Y-125508945D01*
X136439412Y-125503236D01*
X136439413Y-125503231D01*
X136467179Y-125311727D01*
X136467712Y-125308053D01*
X136469232Y-125250000D01*
X136457797Y-125125551D01*
X136451187Y-125053613D01*
X136451186Y-125053610D01*
X136450658Y-125047859D01*
X136449090Y-125042299D01*
X136430923Y-124977885D01*
X136796000Y-124977885D01*
X136800475Y-124993124D01*
X136801865Y-124994329D01*
X136809548Y-124996000D01*
X137627885Y-124996000D01*
X137643124Y-124991525D01*
X137644329Y-124990135D01*
X137646000Y-124982452D01*
X137646000Y-124977885D01*
X138154000Y-124977885D01*
X138158475Y-124993124D01*
X138159865Y-124994329D01*
X138167548Y-124996000D01*
X138985884Y-124996000D01*
X139001123Y-124991525D01*
X139002328Y-124990135D01*
X139003999Y-124982452D01*
X139003999Y-124381172D01*
X139002791Y-124368912D01*
X138991685Y-124313069D01*
X138982367Y-124290573D01*
X138940017Y-124227192D01*
X138922808Y-124209983D01*
X138859425Y-124167632D01*
X138836934Y-124158316D01*
X138781085Y-124147207D01*
X138768830Y-124146000D01*
X138172115Y-124146000D01*
X138156876Y-124150475D01*
X138155671Y-124151865D01*
X138154000Y-124159548D01*
X138154000Y-124977885D01*
X137646000Y-124977885D01*
X137646000Y-124164116D01*
X137641525Y-124148877D01*
X137640135Y-124147672D01*
X137632452Y-124146001D01*
X137031172Y-124146001D01*
X137018912Y-124147209D01*
X136963069Y-124158315D01*
X136940573Y-124167633D01*
X136877192Y-124209983D01*
X136859983Y-124227192D01*
X136817632Y-124290575D01*
X136808316Y-124313066D01*
X136797207Y-124368915D01*
X136796000Y-124381170D01*
X136796000Y-124977885D01*
X136430923Y-124977885D01*
X136397125Y-124858046D01*
X136397124Y-124858044D01*
X136395557Y-124852487D01*
X136384978Y-124831033D01*
X136308331Y-124675609D01*
X136305776Y-124670428D01*
X136184320Y-124507779D01*
X136035258Y-124369987D01*
X136030375Y-124366906D01*
X136030371Y-124366903D01*
X135868464Y-124264748D01*
X135863581Y-124261667D01*
X135675039Y-124186446D01*
X135669379Y-124185320D01*
X135669375Y-124185319D01*
X135481613Y-124147971D01*
X135481610Y-124147971D01*
X135475946Y-124146844D01*
X135470171Y-124146768D01*
X135470167Y-124146768D01*
X135368793Y-124145441D01*
X135272971Y-124144187D01*
X135267274Y-124145166D01*
X135267273Y-124145166D01*
X135136530Y-124167632D01*
X135072910Y-124178564D01*
X134882463Y-124248824D01*
X134708010Y-124352612D01*
X134703670Y-124356418D01*
X134703666Y-124356421D01*
X134593360Y-124453158D01*
X134555392Y-124486455D01*
X134429720Y-124645869D01*
X134427031Y-124650980D01*
X134427029Y-124650983D01*
X134346960Y-124803168D01*
X134297540Y-124854141D01*
X134235452Y-124870500D01*
X133942792Y-124870500D01*
X133874671Y-124850498D01*
X133829786Y-124800228D01*
X133768331Y-124675609D01*
X133765776Y-124670428D01*
X133644320Y-124507779D01*
X133495258Y-124369987D01*
X133490375Y-124366906D01*
X133490371Y-124366903D01*
X133328464Y-124264748D01*
X133323581Y-124261667D01*
X133135039Y-124186446D01*
X133129379Y-124185320D01*
X133129375Y-124185319D01*
X132941613Y-124147971D01*
X132941610Y-124147971D01*
X132935946Y-124146844D01*
X132930171Y-124146768D01*
X132930167Y-124146768D01*
X132828793Y-124145441D01*
X132732971Y-124144187D01*
X132727274Y-124145166D01*
X132727273Y-124145166D01*
X132596530Y-124167632D01*
X132532910Y-124178564D01*
X132427671Y-124217389D01*
X132356839Y-124222201D01*
X132294966Y-124188272D01*
X131876478Y-123769784D01*
X131861336Y-123751036D01*
X131860221Y-123749811D01*
X131854571Y-123741060D01*
X131846393Y-123734613D01*
X131846391Y-123734611D01*
X131828200Y-123720271D01*
X131823759Y-123716325D01*
X131823697Y-123716398D01*
X131819733Y-123713039D01*
X131816056Y-123709362D01*
X131800308Y-123698108D01*
X131795638Y-123694602D01*
X131755353Y-123662844D01*
X131746719Y-123659812D01*
X131739266Y-123654486D01*
X131690150Y-123639797D01*
X131684508Y-123637964D01*
X131643633Y-123623610D01*
X131643632Y-123623610D01*
X131636149Y-123620982D01*
X131630584Y-123620500D01*
X131627876Y-123620500D01*
X131625242Y-123620386D01*
X131625144Y-123620357D01*
X131625151Y-123620193D01*
X131624447Y-123620149D01*
X131618222Y-123618287D01*
X131564365Y-123620403D01*
X131559418Y-123620500D01*
X127609384Y-123620500D01*
X127541263Y-123600498D01*
X127520289Y-123583595D01*
X122669252Y-118732558D01*
X122635226Y-118670246D01*
X122640291Y-118599431D01*
X122682838Y-118542595D01*
X122701733Y-118530898D01*
X122758071Y-118502563D01*
X122764855Y-118499151D01*
X122770626Y-118494222D01*
X122770629Y-118494220D01*
X122879536Y-118401204D01*
X122879536Y-118401203D01*
X122885314Y-118396269D01*
X122977755Y-118267624D01*
X123036842Y-118120641D01*
X123049377Y-118032562D01*
X123058581Y-117967891D01*
X123058581Y-117967888D01*
X123059162Y-117963807D01*
X123059307Y-117950000D01*
X123040276Y-117792733D01*
X122984280Y-117644546D01*
X122894553Y-117513992D01*
X122776275Y-117408611D01*
X122636274Y-117334484D01*
X122628911Y-117332635D01*
X122628907Y-117332633D01*
X122574805Y-117319044D01*
X122513609Y-117283049D01*
X122481588Y-117219684D01*
X122479500Y-117196840D01*
X122479500Y-106653925D01*
X122482050Y-106629967D01*
X122482128Y-106628308D01*
X122484321Y-106618124D01*
X122483097Y-106607782D01*
X122483097Y-106607779D01*
X122480374Y-106584779D01*
X122480024Y-106578848D01*
X122479928Y-106578856D01*
X122479500Y-106573680D01*
X122479500Y-106568476D01*
X122476327Y-106549412D01*
X122475496Y-106543566D01*
X122472131Y-106515142D01*
X122469470Y-106492659D01*
X122465507Y-106484407D01*
X122464004Y-106475374D01*
X122456784Y-106461992D01*
X122439666Y-106430268D01*
X122436969Y-106424975D01*
X122418215Y-106385919D01*
X122418214Y-106385918D01*
X122414781Y-106378768D01*
X122411187Y-106374493D01*
X122409262Y-106372568D01*
X122407491Y-106370638D01*
X122407445Y-106370553D01*
X122407568Y-106370441D01*
X122407096Y-106369906D01*
X122404010Y-106364186D01*
X122364413Y-106327583D01*
X122360848Y-106324154D01*
X118600190Y-102563496D01*
X118566164Y-102501184D01*
X118571229Y-102430369D01*
X118575868Y-102420250D01*
X118577755Y-102417624D01*
X118636842Y-102270641D01*
X118642965Y-102227615D01*
X118658581Y-102117891D01*
X118658581Y-102117888D01*
X118659162Y-102113807D01*
X118659307Y-102100000D01*
X118640276Y-101942733D01*
X118584280Y-101794546D01*
X118538552Y-101728011D01*
X118498855Y-101670251D01*
X118498854Y-101670249D01*
X118494553Y-101663992D01*
X118376275Y-101558611D01*
X118368889Y-101554700D01*
X118284473Y-101510004D01*
X118236274Y-101484484D01*
X118082633Y-101445892D01*
X118075034Y-101445852D01*
X118075033Y-101445852D01*
X118009181Y-101445507D01*
X117924221Y-101445062D01*
X117916841Y-101446834D01*
X117916839Y-101446834D01*
X117777563Y-101480271D01*
X117777560Y-101480272D01*
X117770184Y-101482043D01*
X117629414Y-101554700D01*
X117510039Y-101658838D01*
X117418950Y-101788444D01*
X117406607Y-101820101D01*
X117363229Y-101876301D01*
X117296350Y-101900129D01*
X117227206Y-101884016D01*
X117200120Y-101863426D01*
X116516405Y-101179711D01*
X116482379Y-101117399D01*
X116479500Y-101090616D01*
X116479500Y-100953920D01*
X116482049Y-100929972D01*
X116482128Y-100928307D01*
X116484320Y-100918124D01*
X116480373Y-100884777D01*
X116480023Y-100878846D01*
X116479928Y-100878854D01*
X116479500Y-100873676D01*
X116479500Y-100868476D01*
X116478646Y-100863344D01*
X116476331Y-100849435D01*
X116475494Y-100843557D01*
X116470694Y-100802999D01*
X116470694Y-100802998D01*
X116469470Y-100792659D01*
X116465507Y-100784407D01*
X116464004Y-100775374D01*
X116457390Y-100763115D01*
X116439666Y-100730268D01*
X116436969Y-100724975D01*
X116418215Y-100685919D01*
X116418214Y-100685918D01*
X116414781Y-100678768D01*
X116411187Y-100674493D01*
X116409262Y-100672568D01*
X116407491Y-100670638D01*
X116407445Y-100670553D01*
X116407568Y-100670441D01*
X116407096Y-100669906D01*
X116404010Y-100664186D01*
X116364413Y-100627583D01*
X116360848Y-100624154D01*
X116166405Y-100429711D01*
X116132379Y-100367399D01*
X116129500Y-100340616D01*
X116129500Y-96544730D01*
X116149502Y-96476609D01*
X116173669Y-96448919D01*
X116229536Y-96401204D01*
X116235314Y-96396269D01*
X116327755Y-96267624D01*
X116386842Y-96120641D01*
X116404994Y-95993096D01*
X116408581Y-95967891D01*
X116408581Y-95967888D01*
X116409162Y-95963807D01*
X116409307Y-95950000D01*
X116390276Y-95792733D01*
X116334280Y-95644546D01*
X116286386Y-95574860D01*
X116248855Y-95520251D01*
X116248854Y-95520249D01*
X116244553Y-95513992D01*
X116126275Y-95408611D01*
X115986274Y-95334484D01*
X115832633Y-95295892D01*
X115825034Y-95295852D01*
X115825033Y-95295852D01*
X115759181Y-95295507D01*
X115674221Y-95295062D01*
X115666841Y-95296834D01*
X115666839Y-95296834D01*
X115611323Y-95310163D01*
X115534913Y-95328507D01*
X115464006Y-95324960D01*
X115406272Y-95283640D01*
X115380042Y-95217667D01*
X115379500Y-95205988D01*
X115379500Y-86193096D01*
X115840729Y-86193096D01*
X115858113Y-86350553D01*
X115912553Y-86499319D01*
X115916789Y-86505622D01*
X115916789Y-86505623D01*
X115991232Y-86616405D01*
X116000908Y-86630805D01*
X116006527Y-86635918D01*
X116006528Y-86635919D01*
X116017903Y-86646269D01*
X116118076Y-86737419D01*
X116257293Y-86813008D01*
X116410522Y-86853207D01*
X116494477Y-86854526D01*
X116561319Y-86855576D01*
X116561322Y-86855576D01*
X116568916Y-86855695D01*
X116723332Y-86820329D01*
X116793742Y-86784917D01*
X116858072Y-86752563D01*
X116858075Y-86752561D01*
X116864855Y-86749151D01*
X116870626Y-86744222D01*
X116870629Y-86744220D01*
X116979542Y-86651199D01*
X116979543Y-86651198D01*
X116985314Y-86646269D01*
X116995586Y-86631974D01*
X117051581Y-86588326D01*
X117097909Y-86579500D01*
X117890616Y-86579500D01*
X117958737Y-86599502D01*
X117979711Y-86616405D01*
X121883595Y-90520289D01*
X121917621Y-90582601D01*
X121920500Y-90609384D01*
X121920500Y-98846080D01*
X121917951Y-98870028D01*
X121917872Y-98871693D01*
X121915680Y-98881876D01*
X121916904Y-98892217D01*
X121919627Y-98915223D01*
X121919977Y-98921154D01*
X121920072Y-98921146D01*
X121920500Y-98926324D01*
X121920500Y-98931524D01*
X121921354Y-98936653D01*
X121921354Y-98936656D01*
X121923669Y-98950565D01*
X121924506Y-98956443D01*
X121930530Y-99007341D01*
X121934493Y-99015593D01*
X121935996Y-99024626D01*
X121940943Y-99033795D01*
X121940944Y-99033797D01*
X121960334Y-99069732D01*
X121963031Y-99075025D01*
X121981785Y-99114082D01*
X121981788Y-99114086D01*
X121985219Y-99121232D01*
X121988814Y-99125508D01*
X121990737Y-99127431D01*
X121992509Y-99129363D01*
X121992552Y-99129442D01*
X121992428Y-99129555D01*
X121992904Y-99130095D01*
X121995990Y-99135814D01*
X122003635Y-99142881D01*
X122035586Y-99172416D01*
X122039152Y-99175846D01*
X125183595Y-102320289D01*
X125217621Y-102382601D01*
X125220500Y-102409384D01*
X125220500Y-103546080D01*
X125217951Y-103570028D01*
X125217872Y-103571693D01*
X125215680Y-103581876D01*
X125216904Y-103592217D01*
X125219627Y-103615223D01*
X125219977Y-103621154D01*
X125220072Y-103621146D01*
X125220500Y-103626324D01*
X125220500Y-103631524D01*
X125221354Y-103636653D01*
X125221354Y-103636656D01*
X125223669Y-103650565D01*
X125224506Y-103656443D01*
X125228886Y-103693447D01*
X125230530Y-103707341D01*
X125234493Y-103715593D01*
X125235996Y-103724626D01*
X125240943Y-103733795D01*
X125240944Y-103733797D01*
X125260334Y-103769732D01*
X125263031Y-103775025D01*
X125281785Y-103814082D01*
X125281788Y-103814086D01*
X125285219Y-103821232D01*
X125288814Y-103825508D01*
X125290737Y-103827431D01*
X125292509Y-103829363D01*
X125292552Y-103829442D01*
X125292428Y-103829555D01*
X125292904Y-103830095D01*
X125295990Y-103835814D01*
X125303635Y-103842881D01*
X125335572Y-103872403D01*
X125339139Y-103875833D01*
X125883596Y-104420291D01*
X125917621Y-104482603D01*
X125920500Y-104509386D01*
X125920500Y-105846080D01*
X125917951Y-105870028D01*
X125917872Y-105871693D01*
X125915680Y-105881876D01*
X125916904Y-105892217D01*
X125919627Y-105915223D01*
X125919977Y-105921154D01*
X125920072Y-105921146D01*
X125920500Y-105926324D01*
X125920500Y-105931524D01*
X125921354Y-105936653D01*
X125921354Y-105936656D01*
X125923669Y-105950565D01*
X125924506Y-105956443D01*
X125928138Y-105987126D01*
X125930530Y-106007341D01*
X125934493Y-106015593D01*
X125935996Y-106024626D01*
X125940943Y-106033795D01*
X125940944Y-106033797D01*
X125960334Y-106069732D01*
X125963031Y-106075025D01*
X125981785Y-106114082D01*
X125981788Y-106114086D01*
X125985219Y-106121232D01*
X125988814Y-106125508D01*
X125990737Y-106127431D01*
X125992509Y-106129363D01*
X125992552Y-106129442D01*
X125992428Y-106129555D01*
X125992904Y-106130095D01*
X125995990Y-106135814D01*
X126003635Y-106142881D01*
X126035586Y-106172416D01*
X126039152Y-106175846D01*
X126671095Y-106807789D01*
X126705121Y-106870101D01*
X126708000Y-106896884D01*
X126708000Y-107505187D01*
X126687998Y-107573308D01*
X126664830Y-107600135D01*
X126597539Y-107658838D01*
X126506450Y-107788444D01*
X126503690Y-107795524D01*
X126454350Y-107922075D01*
X126448906Y-107936037D01*
X126428229Y-108093096D01*
X126445613Y-108250553D01*
X126500053Y-108399319D01*
X126588408Y-108530805D01*
X126594027Y-108535918D01*
X126594028Y-108535919D01*
X126605403Y-108546269D01*
X126705576Y-108637419D01*
X126844793Y-108713008D01*
X126998022Y-108753207D01*
X127081977Y-108754526D01*
X127148819Y-108755576D01*
X127148822Y-108755576D01*
X127156416Y-108755695D01*
X127310832Y-108720329D01*
X127381242Y-108684917D01*
X127445572Y-108652563D01*
X127445575Y-108652561D01*
X127452355Y-108649151D01*
X127458126Y-108644222D01*
X127458129Y-108644220D01*
X127567036Y-108551204D01*
X127567036Y-108551203D01*
X127572814Y-108546269D01*
X127665255Y-108417624D01*
X127724342Y-108270641D01*
X127746662Y-108113807D01*
X127746731Y-108107265D01*
X127746764Y-108104134D01*
X127746764Y-108104128D01*
X127746807Y-108100000D01*
X127727776Y-107942733D01*
X127671780Y-107794546D01*
X127663314Y-107782228D01*
X127586355Y-107670251D01*
X127586354Y-107670249D01*
X127582053Y-107663992D01*
X127509181Y-107599065D01*
X127471626Y-107538816D01*
X127467000Y-107504989D01*
X127467000Y-106741420D01*
X127469549Y-106717472D01*
X127469628Y-106715807D01*
X127471820Y-106705624D01*
X127467873Y-106672277D01*
X127467523Y-106666346D01*
X127467428Y-106666354D01*
X127467000Y-106661176D01*
X127467000Y-106655976D01*
X127466146Y-106650844D01*
X127463831Y-106636935D01*
X127462994Y-106631057D01*
X127458194Y-106590499D01*
X127458194Y-106590498D01*
X127456970Y-106580159D01*
X127453007Y-106571907D01*
X127451504Y-106562874D01*
X127427144Y-106517727D01*
X127424460Y-106512458D01*
X127412366Y-106487271D01*
X127402280Y-106466268D01*
X127398686Y-106461992D01*
X127396746Y-106460052D01*
X127394993Y-106458141D01*
X127394944Y-106458051D01*
X127395067Y-106457939D01*
X127394595Y-106457404D01*
X127391510Y-106451686D01*
X127351913Y-106415083D01*
X127348348Y-106411654D01*
X127331801Y-106395107D01*
X127297775Y-106332795D01*
X127302840Y-106261980D01*
X127345387Y-106205144D01*
X127364282Y-106193447D01*
X127445571Y-106152563D01*
X127452355Y-106149151D01*
X127458126Y-106144222D01*
X127458129Y-106144220D01*
X127567036Y-106051204D01*
X127567036Y-106051203D01*
X127572814Y-106046269D01*
X127665255Y-105917624D01*
X127724342Y-105770641D01*
X127746662Y-105613807D01*
X127746807Y-105600000D01*
X127727776Y-105442733D01*
X127671780Y-105294546D01*
X127582053Y-105163992D01*
X127509181Y-105099065D01*
X127471626Y-105038816D01*
X127467000Y-105004989D01*
X127467000Y-104241420D01*
X127469549Y-104217472D01*
X127469628Y-104215807D01*
X127471820Y-104205624D01*
X127467873Y-104172277D01*
X127467523Y-104166346D01*
X127467428Y-104166354D01*
X127467000Y-104161176D01*
X127467000Y-104155976D01*
X127466146Y-104150844D01*
X127463831Y-104136935D01*
X127462994Y-104131057D01*
X127458194Y-104090499D01*
X127458194Y-104090498D01*
X127456970Y-104080159D01*
X127453007Y-104071907D01*
X127451504Y-104062874D01*
X127427144Y-104017727D01*
X127424460Y-104012458D01*
X127405712Y-103973415D01*
X127402280Y-103966268D01*
X127398686Y-103961992D01*
X127396746Y-103960052D01*
X127394993Y-103958141D01*
X127394944Y-103958051D01*
X127395067Y-103957939D01*
X127394595Y-103957404D01*
X127391510Y-103951686D01*
X127351913Y-103915083D01*
X127348348Y-103911654D01*
X127331801Y-103895107D01*
X127297775Y-103832795D01*
X127302840Y-103761980D01*
X127345387Y-103705144D01*
X127364282Y-103693447D01*
X127445571Y-103652563D01*
X127452355Y-103649151D01*
X127458126Y-103644222D01*
X127458129Y-103644220D01*
X127567036Y-103551204D01*
X127567036Y-103551203D01*
X127572814Y-103546269D01*
X127665255Y-103417624D01*
X127724342Y-103270641D01*
X127742866Y-103140480D01*
X127746081Y-103117891D01*
X127746081Y-103117888D01*
X127746662Y-103113807D01*
X127746807Y-103100000D01*
X127746302Y-103095822D01*
X127739633Y-103040715D01*
X127727776Y-102942733D01*
X127671780Y-102794546D01*
X127582053Y-102663992D01*
X127575097Y-102657794D01*
X127539532Y-102626107D01*
X127509181Y-102599065D01*
X127471626Y-102538816D01*
X127467000Y-102504989D01*
X127467000Y-101741420D01*
X127469549Y-101717472D01*
X127469628Y-101715807D01*
X127471820Y-101705624D01*
X127467873Y-101672277D01*
X127467523Y-101666346D01*
X127467428Y-101666354D01*
X127467000Y-101661176D01*
X127467000Y-101655976D01*
X127464546Y-101641232D01*
X127463831Y-101636935D01*
X127462994Y-101631057D01*
X127458194Y-101590499D01*
X127458194Y-101590498D01*
X127456970Y-101580159D01*
X127453007Y-101571907D01*
X127451504Y-101562874D01*
X127445216Y-101551219D01*
X127427166Y-101517768D01*
X127424469Y-101512475D01*
X127405715Y-101473418D01*
X127405712Y-101473414D01*
X127402281Y-101466268D01*
X127398686Y-101461992D01*
X127396763Y-101460069D01*
X127394991Y-101458137D01*
X127394948Y-101458058D01*
X127395072Y-101457945D01*
X127394596Y-101457405D01*
X127391510Y-101451686D01*
X127351913Y-101415083D01*
X127348348Y-101411654D01*
X127331801Y-101395107D01*
X127297775Y-101332795D01*
X127302840Y-101261980D01*
X127345387Y-101205144D01*
X127364282Y-101193447D01*
X127445571Y-101152563D01*
X127452355Y-101149151D01*
X127458126Y-101144222D01*
X127458129Y-101144220D01*
X127567036Y-101051204D01*
X127567036Y-101051203D01*
X127572814Y-101046269D01*
X127665255Y-100917624D01*
X127724342Y-100770641D01*
X127737417Y-100678768D01*
X127746081Y-100617891D01*
X127746081Y-100617888D01*
X127746662Y-100613807D01*
X127746807Y-100600000D01*
X127727776Y-100442733D01*
X127671780Y-100294546D01*
X127582053Y-100163992D01*
X127463775Y-100058611D01*
X127323774Y-99984484D01*
X127170133Y-99945892D01*
X127162534Y-99945852D01*
X127162533Y-99945852D01*
X127102126Y-99945536D01*
X127020835Y-99945110D01*
X126952821Y-99924752D01*
X126932401Y-99908207D01*
X124216405Y-97192211D01*
X124182379Y-97129899D01*
X124179500Y-97103116D01*
X124179500Y-96793096D01*
X124740729Y-96793096D01*
X124758113Y-96950553D01*
X124812553Y-97099319D01*
X124816789Y-97105622D01*
X124816789Y-97105623D01*
X124891232Y-97216405D01*
X124900908Y-97230805D01*
X124906527Y-97235918D01*
X124906528Y-97235919D01*
X124917903Y-97246269D01*
X125018076Y-97337419D01*
X125157293Y-97413008D01*
X125310522Y-97453207D01*
X125394477Y-97454526D01*
X125461319Y-97455576D01*
X125461322Y-97455576D01*
X125468916Y-97455695D01*
X125623332Y-97420329D01*
X125693742Y-97384917D01*
X125758072Y-97352563D01*
X125758075Y-97352561D01*
X125764855Y-97349151D01*
X125770626Y-97344222D01*
X125770629Y-97344220D01*
X125879542Y-97251199D01*
X125879543Y-97251198D01*
X125885314Y-97246269D01*
X125895586Y-97231974D01*
X125951581Y-97188326D01*
X125997909Y-97179500D01*
X131190616Y-97179500D01*
X131258737Y-97199502D01*
X131279711Y-97216405D01*
X143383595Y-109320289D01*
X143417621Y-109382601D01*
X143420500Y-109409384D01*
X143420500Y-114742687D01*
X143400498Y-114810808D01*
X143377330Y-114837635D01*
X143310039Y-114896338D01*
X143218950Y-115025944D01*
X143161406Y-115173537D01*
X143160414Y-115181070D01*
X143160414Y-115181071D01*
X143142775Y-115315056D01*
X143140729Y-115330596D01*
X143158113Y-115488053D01*
X143160723Y-115495184D01*
X143160723Y-115495186D01*
X143161037Y-115496042D01*
X143212553Y-115636819D01*
X143216789Y-115643122D01*
X143216789Y-115643123D01*
X143293049Y-115756609D01*
X143300908Y-115768305D01*
X143306527Y-115773418D01*
X143306528Y-115773419D01*
X143317903Y-115783769D01*
X143418076Y-115874919D01*
X143557293Y-115950508D01*
X143710522Y-115990707D01*
X143794477Y-115992026D01*
X143861319Y-115993076D01*
X143861322Y-115993076D01*
X143868916Y-115993195D01*
X144023332Y-115957829D01*
X144093742Y-115922417D01*
X144158072Y-115890063D01*
X144158075Y-115890061D01*
X144164855Y-115886651D01*
X144170626Y-115881722D01*
X144170629Y-115881720D01*
X144279536Y-115788704D01*
X144279536Y-115788703D01*
X144285314Y-115783769D01*
X144377755Y-115655124D01*
X144436842Y-115508141D01*
X144459162Y-115351307D01*
X144459307Y-115337500D01*
X144440276Y-115180233D01*
X144384280Y-115032046D01*
X144313732Y-114929397D01*
X144298855Y-114907751D01*
X144298854Y-114907749D01*
X144294553Y-114901492D01*
X144221681Y-114836565D01*
X144184126Y-114776316D01*
X144179500Y-114742489D01*
X144179500Y-109253920D01*
X144182049Y-109229972D01*
X144182128Y-109228307D01*
X144184320Y-109218124D01*
X144180373Y-109184777D01*
X144180023Y-109178846D01*
X144179928Y-109178854D01*
X144179500Y-109173676D01*
X144179500Y-109168476D01*
X144178646Y-109163344D01*
X144176331Y-109149435D01*
X144175494Y-109143557D01*
X144170694Y-109102999D01*
X144170694Y-109102998D01*
X144169470Y-109092659D01*
X144165507Y-109084407D01*
X144164004Y-109075374D01*
X144139644Y-109030227D01*
X144136960Y-109024958D01*
X144118212Y-108985915D01*
X144114780Y-108978768D01*
X144111186Y-108974492D01*
X144109246Y-108972552D01*
X144107493Y-108970641D01*
X144107444Y-108970551D01*
X144107567Y-108970439D01*
X144107095Y-108969904D01*
X144104010Y-108964186D01*
X144064413Y-108927583D01*
X144060848Y-108924154D01*
X138611627Y-103474933D01*
X141645500Y-103474933D01*
X141645501Y-105925066D01*
X141660266Y-105999301D01*
X141667161Y-106009620D01*
X141667162Y-106009622D01*
X141676913Y-106024215D01*
X141716516Y-106083484D01*
X141800699Y-106139734D01*
X141874933Y-106154500D01*
X143099802Y-106154500D01*
X144325066Y-106154499D01*
X144360818Y-106147388D01*
X144387126Y-106142156D01*
X144387128Y-106142155D01*
X144399301Y-106139734D01*
X144409621Y-106132839D01*
X144409622Y-106132838D01*
X144473168Y-106090377D01*
X144483484Y-106083484D01*
X144539734Y-105999301D01*
X144554500Y-105925067D01*
X144554499Y-103474934D01*
X144547388Y-103439182D01*
X144542156Y-103412874D01*
X144542155Y-103412872D01*
X144539734Y-103400699D01*
X144514989Y-103363665D01*
X144490377Y-103326832D01*
X144483484Y-103316516D01*
X144399301Y-103260266D01*
X144325067Y-103245500D01*
X143100199Y-103245500D01*
X141874934Y-103245501D01*
X141839182Y-103252612D01*
X141812874Y-103257844D01*
X141812872Y-103257845D01*
X141800699Y-103260266D01*
X141790379Y-103267161D01*
X141790378Y-103267162D01*
X141745550Y-103297116D01*
X141716516Y-103316516D01*
X141660266Y-103400699D01*
X141645500Y-103474933D01*
X138611627Y-103474933D01*
X136301036Y-101164342D01*
X141640951Y-101164342D01*
X141641248Y-101169494D01*
X141641248Y-101169498D01*
X141644179Y-101220329D01*
X141654719Y-101403121D01*
X141655856Y-101408167D01*
X141655857Y-101408173D01*
X141670561Y-101473418D01*
X141707301Y-101636446D01*
X141797284Y-101858049D01*
X141799989Y-101862464D01*
X141799990Y-101862465D01*
X141810786Y-101880082D01*
X141922254Y-102061980D01*
X142078852Y-102242762D01*
X142262874Y-102395540D01*
X142267326Y-102398142D01*
X142267331Y-102398145D01*
X142423579Y-102489449D01*
X142469377Y-102516211D01*
X142692817Y-102601534D01*
X142697883Y-102602565D01*
X142697884Y-102602565D01*
X142752729Y-102613723D01*
X142927191Y-102649218D01*
X143061499Y-102654143D01*
X143161043Y-102657794D01*
X143161048Y-102657794D01*
X143166207Y-102657983D01*
X143171327Y-102657327D01*
X143171329Y-102657327D01*
X143398316Y-102628249D01*
X143398317Y-102628249D01*
X143403444Y-102627592D01*
X143408394Y-102626107D01*
X143627577Y-102560349D01*
X143627582Y-102560347D01*
X143632532Y-102558862D01*
X143847319Y-102453639D01*
X143851524Y-102450639D01*
X143851530Y-102450636D01*
X144037832Y-102317748D01*
X144037834Y-102317746D01*
X144042036Y-102314749D01*
X144211454Y-102145921D01*
X144351023Y-101951690D01*
X144367613Y-101918124D01*
X144454701Y-101741914D01*
X144454702Y-101741912D01*
X144456995Y-101737272D01*
X144512465Y-101554700D01*
X144525022Y-101513369D01*
X144525022Y-101513368D01*
X144526524Y-101508425D01*
X144529676Y-101484484D01*
X144557306Y-101274617D01*
X144557306Y-101274613D01*
X144557743Y-101271296D01*
X144558988Y-101220329D01*
X144559403Y-101203365D01*
X144559403Y-101203361D01*
X144559485Y-101200000D01*
X144539887Y-100961628D01*
X144491914Y-100770641D01*
X144482879Y-100734670D01*
X144482879Y-100734669D01*
X144481620Y-100729658D01*
X144386249Y-100510319D01*
X144256335Y-100309502D01*
X144249190Y-100301649D01*
X144098844Y-100136422D01*
X144098842Y-100136421D01*
X144095366Y-100132600D01*
X144091315Y-100129401D01*
X144091311Y-100129397D01*
X143911725Y-99987569D01*
X143907667Y-99984364D01*
X143799681Y-99924752D01*
X143702808Y-99871275D01*
X143702805Y-99871274D01*
X143698277Y-99868774D01*
X143472819Y-99788936D01*
X143424046Y-99780248D01*
X143242438Y-99747898D01*
X143242434Y-99747898D01*
X143237350Y-99746992D01*
X143153548Y-99745968D01*
X143003360Y-99744133D01*
X143003358Y-99744133D01*
X142998191Y-99744070D01*
X142839680Y-99768326D01*
X142766876Y-99779466D01*
X142766874Y-99779467D01*
X142761767Y-99780248D01*
X142729906Y-99790662D01*
X142539340Y-99852949D01*
X142539338Y-99852950D01*
X142534427Y-99854555D01*
X142502308Y-99871275D01*
X142344772Y-99953283D01*
X142322275Y-99964994D01*
X142318142Y-99968097D01*
X142318139Y-99968099D01*
X142202325Y-100055055D01*
X142131010Y-100108600D01*
X141965767Y-100281516D01*
X141962853Y-100285788D01*
X141962852Y-100285789D01*
X141952033Y-100301649D01*
X141830985Y-100479099D01*
X141780634Y-100587571D01*
X141740287Y-100674493D01*
X141730284Y-100696042D01*
X141666366Y-100926520D01*
X141665817Y-100931654D01*
X141665817Y-100931656D01*
X141662614Y-100961628D01*
X141640951Y-101164342D01*
X136301036Y-101164342D01*
X131731289Y-96594595D01*
X131697263Y-96532283D01*
X131702328Y-96461468D01*
X131744875Y-96404632D01*
X131811395Y-96379821D01*
X131820384Y-96379500D01*
X142583580Y-96379500D01*
X142607528Y-96382049D01*
X142609193Y-96382128D01*
X142619376Y-96384320D01*
X142629717Y-96383096D01*
X142652723Y-96380373D01*
X142658654Y-96380023D01*
X142658646Y-96379928D01*
X142663824Y-96379500D01*
X142669024Y-96379500D01*
X142674153Y-96378646D01*
X142674156Y-96378646D01*
X142688065Y-96376331D01*
X142693943Y-96375494D01*
X142734501Y-96370694D01*
X142734502Y-96370694D01*
X142744841Y-96369470D01*
X142753093Y-96365507D01*
X142762126Y-96364004D01*
X142771295Y-96359057D01*
X142771297Y-96359056D01*
X142807232Y-96339666D01*
X142812525Y-96336969D01*
X142851582Y-96318215D01*
X142851586Y-96318212D01*
X142858732Y-96314781D01*
X142863008Y-96311186D01*
X142864931Y-96309263D01*
X142866863Y-96307491D01*
X142866942Y-96307448D01*
X142867055Y-96307572D01*
X142867595Y-96307096D01*
X142873314Y-96304010D01*
X142909917Y-96264413D01*
X142913346Y-96260848D01*
X143646178Y-95528016D01*
X143708490Y-95493990D01*
X143737252Y-95491127D01*
X143861318Y-95493076D01*
X143861321Y-95493076D01*
X143868916Y-95493195D01*
X144023332Y-95457829D01*
X144121192Y-95408611D01*
X144158072Y-95390063D01*
X144158075Y-95390061D01*
X144164855Y-95386651D01*
X144170626Y-95381722D01*
X144170629Y-95381720D01*
X144279536Y-95288704D01*
X144279536Y-95288703D01*
X144285314Y-95283769D01*
X144377755Y-95155124D01*
X144436842Y-95008141D01*
X144459162Y-94851307D01*
X144459307Y-94837500D01*
X144440276Y-94680233D01*
X144384280Y-94532046D01*
X144294553Y-94401492D01*
X144176275Y-94296111D01*
X144168889Y-94292200D01*
X144042988Y-94225539D01*
X144042989Y-94225539D01*
X144036274Y-94221984D01*
X143882633Y-94183392D01*
X143875034Y-94183352D01*
X143875033Y-94183352D01*
X143809181Y-94183007D01*
X143724221Y-94182562D01*
X143716841Y-94184334D01*
X143716839Y-94184334D01*
X143577563Y-94217771D01*
X143577560Y-94217772D01*
X143570184Y-94219543D01*
X143429414Y-94292200D01*
X143310039Y-94396338D01*
X143218950Y-94525944D01*
X143161406Y-94673537D01*
X143140729Y-94830596D01*
X143143544Y-94856091D01*
X143146963Y-94887066D01*
X143134557Y-94956970D01*
X143110819Y-94989987D01*
X142517211Y-95583595D01*
X142454899Y-95617621D01*
X142428116Y-95620500D01*
X126699682Y-95620500D01*
X126631561Y-95600498D01*
X126605114Y-95574860D01*
X126603878Y-95575949D01*
X126598855Y-95570251D01*
X126594553Y-95563992D01*
X126476275Y-95458611D01*
X126468889Y-95454700D01*
X126342988Y-95388039D01*
X126342989Y-95388039D01*
X126336274Y-95384484D01*
X126182633Y-95345892D01*
X126175034Y-95345852D01*
X126175033Y-95345852D01*
X126109181Y-95345507D01*
X126024221Y-95345062D01*
X126016841Y-95346834D01*
X126016839Y-95346834D01*
X125877563Y-95380271D01*
X125877560Y-95380272D01*
X125870184Y-95382043D01*
X125729414Y-95454700D01*
X125610039Y-95558838D01*
X125518950Y-95688444D01*
X125461406Y-95836037D01*
X125460414Y-95843570D01*
X125460414Y-95843571D01*
X125446403Y-95950000D01*
X125440729Y-95993096D01*
X125441563Y-96000646D01*
X125442171Y-96006157D01*
X125429765Y-96076061D01*
X125381536Y-96128161D01*
X125331555Y-96145100D01*
X125324221Y-96145062D01*
X125316832Y-96146836D01*
X125177563Y-96180271D01*
X125177560Y-96180272D01*
X125170184Y-96182043D01*
X125029414Y-96254700D01*
X124910039Y-96358838D01*
X124818950Y-96488444D01*
X124801858Y-96532283D01*
X124777564Y-96594595D01*
X124761406Y-96636037D01*
X124740729Y-96793096D01*
X124179500Y-96793096D01*
X124179500Y-89853920D01*
X124182049Y-89829973D01*
X124182128Y-89828307D01*
X124184320Y-89818124D01*
X124183096Y-89807782D01*
X124183096Y-89807779D01*
X124180374Y-89784787D01*
X124180023Y-89778846D01*
X124179928Y-89778854D01*
X124179500Y-89773674D01*
X124179500Y-89768476D01*
X124176329Y-89749424D01*
X124175492Y-89743547D01*
X124170693Y-89702997D01*
X124170692Y-89702995D01*
X124169469Y-89692659D01*
X124165508Y-89684410D01*
X124164004Y-89675374D01*
X124159056Y-89666203D01*
X124139652Y-89630240D01*
X124136957Y-89624951D01*
X124118212Y-89585915D01*
X124114780Y-89578768D01*
X124111186Y-89574492D01*
X124109246Y-89572552D01*
X124107493Y-89570641D01*
X124107444Y-89570551D01*
X124107567Y-89570439D01*
X124107095Y-89569904D01*
X124104010Y-89564186D01*
X124064413Y-89527583D01*
X124060848Y-89524154D01*
X118329790Y-83793096D01*
X124740729Y-83793096D01*
X124746047Y-83841263D01*
X124755641Y-83928161D01*
X124758113Y-83950553D01*
X124760723Y-83957684D01*
X124760723Y-83957686D01*
X124798051Y-84059689D01*
X124812553Y-84099319D01*
X124816789Y-84105622D01*
X124816789Y-84105623D01*
X124849194Y-84153846D01*
X124900908Y-84230805D01*
X124906527Y-84235918D01*
X124906528Y-84235919D01*
X124917903Y-84246269D01*
X125018076Y-84337419D01*
X125157293Y-84413008D01*
X125310522Y-84453207D01*
X125394477Y-84454526D01*
X125461319Y-84455576D01*
X125461322Y-84455576D01*
X125468916Y-84455695D01*
X125623332Y-84420329D01*
X125693742Y-84384917D01*
X125758072Y-84352563D01*
X125758075Y-84352561D01*
X125764855Y-84349151D01*
X125770626Y-84344222D01*
X125770629Y-84344220D01*
X125879536Y-84251204D01*
X125879536Y-84251203D01*
X125885314Y-84246269D01*
X125977755Y-84117624D01*
X126036842Y-83970641D01*
X126059162Y-83813807D01*
X126059307Y-83800000D01*
X126040276Y-83642733D01*
X125984280Y-83494546D01*
X125959538Y-83458546D01*
X125898855Y-83370251D01*
X125898854Y-83370249D01*
X125894553Y-83363992D01*
X125821681Y-83299065D01*
X125784126Y-83238816D01*
X125779500Y-83204989D01*
X125779500Y-82974933D01*
X141645500Y-82974933D01*
X141645501Y-85425066D01*
X141652612Y-85460818D01*
X141655644Y-85476061D01*
X141660266Y-85499301D01*
X141716516Y-85583484D01*
X141800699Y-85639734D01*
X141874933Y-85654500D01*
X143099802Y-85654500D01*
X144325066Y-85654499D01*
X144360818Y-85647388D01*
X144387126Y-85642156D01*
X144387128Y-85642155D01*
X144399301Y-85639734D01*
X144409621Y-85632839D01*
X144409622Y-85632838D01*
X144473168Y-85590377D01*
X144483484Y-85583484D01*
X144539734Y-85499301D01*
X144554500Y-85425067D01*
X144554499Y-82974934D01*
X144539734Y-82900699D01*
X144483484Y-82816516D01*
X144399301Y-82760266D01*
X144325067Y-82745500D01*
X143100199Y-82745500D01*
X141874934Y-82745501D01*
X141839182Y-82752612D01*
X141812874Y-82757844D01*
X141812872Y-82757845D01*
X141800699Y-82760266D01*
X141790379Y-82767161D01*
X141790378Y-82767162D01*
X141729985Y-82807516D01*
X141716516Y-82816516D01*
X141660266Y-82900699D01*
X141645500Y-82974933D01*
X125779500Y-82974933D01*
X125779500Y-80664342D01*
X141640951Y-80664342D01*
X141641248Y-80669494D01*
X141641248Y-80669498D01*
X141649789Y-80817624D01*
X141654719Y-80903121D01*
X141655856Y-80908167D01*
X141655857Y-80908173D01*
X141665555Y-80951204D01*
X141707301Y-81136446D01*
X141797284Y-81358049D01*
X141922254Y-81561980D01*
X142078852Y-81742762D01*
X142262874Y-81895540D01*
X142267326Y-81898142D01*
X142267331Y-81898145D01*
X142464919Y-82013606D01*
X142469377Y-82016211D01*
X142692817Y-82101534D01*
X142697883Y-82102565D01*
X142697884Y-82102565D01*
X142752729Y-82113723D01*
X142927191Y-82149218D01*
X143061499Y-82154143D01*
X143161043Y-82157794D01*
X143161048Y-82157794D01*
X143166207Y-82157983D01*
X143171327Y-82157327D01*
X143171329Y-82157327D01*
X143398316Y-82128249D01*
X143398317Y-82128249D01*
X143403444Y-82127592D01*
X143408394Y-82126107D01*
X143627577Y-82060349D01*
X143627582Y-82060347D01*
X143632532Y-82058862D01*
X143847319Y-81953639D01*
X143851524Y-81950639D01*
X143851530Y-81950636D01*
X144037832Y-81817748D01*
X144037834Y-81817746D01*
X144042036Y-81814749D01*
X144211454Y-81645921D01*
X144351023Y-81451690D01*
X144372328Y-81408584D01*
X144454701Y-81241914D01*
X144454702Y-81241912D01*
X144456995Y-81237272D01*
X144526524Y-81008425D01*
X144527199Y-81003299D01*
X144557306Y-80774617D01*
X144557306Y-80774613D01*
X144557743Y-80771296D01*
X144559485Y-80700000D01*
X144539887Y-80461628D01*
X144481620Y-80229658D01*
X144408400Y-80061263D01*
X144388309Y-80015056D01*
X144388307Y-80015053D01*
X144386249Y-80010319D01*
X144256335Y-79809502D01*
X144252687Y-79805492D01*
X144098844Y-79636422D01*
X144098842Y-79636421D01*
X144095366Y-79632600D01*
X144091315Y-79629401D01*
X144091311Y-79629397D01*
X143911725Y-79487569D01*
X143907667Y-79484364D01*
X143698277Y-79368774D01*
X143472819Y-79288936D01*
X143424046Y-79280248D01*
X143242438Y-79247898D01*
X143242434Y-79247898D01*
X143237350Y-79246992D01*
X143153548Y-79245968D01*
X143003360Y-79244133D01*
X143003358Y-79244133D01*
X142998191Y-79244070D01*
X142839680Y-79268326D01*
X142766876Y-79279466D01*
X142766874Y-79279467D01*
X142761767Y-79280248D01*
X142729906Y-79290662D01*
X142539340Y-79352949D01*
X142539338Y-79352950D01*
X142534427Y-79354555D01*
X142322275Y-79464994D01*
X142318142Y-79468097D01*
X142318139Y-79468099D01*
X142135145Y-79605495D01*
X142131010Y-79608600D01*
X142080171Y-79661800D01*
X142009903Y-79735331D01*
X141965767Y-79781516D01*
X141962853Y-79785788D01*
X141962852Y-79785789D01*
X141921880Y-79845852D01*
X141830985Y-79979099D01*
X141730284Y-80196042D01*
X141666366Y-80426520D01*
X141665817Y-80431654D01*
X141665817Y-80431656D01*
X141662614Y-80461628D01*
X141640951Y-80664342D01*
X125779500Y-80664342D01*
X125779500Y-80129384D01*
X125799502Y-80061263D01*
X125816405Y-80040289D01*
X131294107Y-74562587D01*
X131356419Y-74528561D01*
X131432941Y-74535915D01*
X131477228Y-74554942D01*
X131550244Y-74571464D01*
X131669579Y-74598467D01*
X131669584Y-74598468D01*
X131675216Y-74599742D01*
X131680987Y-74599969D01*
X131680989Y-74599969D01*
X131740756Y-74602317D01*
X131878053Y-74607712D01*
X131988596Y-74591684D01*
X132073231Y-74579413D01*
X132073236Y-74579412D01*
X132078945Y-74578584D01*
X132084409Y-74576729D01*
X132084414Y-74576728D01*
X132265693Y-74515192D01*
X132265698Y-74515190D01*
X132271165Y-74513334D01*
X132448276Y-74414147D01*
X132488029Y-74381085D01*
X132599913Y-74288031D01*
X132604345Y-74284345D01*
X132698964Y-74170579D01*
X132730453Y-74132718D01*
X132730455Y-74132715D01*
X132734147Y-74128276D01*
X132833334Y-73951165D01*
X132835190Y-73945698D01*
X132835192Y-73945693D01*
X132896728Y-73764414D01*
X132896729Y-73764409D01*
X132898584Y-73758945D01*
X132899412Y-73753236D01*
X132899413Y-73753231D01*
X132927179Y-73561727D01*
X132927712Y-73558053D01*
X132929232Y-73500000D01*
X132926564Y-73470964D01*
X133251148Y-73470964D01*
X133264424Y-73673522D01*
X133265845Y-73679118D01*
X133265846Y-73679123D01*
X133290741Y-73777146D01*
X133314392Y-73870269D01*
X133316807Y-73875507D01*
X133316809Y-73875512D01*
X133353754Y-73955652D01*
X133399377Y-74054616D01*
X133516533Y-74220389D01*
X133661938Y-74362035D01*
X133830720Y-74474812D01*
X133836023Y-74477090D01*
X133836026Y-74477092D01*
X133924707Y-74515192D01*
X134017228Y-74554942D01*
X134090244Y-74571464D01*
X134209579Y-74598467D01*
X134209584Y-74598468D01*
X134215216Y-74599742D01*
X134220987Y-74599969D01*
X134220989Y-74599969D01*
X134280756Y-74602317D01*
X134418053Y-74607712D01*
X134528596Y-74591684D01*
X134613231Y-74579413D01*
X134613236Y-74579412D01*
X134618945Y-74578584D01*
X134624409Y-74576729D01*
X134624414Y-74576728D01*
X134805693Y-74515192D01*
X134805698Y-74515190D01*
X134811165Y-74513334D01*
X134988276Y-74414147D01*
X135028029Y-74381085D01*
X135139913Y-74288031D01*
X135144345Y-74284345D01*
X135238964Y-74170579D01*
X135270453Y-74132718D01*
X135270455Y-74132715D01*
X135274147Y-74128276D01*
X135373334Y-73951165D01*
X135375190Y-73945698D01*
X135375192Y-73945693D01*
X135436728Y-73764414D01*
X135436729Y-73764409D01*
X135438584Y-73758945D01*
X135439412Y-73753236D01*
X135439413Y-73753231D01*
X135467179Y-73561727D01*
X135467712Y-73558053D01*
X135469232Y-73500000D01*
X135450658Y-73297859D01*
X135449090Y-73292299D01*
X135397125Y-73108046D01*
X135397124Y-73108044D01*
X135395557Y-73102487D01*
X135384978Y-73081033D01*
X135308331Y-72925609D01*
X135305776Y-72920428D01*
X135184320Y-72757779D01*
X135035258Y-72619987D01*
X135030375Y-72616906D01*
X135030371Y-72616903D01*
X134868464Y-72514748D01*
X134863581Y-72511667D01*
X134675039Y-72436446D01*
X134669379Y-72435320D01*
X134669375Y-72435319D01*
X134481613Y-72397971D01*
X134481610Y-72397971D01*
X134475946Y-72396844D01*
X134470171Y-72396768D01*
X134470167Y-72396768D01*
X134368793Y-72395441D01*
X134272971Y-72394187D01*
X134267274Y-72395166D01*
X134267273Y-72395166D01*
X134136530Y-72417632D01*
X134072910Y-72428564D01*
X133882463Y-72498824D01*
X133708010Y-72602612D01*
X133703670Y-72606418D01*
X133703666Y-72606421D01*
X133559733Y-72732648D01*
X133555392Y-72736455D01*
X133429720Y-72895869D01*
X133427031Y-72900980D01*
X133427029Y-72900983D01*
X133414073Y-72925609D01*
X133335203Y-73075515D01*
X133275007Y-73269378D01*
X133251148Y-73470964D01*
X132926564Y-73470964D01*
X132910658Y-73297859D01*
X132909090Y-73292299D01*
X132857125Y-73108046D01*
X132857124Y-73108044D01*
X132855557Y-73102487D01*
X132844978Y-73081033D01*
X132768331Y-72925609D01*
X132765776Y-72920428D01*
X132644320Y-72757779D01*
X132495258Y-72619987D01*
X132490375Y-72616906D01*
X132490371Y-72616903D01*
X132328464Y-72514748D01*
X132323581Y-72511667D01*
X132135039Y-72436446D01*
X132129379Y-72435320D01*
X132129375Y-72435319D01*
X131941613Y-72397971D01*
X131941610Y-72397971D01*
X131935946Y-72396844D01*
X131930171Y-72396768D01*
X131930167Y-72396768D01*
X131828793Y-72395441D01*
X131732971Y-72394187D01*
X131727274Y-72395166D01*
X131727273Y-72395166D01*
X131596530Y-72417632D01*
X131532910Y-72428564D01*
X131342463Y-72498824D01*
X131168010Y-72602612D01*
X131163670Y-72606418D01*
X131163666Y-72606421D01*
X131019733Y-72732648D01*
X131015392Y-72736455D01*
X130889720Y-72895869D01*
X130887031Y-72900980D01*
X130887029Y-72900983D01*
X130874073Y-72925609D01*
X130795203Y-73075515D01*
X130735007Y-73269378D01*
X130711148Y-73470964D01*
X130724424Y-73673522D01*
X130725845Y-73679118D01*
X130725846Y-73679123D01*
X130750741Y-73777146D01*
X130774392Y-73870269D01*
X130781375Y-73885417D01*
X130791730Y-73955652D01*
X130762468Y-74020338D01*
X130756044Y-74027262D01*
X125169784Y-79613522D01*
X125151036Y-79628664D01*
X125149811Y-79629779D01*
X125141060Y-79635429D01*
X125134613Y-79643607D01*
X125134611Y-79643609D01*
X125120271Y-79661800D01*
X125116325Y-79666241D01*
X125116398Y-79666303D01*
X125113039Y-79670267D01*
X125109362Y-79673944D01*
X125098108Y-79689692D01*
X125094602Y-79694362D01*
X125062844Y-79734647D01*
X125059812Y-79743281D01*
X125054486Y-79750734D01*
X125051501Y-79760715D01*
X125039799Y-79799844D01*
X125037964Y-79805492D01*
X125036556Y-79809502D01*
X125020982Y-79853851D01*
X125020500Y-79859416D01*
X125020500Y-79862124D01*
X125020386Y-79864758D01*
X125020357Y-79864856D01*
X125020193Y-79864849D01*
X125020149Y-79865553D01*
X125018287Y-79871778D01*
X125018696Y-79882183D01*
X125020403Y-79925635D01*
X125020500Y-79930582D01*
X125020500Y-83205187D01*
X125000498Y-83273308D01*
X124977330Y-83300135D01*
X124910039Y-83358838D01*
X124818950Y-83488444D01*
X124761406Y-83636037D01*
X124740729Y-83793096D01*
X118329790Y-83793096D01*
X118106478Y-83569784D01*
X118091336Y-83551036D01*
X118090221Y-83549811D01*
X118084571Y-83541060D01*
X118076393Y-83534613D01*
X118076391Y-83534611D01*
X118058200Y-83520271D01*
X118053759Y-83516325D01*
X118053697Y-83516398D01*
X118049733Y-83513039D01*
X118046056Y-83509362D01*
X118030308Y-83498108D01*
X118025638Y-83494602D01*
X117985353Y-83462844D01*
X117976719Y-83459812D01*
X117969266Y-83454486D01*
X117920150Y-83439797D01*
X117914508Y-83437964D01*
X117873633Y-83423610D01*
X117873632Y-83423610D01*
X117866149Y-83420982D01*
X117860584Y-83420500D01*
X117857876Y-83420500D01*
X117855242Y-83420386D01*
X117855144Y-83420357D01*
X117855151Y-83420193D01*
X117854447Y-83420149D01*
X117848222Y-83418287D01*
X117828001Y-83419081D01*
X117804358Y-83420010D01*
X117735504Y-83402697D01*
X117705381Y-83374624D01*
X117703878Y-83375949D01*
X117698855Y-83370251D01*
X117694553Y-83363992D01*
X117576275Y-83258611D01*
X117568889Y-83254700D01*
X117442988Y-83188039D01*
X117442989Y-83188039D01*
X117436274Y-83184484D01*
X117282633Y-83145892D01*
X117275034Y-83145852D01*
X117275033Y-83145852D01*
X117209181Y-83145507D01*
X117124221Y-83145062D01*
X117116841Y-83146834D01*
X117116839Y-83146834D01*
X116977563Y-83180271D01*
X116977560Y-83180272D01*
X116970184Y-83182043D01*
X116829414Y-83254700D01*
X116710039Y-83358838D01*
X116618950Y-83488444D01*
X116561406Y-83636037D01*
X116540729Y-83793096D01*
X116541563Y-83800646D01*
X116542171Y-83806157D01*
X116529765Y-83876061D01*
X116481536Y-83928161D01*
X116431555Y-83945100D01*
X116424221Y-83945062D01*
X116416832Y-83946836D01*
X116277563Y-83980271D01*
X116277560Y-83980272D01*
X116270184Y-83982043D01*
X116129414Y-84054700D01*
X116010039Y-84158838D01*
X115918950Y-84288444D01*
X115898443Y-84341042D01*
X115869634Y-84414934D01*
X115861406Y-84436037D01*
X115860414Y-84443570D01*
X115860414Y-84443571D01*
X115859146Y-84453207D01*
X115840729Y-84593096D01*
X115858113Y-84750553D01*
X115912553Y-84899319D01*
X116000908Y-85030805D01*
X116118076Y-85137419D01*
X116257293Y-85213008D01*
X116410522Y-85253207D01*
X116418122Y-85253326D01*
X116425640Y-85254356D01*
X116425454Y-85255711D01*
X116485561Y-85274393D01*
X116531203Y-85328775D01*
X116541772Y-85380623D01*
X116541720Y-85385568D01*
X116540729Y-85393096D01*
X116541562Y-85400641D01*
X116541562Y-85400645D01*
X116542171Y-85406157D01*
X116529765Y-85476061D01*
X116481536Y-85528161D01*
X116431555Y-85545100D01*
X116424221Y-85545062D01*
X116416832Y-85546836D01*
X116277563Y-85580271D01*
X116277560Y-85580272D01*
X116270184Y-85582043D01*
X116129414Y-85654700D01*
X116010039Y-85758838D01*
X115918950Y-85888444D01*
X115861406Y-86036037D01*
X115840729Y-86193096D01*
X115379500Y-86193096D01*
X115379500Y-83909384D01*
X115399502Y-83841263D01*
X115416405Y-83820289D01*
X118046178Y-81190516D01*
X118108490Y-81156490D01*
X118137252Y-81153627D01*
X118261318Y-81155576D01*
X118261321Y-81155576D01*
X118268916Y-81155695D01*
X118423332Y-81120329D01*
X118493742Y-81084917D01*
X118558072Y-81052563D01*
X118558075Y-81052561D01*
X118564855Y-81049151D01*
X118570626Y-81044222D01*
X118570629Y-81044220D01*
X118679536Y-80951204D01*
X118679536Y-80951203D01*
X118685314Y-80946269D01*
X118777755Y-80817624D01*
X118836842Y-80670641D01*
X118859162Y-80513807D01*
X118859307Y-80500000D01*
X118840276Y-80342733D01*
X118784280Y-80194546D01*
X118739496Y-80129384D01*
X118698855Y-80070251D01*
X118698854Y-80070249D01*
X118694553Y-80063992D01*
X118576275Y-79958611D01*
X118568889Y-79954700D01*
X118523338Y-79930582D01*
X118436274Y-79884484D01*
X118282633Y-79845892D01*
X118275034Y-79845852D01*
X118275033Y-79845852D01*
X118209181Y-79845507D01*
X118124221Y-79845062D01*
X118116841Y-79846834D01*
X118116839Y-79846834D01*
X117977563Y-79880271D01*
X117977560Y-79880272D01*
X117970184Y-79882043D01*
X117829414Y-79954700D01*
X117710039Y-80058838D01*
X117618950Y-80188444D01*
X117561406Y-80336037D01*
X117560414Y-80343570D01*
X117560414Y-80343571D01*
X117544872Y-80461628D01*
X117540729Y-80493096D01*
X117543544Y-80518591D01*
X117546963Y-80549566D01*
X117534557Y-80619470D01*
X117510819Y-80652487D01*
X114943228Y-83220078D01*
X114880916Y-83254104D01*
X114810101Y-83249039D01*
X114753265Y-83206492D01*
X114728454Y-83139972D01*
X114728133Y-83130983D01*
X114728133Y-76471082D01*
X114748135Y-76402961D01*
X114765038Y-76381987D01*
X116504074Y-74642951D01*
X116566386Y-74608925D01*
X116598115Y-74606143D01*
X116612535Y-74606709D01*
X116638053Y-74607712D01*
X116748596Y-74591684D01*
X116833231Y-74579413D01*
X116833236Y-74579412D01*
X116838945Y-74578584D01*
X116844409Y-74576729D01*
X116844414Y-74576728D01*
X117025693Y-74515192D01*
X117025698Y-74515190D01*
X117031165Y-74513334D01*
X117208276Y-74414147D01*
X117248029Y-74381085D01*
X117359913Y-74288031D01*
X117364345Y-74284345D01*
X117458964Y-74170579D01*
X117490453Y-74132718D01*
X117490455Y-74132715D01*
X117494147Y-74128276D01*
X117593334Y-73951165D01*
X117595190Y-73945698D01*
X117595192Y-73945693D01*
X117656728Y-73764414D01*
X117656729Y-73764409D01*
X117658584Y-73758945D01*
X117659412Y-73753236D01*
X117659413Y-73753231D01*
X117687179Y-73561727D01*
X117687712Y-73558053D01*
X117689232Y-73500000D01*
X117686564Y-73470964D01*
X118011148Y-73470964D01*
X118024424Y-73673522D01*
X118025845Y-73679118D01*
X118025846Y-73679123D01*
X118050741Y-73777146D01*
X118074392Y-73870269D01*
X118076807Y-73875507D01*
X118076809Y-73875512D01*
X118113754Y-73955652D01*
X118159377Y-74054616D01*
X118276533Y-74220389D01*
X118421938Y-74362035D01*
X118590720Y-74474812D01*
X118596023Y-74477090D01*
X118596026Y-74477092D01*
X118684707Y-74515192D01*
X118777228Y-74554942D01*
X118850244Y-74571464D01*
X118969579Y-74598467D01*
X118969584Y-74598468D01*
X118975216Y-74599742D01*
X118980987Y-74599969D01*
X118980989Y-74599969D01*
X119040756Y-74602317D01*
X119178053Y-74607712D01*
X119288596Y-74591684D01*
X119373231Y-74579413D01*
X119373236Y-74579412D01*
X119378945Y-74578584D01*
X119384409Y-74576729D01*
X119384414Y-74576728D01*
X119565693Y-74515192D01*
X119565698Y-74515190D01*
X119571165Y-74513334D01*
X119748276Y-74414147D01*
X119788029Y-74381085D01*
X119899913Y-74288031D01*
X119904345Y-74284345D01*
X119998964Y-74170579D01*
X120030453Y-74132718D01*
X120030455Y-74132715D01*
X120034147Y-74128276D01*
X120133334Y-73951165D01*
X120135190Y-73945698D01*
X120135192Y-73945693D01*
X120196728Y-73764414D01*
X120196729Y-73764409D01*
X120198584Y-73758945D01*
X120199412Y-73753236D01*
X120199413Y-73753231D01*
X120227179Y-73561727D01*
X120227712Y-73558053D01*
X120229232Y-73500000D01*
X120226564Y-73470964D01*
X120551148Y-73470964D01*
X120564424Y-73673522D01*
X120565845Y-73679118D01*
X120565846Y-73679123D01*
X120590741Y-73777146D01*
X120614392Y-73870269D01*
X120616807Y-73875507D01*
X120616809Y-73875512D01*
X120653754Y-73955652D01*
X120699377Y-74054616D01*
X120816533Y-74220389D01*
X120961938Y-74362035D01*
X121130720Y-74474812D01*
X121136023Y-74477090D01*
X121136026Y-74477092D01*
X121224707Y-74515192D01*
X121317228Y-74554942D01*
X121390244Y-74571464D01*
X121509579Y-74598467D01*
X121509584Y-74598468D01*
X121515216Y-74599742D01*
X121520987Y-74599969D01*
X121520989Y-74599969D01*
X121580756Y-74602317D01*
X121718053Y-74607712D01*
X121828596Y-74591684D01*
X121913231Y-74579413D01*
X121913236Y-74579412D01*
X121918945Y-74578584D01*
X121924409Y-74576729D01*
X121924414Y-74576728D01*
X122105693Y-74515192D01*
X122105698Y-74515190D01*
X122111165Y-74513334D01*
X122288276Y-74414147D01*
X122328029Y-74381085D01*
X122439913Y-74288031D01*
X122444345Y-74284345D01*
X122538964Y-74170579D01*
X122570453Y-74132718D01*
X122570455Y-74132715D01*
X122574147Y-74128276D01*
X122673334Y-73951165D01*
X122675190Y-73945698D01*
X122675192Y-73945693D01*
X122736728Y-73764414D01*
X122736729Y-73764409D01*
X122738584Y-73758945D01*
X122739412Y-73753236D01*
X122739413Y-73753231D01*
X122767179Y-73561727D01*
X122767712Y-73558053D01*
X122769232Y-73500000D01*
X122766564Y-73470964D01*
X123091148Y-73470964D01*
X123104424Y-73673522D01*
X123105845Y-73679118D01*
X123105846Y-73679123D01*
X123130741Y-73777146D01*
X123154392Y-73870269D01*
X123156807Y-73875507D01*
X123156809Y-73875512D01*
X123193754Y-73955652D01*
X123239377Y-74054616D01*
X123356533Y-74220389D01*
X123501938Y-74362035D01*
X123670720Y-74474812D01*
X123676023Y-74477090D01*
X123676026Y-74477092D01*
X123764707Y-74515192D01*
X123857228Y-74554942D01*
X123930244Y-74571464D01*
X124049579Y-74598467D01*
X124049584Y-74598468D01*
X124055216Y-74599742D01*
X124060987Y-74599969D01*
X124060989Y-74599969D01*
X124120756Y-74602317D01*
X124258053Y-74607712D01*
X124368596Y-74591684D01*
X124453231Y-74579413D01*
X124453236Y-74579412D01*
X124458945Y-74578584D01*
X124464409Y-74576729D01*
X124464414Y-74576728D01*
X124645693Y-74515192D01*
X124645698Y-74515190D01*
X124651165Y-74513334D01*
X124828276Y-74414147D01*
X124868029Y-74381085D01*
X124979913Y-74288031D01*
X124984345Y-74284345D01*
X125078964Y-74170579D01*
X125110453Y-74132718D01*
X125110455Y-74132715D01*
X125114147Y-74128276D01*
X125213334Y-73951165D01*
X125215190Y-73945698D01*
X125215192Y-73945693D01*
X125276728Y-73764414D01*
X125276729Y-73764409D01*
X125278584Y-73758945D01*
X125279412Y-73753236D01*
X125279413Y-73753231D01*
X125307179Y-73561727D01*
X125307712Y-73558053D01*
X125309232Y-73500000D01*
X125306564Y-73470964D01*
X125631148Y-73470964D01*
X125644424Y-73673522D01*
X125645845Y-73679118D01*
X125645846Y-73679123D01*
X125670741Y-73777146D01*
X125694392Y-73870269D01*
X125696807Y-73875507D01*
X125696809Y-73875512D01*
X125733754Y-73955652D01*
X125779377Y-74054616D01*
X125896533Y-74220389D01*
X126041938Y-74362035D01*
X126210720Y-74474812D01*
X126216023Y-74477090D01*
X126216026Y-74477092D01*
X126304707Y-74515192D01*
X126397228Y-74554942D01*
X126470244Y-74571464D01*
X126589579Y-74598467D01*
X126589584Y-74598468D01*
X126595216Y-74599742D01*
X126600987Y-74599969D01*
X126600989Y-74599969D01*
X126660756Y-74602317D01*
X126798053Y-74607712D01*
X126908596Y-74591684D01*
X126993231Y-74579413D01*
X126993236Y-74579412D01*
X126998945Y-74578584D01*
X127004409Y-74576729D01*
X127004414Y-74576728D01*
X127185693Y-74515192D01*
X127185698Y-74515190D01*
X127191165Y-74513334D01*
X127368276Y-74414147D01*
X127408029Y-74381085D01*
X127519913Y-74288031D01*
X127524345Y-74284345D01*
X127618964Y-74170579D01*
X127650453Y-74132718D01*
X127650455Y-74132715D01*
X127654147Y-74128276D01*
X127753334Y-73951165D01*
X127755190Y-73945698D01*
X127755192Y-73945693D01*
X127816728Y-73764414D01*
X127816729Y-73764409D01*
X127818584Y-73758945D01*
X127819412Y-73753236D01*
X127819413Y-73753231D01*
X127847179Y-73561727D01*
X127847712Y-73558053D01*
X127849232Y-73500000D01*
X127846564Y-73470964D01*
X128171148Y-73470964D01*
X128184424Y-73673522D01*
X128185845Y-73679118D01*
X128185846Y-73679123D01*
X128210741Y-73777146D01*
X128234392Y-73870269D01*
X128236807Y-73875507D01*
X128236809Y-73875512D01*
X128273754Y-73955652D01*
X128319377Y-74054616D01*
X128436533Y-74220389D01*
X128581938Y-74362035D01*
X128750720Y-74474812D01*
X128756023Y-74477090D01*
X128756026Y-74477092D01*
X128844707Y-74515192D01*
X128937228Y-74554942D01*
X129010244Y-74571464D01*
X129129579Y-74598467D01*
X129129584Y-74598468D01*
X129135216Y-74599742D01*
X129140987Y-74599969D01*
X129140989Y-74599969D01*
X129200756Y-74602317D01*
X129338053Y-74607712D01*
X129448596Y-74591684D01*
X129533231Y-74579413D01*
X129533236Y-74579412D01*
X129538945Y-74578584D01*
X129544409Y-74576729D01*
X129544414Y-74576728D01*
X129725693Y-74515192D01*
X129725698Y-74515190D01*
X129731165Y-74513334D01*
X129908276Y-74414147D01*
X129948029Y-74381085D01*
X130059913Y-74288031D01*
X130064345Y-74284345D01*
X130158964Y-74170579D01*
X130190453Y-74132718D01*
X130190455Y-74132715D01*
X130194147Y-74128276D01*
X130293334Y-73951165D01*
X130295190Y-73945698D01*
X130295192Y-73945693D01*
X130356728Y-73764414D01*
X130356729Y-73764409D01*
X130358584Y-73758945D01*
X130359412Y-73753236D01*
X130359413Y-73753231D01*
X130387179Y-73561727D01*
X130387712Y-73558053D01*
X130389232Y-73500000D01*
X130370658Y-73297859D01*
X130369090Y-73292299D01*
X130317125Y-73108046D01*
X130317124Y-73108044D01*
X130315557Y-73102487D01*
X130304978Y-73081033D01*
X130228331Y-72925609D01*
X130225776Y-72920428D01*
X130104320Y-72757779D01*
X129955258Y-72619987D01*
X129950375Y-72616906D01*
X129950371Y-72616903D01*
X129788464Y-72514748D01*
X129783581Y-72511667D01*
X129595039Y-72436446D01*
X129589379Y-72435320D01*
X129589375Y-72435319D01*
X129401613Y-72397971D01*
X129401610Y-72397971D01*
X129395946Y-72396844D01*
X129390171Y-72396768D01*
X129390167Y-72396768D01*
X129288793Y-72395441D01*
X129192971Y-72394187D01*
X129187274Y-72395166D01*
X129187273Y-72395166D01*
X129056530Y-72417632D01*
X128992910Y-72428564D01*
X128802463Y-72498824D01*
X128628010Y-72602612D01*
X128623670Y-72606418D01*
X128623666Y-72606421D01*
X128479733Y-72732648D01*
X128475392Y-72736455D01*
X128349720Y-72895869D01*
X128347031Y-72900980D01*
X128347029Y-72900983D01*
X128334073Y-72925609D01*
X128255203Y-73075515D01*
X128195007Y-73269378D01*
X128171148Y-73470964D01*
X127846564Y-73470964D01*
X127830658Y-73297859D01*
X127829090Y-73292299D01*
X127777125Y-73108046D01*
X127777124Y-73108044D01*
X127775557Y-73102487D01*
X127764978Y-73081033D01*
X127688331Y-72925609D01*
X127685776Y-72920428D01*
X127564320Y-72757779D01*
X127415258Y-72619987D01*
X127410375Y-72616906D01*
X127410371Y-72616903D01*
X127248464Y-72514748D01*
X127243581Y-72511667D01*
X127055039Y-72436446D01*
X127049379Y-72435320D01*
X127049375Y-72435319D01*
X126861613Y-72397971D01*
X126861610Y-72397971D01*
X126855946Y-72396844D01*
X126850171Y-72396768D01*
X126850167Y-72396768D01*
X126748793Y-72395441D01*
X126652971Y-72394187D01*
X126647274Y-72395166D01*
X126647273Y-72395166D01*
X126516530Y-72417632D01*
X126452910Y-72428564D01*
X126262463Y-72498824D01*
X126088010Y-72602612D01*
X126083670Y-72606418D01*
X126083666Y-72606421D01*
X125939733Y-72732648D01*
X125935392Y-72736455D01*
X125809720Y-72895869D01*
X125807031Y-72900980D01*
X125807029Y-72900983D01*
X125794073Y-72925609D01*
X125715203Y-73075515D01*
X125655007Y-73269378D01*
X125631148Y-73470964D01*
X125306564Y-73470964D01*
X125290658Y-73297859D01*
X125289090Y-73292299D01*
X125237125Y-73108046D01*
X125237124Y-73108044D01*
X125235557Y-73102487D01*
X125224978Y-73081033D01*
X125148331Y-72925609D01*
X125145776Y-72920428D01*
X125024320Y-72757779D01*
X124875258Y-72619987D01*
X124870375Y-72616906D01*
X124870371Y-72616903D01*
X124708464Y-72514748D01*
X124703581Y-72511667D01*
X124515039Y-72436446D01*
X124509379Y-72435320D01*
X124509375Y-72435319D01*
X124321613Y-72397971D01*
X124321610Y-72397971D01*
X124315946Y-72396844D01*
X124310171Y-72396768D01*
X124310167Y-72396768D01*
X124208793Y-72395441D01*
X124112971Y-72394187D01*
X124107274Y-72395166D01*
X124107273Y-72395166D01*
X123976530Y-72417632D01*
X123912910Y-72428564D01*
X123722463Y-72498824D01*
X123548010Y-72602612D01*
X123543670Y-72606418D01*
X123543666Y-72606421D01*
X123399733Y-72732648D01*
X123395392Y-72736455D01*
X123269720Y-72895869D01*
X123267031Y-72900980D01*
X123267029Y-72900983D01*
X123254073Y-72925609D01*
X123175203Y-73075515D01*
X123115007Y-73269378D01*
X123091148Y-73470964D01*
X122766564Y-73470964D01*
X122750658Y-73297859D01*
X122749090Y-73292299D01*
X122697125Y-73108046D01*
X122697124Y-73108044D01*
X122695557Y-73102487D01*
X122684978Y-73081033D01*
X122608331Y-72925609D01*
X122605776Y-72920428D01*
X122484320Y-72757779D01*
X122335258Y-72619987D01*
X122330375Y-72616906D01*
X122330371Y-72616903D01*
X122168464Y-72514748D01*
X122163581Y-72511667D01*
X121975039Y-72436446D01*
X121969379Y-72435320D01*
X121969375Y-72435319D01*
X121781613Y-72397971D01*
X121781610Y-72397971D01*
X121775946Y-72396844D01*
X121770171Y-72396768D01*
X121770167Y-72396768D01*
X121668793Y-72395441D01*
X121572971Y-72394187D01*
X121567274Y-72395166D01*
X121567273Y-72395166D01*
X121436530Y-72417632D01*
X121372910Y-72428564D01*
X121182463Y-72498824D01*
X121008010Y-72602612D01*
X121003670Y-72606418D01*
X121003666Y-72606421D01*
X120859733Y-72732648D01*
X120855392Y-72736455D01*
X120729720Y-72895869D01*
X120727031Y-72900980D01*
X120727029Y-72900983D01*
X120714073Y-72925609D01*
X120635203Y-73075515D01*
X120575007Y-73269378D01*
X120551148Y-73470964D01*
X120226564Y-73470964D01*
X120210658Y-73297859D01*
X120209090Y-73292299D01*
X120157125Y-73108046D01*
X120157124Y-73108044D01*
X120155557Y-73102487D01*
X120144978Y-73081033D01*
X120068331Y-72925609D01*
X120065776Y-72920428D01*
X119944320Y-72757779D01*
X119795258Y-72619987D01*
X119790375Y-72616906D01*
X119790371Y-72616903D01*
X119628464Y-72514748D01*
X119623581Y-72511667D01*
X119435039Y-72436446D01*
X119429379Y-72435320D01*
X119429375Y-72435319D01*
X119241613Y-72397971D01*
X119241610Y-72397971D01*
X119235946Y-72396844D01*
X119230171Y-72396768D01*
X119230167Y-72396768D01*
X119128793Y-72395441D01*
X119032971Y-72394187D01*
X119027274Y-72395166D01*
X119027273Y-72395166D01*
X118896530Y-72417632D01*
X118832910Y-72428564D01*
X118642463Y-72498824D01*
X118468010Y-72602612D01*
X118463670Y-72606418D01*
X118463666Y-72606421D01*
X118319733Y-72732648D01*
X118315392Y-72736455D01*
X118189720Y-72895869D01*
X118187031Y-72900980D01*
X118187029Y-72900983D01*
X118174073Y-72925609D01*
X118095203Y-73075515D01*
X118035007Y-73269378D01*
X118011148Y-73470964D01*
X117686564Y-73470964D01*
X117670658Y-73297859D01*
X117669090Y-73292299D01*
X117617125Y-73108046D01*
X117617124Y-73108044D01*
X117615557Y-73102487D01*
X117604978Y-73081033D01*
X117528331Y-72925609D01*
X117525776Y-72920428D01*
X117404320Y-72757779D01*
X117255258Y-72619987D01*
X117250375Y-72616906D01*
X117250371Y-72616903D01*
X117088464Y-72514748D01*
X117083581Y-72511667D01*
X116895039Y-72436446D01*
X116889379Y-72435320D01*
X116889375Y-72435319D01*
X116701613Y-72397971D01*
X116701610Y-72397971D01*
X116695946Y-72396844D01*
X116690171Y-72396768D01*
X116690167Y-72396768D01*
X116588793Y-72395441D01*
X116492971Y-72394187D01*
X116487274Y-72395166D01*
X116487273Y-72395166D01*
X116356530Y-72417632D01*
X116292910Y-72428564D01*
X116102463Y-72498824D01*
X115928010Y-72602612D01*
X115923670Y-72606418D01*
X115923666Y-72606421D01*
X115779733Y-72732648D01*
X115775392Y-72736455D01*
X115649720Y-72895869D01*
X115647031Y-72900980D01*
X115647029Y-72900983D01*
X115634073Y-72925609D01*
X115555203Y-73075515D01*
X115495007Y-73269378D01*
X115471148Y-73470964D01*
X115471526Y-73476730D01*
X115471526Y-73476733D01*
X115471773Y-73480504D01*
X115471381Y-73482254D01*
X115471375Y-73482500D01*
X115471327Y-73482499D01*
X115456268Y-73549787D01*
X115435138Y-73577838D01*
X115362770Y-73650206D01*
X115300458Y-73684232D01*
X115229643Y-73679167D01*
X115172807Y-73636620D01*
X115147996Y-73570100D01*
X115147718Y-73557812D01*
X115149135Y-73503704D01*
X115149232Y-73500000D01*
X115130658Y-73297859D01*
X115129090Y-73292299D01*
X115077125Y-73108046D01*
X115077124Y-73108044D01*
X115075557Y-73102487D01*
X115064978Y-73081033D01*
X114988331Y-72925609D01*
X114985776Y-72920428D01*
X114864320Y-72757779D01*
X114715258Y-72619987D01*
X114710375Y-72616906D01*
X114710371Y-72616903D01*
X114548464Y-72514748D01*
X114543581Y-72511667D01*
X114355039Y-72436446D01*
X114349379Y-72435320D01*
X114349375Y-72435319D01*
X114161613Y-72397971D01*
X114161610Y-72397971D01*
X114155946Y-72396844D01*
X114150171Y-72396768D01*
X114150167Y-72396768D01*
X114048793Y-72395441D01*
X113952971Y-72394187D01*
X113947274Y-72395166D01*
X113947273Y-72395166D01*
X113816530Y-72417632D01*
X113752910Y-72428564D01*
X113562463Y-72498824D01*
X113388010Y-72602612D01*
X113383670Y-72606418D01*
X113383666Y-72606421D01*
X113239733Y-72732648D01*
X113235392Y-72736455D01*
X113109720Y-72895869D01*
X113107031Y-72900980D01*
X113107029Y-72900983D01*
X113094073Y-72925609D01*
X113015203Y-73075515D01*
X112955007Y-73269378D01*
X112931148Y-73470964D01*
X112944424Y-73673522D01*
X112945845Y-73679118D01*
X112945846Y-73679123D01*
X112970741Y-73777146D01*
X112994392Y-73870269D01*
X112996807Y-73875507D01*
X112996809Y-73875512D01*
X113033754Y-73955652D01*
X113079377Y-74054616D01*
X113196533Y-74220389D01*
X113341938Y-74362035D01*
X113510720Y-74474812D01*
X113516023Y-74477090D01*
X113516026Y-74477092D01*
X113604707Y-74515192D01*
X113697228Y-74554942D01*
X113770244Y-74571464D01*
X113889579Y-74598467D01*
X113889584Y-74598468D01*
X113895216Y-74599742D01*
X113900987Y-74599969D01*
X113900989Y-74599969D01*
X113956585Y-74602153D01*
X114096287Y-74607643D01*
X114096289Y-74607643D01*
X114098053Y-74607712D01*
X114098039Y-74608059D01*
X114164097Y-74623751D01*
X114213334Y-74674901D01*
X114227102Y-74744550D01*
X114201029Y-74810585D01*
X114190712Y-74822264D01*
X113487333Y-75525643D01*
X113472920Y-75538030D01*
X113455562Y-75550804D01*
X113450819Y-75556387D01*
X113421544Y-75590846D01*
X113414614Y-75598362D01*
X113408971Y-75604005D01*
X113391439Y-75626165D01*
X113388672Y-75629540D01*
X113341651Y-75684887D01*
X113338322Y-75691407D01*
X113335002Y-75696385D01*
X113331869Y-75701458D01*
X113327326Y-75707200D01*
X113324226Y-75713833D01*
X113296580Y-75772984D01*
X113294649Y-75776934D01*
X113261640Y-75841579D01*
X113259900Y-75848689D01*
X113257810Y-75854309D01*
X113255930Y-75859960D01*
X113252832Y-75866589D01*
X113251342Y-75873753D01*
X113251341Y-75873756D01*
X113238048Y-75937670D01*
X113237082Y-75941940D01*
X113219822Y-76012475D01*
X113219133Y-76023581D01*
X113219099Y-76023579D01*
X113218856Y-76027638D01*
X113218496Y-76031672D01*
X113217005Y-76038840D01*
X113217203Y-76046157D01*
X113219087Y-76115782D01*
X113219133Y-76119190D01*
X113219133Y-81293970D01*
X113199131Y-81362091D01*
X113145475Y-81408584D01*
X113075201Y-81418688D01*
X113009315Y-81388047D01*
X112981951Y-81363667D01*
X112981945Y-81363663D01*
X112976275Y-81358611D01*
X112968889Y-81354700D01*
X112842988Y-81288039D01*
X112842989Y-81288039D01*
X112836274Y-81284484D01*
X112682633Y-81245892D01*
X112675034Y-81245852D01*
X112675033Y-81245852D01*
X112609181Y-81245507D01*
X112524221Y-81245062D01*
X112516841Y-81246834D01*
X112516839Y-81246834D01*
X112377563Y-81280271D01*
X112377560Y-81280272D01*
X112370184Y-81282043D01*
X112229414Y-81354700D01*
X112110039Y-81458838D01*
X112018950Y-81588444D01*
X111961406Y-81736037D01*
X111960414Y-81743570D01*
X111960414Y-81743571D01*
X111950649Y-81817748D01*
X111940729Y-81893096D01*
X111958113Y-82050553D01*
X111960723Y-82057684D01*
X111960723Y-82057686D01*
X111985762Y-82126107D01*
X112012553Y-82199319D01*
X112100908Y-82330805D01*
X112218076Y-82437419D01*
X112357293Y-82513008D01*
X112433907Y-82533107D01*
X112503180Y-82551281D01*
X112503181Y-82551281D01*
X112510522Y-82553207D01*
X112513424Y-82553253D01*
X112576375Y-82581495D01*
X112615157Y-82640964D01*
X112620500Y-82677268D01*
X112620500Y-101790616D01*
X112600498Y-101858737D01*
X112583595Y-101879711D01*
X111569784Y-102893522D01*
X111551036Y-102908664D01*
X111549811Y-102909779D01*
X111541060Y-102915429D01*
X111534613Y-102923607D01*
X111534611Y-102923609D01*
X111520271Y-102941800D01*
X111516325Y-102946241D01*
X111516398Y-102946303D01*
X111513039Y-102950267D01*
X111509362Y-102953944D01*
X111498108Y-102969692D01*
X111494602Y-102974362D01*
X111462844Y-103014647D01*
X111459812Y-103023281D01*
X111454486Y-103030734D01*
X111451501Y-103040715D01*
X111439799Y-103079844D01*
X111437964Y-103085492D01*
X111434312Y-103095892D01*
X111420982Y-103133851D01*
X111420500Y-103139416D01*
X111420500Y-103142124D01*
X111420386Y-103144758D01*
X111420357Y-103144856D01*
X111420193Y-103144849D01*
X111420149Y-103145553D01*
X111418287Y-103151778D01*
X111418696Y-103162183D01*
X111420403Y-103205635D01*
X111420500Y-103210582D01*
X111420500Y-104346080D01*
X111417951Y-104370028D01*
X111417872Y-104371693D01*
X111415680Y-104381876D01*
X111416904Y-104392217D01*
X111419627Y-104415223D01*
X111419977Y-104421154D01*
X111420072Y-104421146D01*
X111420500Y-104426324D01*
X111420500Y-104431524D01*
X111421354Y-104436653D01*
X111421354Y-104436656D01*
X111423669Y-104450565D01*
X111424506Y-104456443D01*
X111430530Y-104507341D01*
X111434493Y-104515593D01*
X111435996Y-104524626D01*
X111440943Y-104533795D01*
X111440944Y-104533797D01*
X111460334Y-104569732D01*
X111463031Y-104575025D01*
X111481785Y-104614082D01*
X111481788Y-104614086D01*
X111485219Y-104621232D01*
X111488814Y-104625508D01*
X111490737Y-104627431D01*
X111492509Y-104629363D01*
X111492552Y-104629442D01*
X111492428Y-104629555D01*
X111492904Y-104630095D01*
X111495990Y-104635814D01*
X111503635Y-104642881D01*
X111535586Y-104672416D01*
X111539152Y-104675846D01*
X111783595Y-104920289D01*
X111817621Y-104982601D01*
X111820500Y-105009384D01*
X111820500Y-117934124D01*
X111800498Y-118002245D01*
X111746842Y-118048738D01*
X111723915Y-118056642D01*
X111677570Y-118067769D01*
X111677564Y-118067771D01*
X111670184Y-118069543D01*
X111529414Y-118142200D01*
X111410039Y-118246338D01*
X111318950Y-118375944D01*
X111316190Y-118383024D01*
X111267598Y-118507656D01*
X111261406Y-118523537D01*
X111260414Y-118531070D01*
X111260414Y-118531071D01*
X111242092Y-118670246D01*
X111240729Y-118680596D01*
X100254500Y-118680596D01*
X100254500Y-115964342D01*
X103540951Y-115964342D01*
X103541248Y-115969494D01*
X103541248Y-115969498D01*
X103543007Y-116000000D01*
X103554719Y-116203121D01*
X103555856Y-116208167D01*
X103555857Y-116208173D01*
X103577295Y-116303299D01*
X103607301Y-116436446D01*
X103697284Y-116658049D01*
X103822254Y-116861980D01*
X103978852Y-117042762D01*
X104162874Y-117195540D01*
X104167326Y-117198142D01*
X104167331Y-117198145D01*
X104312627Y-117283049D01*
X104369377Y-117316211D01*
X104592817Y-117401534D01*
X104597883Y-117402565D01*
X104597884Y-117402565D01*
X104652438Y-117413664D01*
X104827191Y-117449218D01*
X104961499Y-117454143D01*
X105061043Y-117457794D01*
X105061048Y-117457794D01*
X105066207Y-117457983D01*
X105071327Y-117457327D01*
X105071329Y-117457327D01*
X105298316Y-117428249D01*
X105298317Y-117428249D01*
X105303444Y-117427592D01*
X105308394Y-117426107D01*
X105527577Y-117360349D01*
X105527582Y-117360347D01*
X105532532Y-117358862D01*
X105747319Y-117253639D01*
X105751524Y-117250639D01*
X105751530Y-117250636D01*
X105937832Y-117117748D01*
X105937834Y-117117746D01*
X105942036Y-117114749D01*
X106111454Y-116945921D01*
X106251023Y-116751690D01*
X106297304Y-116658049D01*
X106354701Y-116541914D01*
X106354702Y-116541912D01*
X106356995Y-116537272D01*
X106426524Y-116308425D01*
X106457743Y-116071296D01*
X106459485Y-116000000D01*
X106439887Y-115761628D01*
X106381620Y-115529658D01*
X106304071Y-115351307D01*
X106288309Y-115315056D01*
X106288307Y-115315053D01*
X106286249Y-115310319D01*
X106156335Y-115109502D01*
X106127470Y-115077779D01*
X105998844Y-114936422D01*
X105998842Y-114936421D01*
X105995366Y-114932600D01*
X105991315Y-114929401D01*
X105991311Y-114929397D01*
X105811725Y-114787569D01*
X105807667Y-114784364D01*
X105598277Y-114668774D01*
X105372819Y-114588936D01*
X105324046Y-114580248D01*
X105142438Y-114547898D01*
X105142434Y-114547898D01*
X105137350Y-114546992D01*
X105053548Y-114545968D01*
X104903360Y-114544133D01*
X104903358Y-114544133D01*
X104898191Y-114544070D01*
X104739680Y-114568326D01*
X104666876Y-114579466D01*
X104666874Y-114579467D01*
X104661767Y-114580248D01*
X104629906Y-114590662D01*
X104439340Y-114652949D01*
X104439338Y-114652950D01*
X104434427Y-114654555D01*
X104222275Y-114764994D01*
X104218142Y-114768097D01*
X104218139Y-114768099D01*
X104039065Y-114902552D01*
X104031010Y-114908600D01*
X103865767Y-115081516D01*
X103862853Y-115085788D01*
X103862852Y-115085789D01*
X103798427Y-115180233D01*
X103730985Y-115279099D01*
X103630284Y-115496042D01*
X103566366Y-115726520D01*
X103565817Y-115731654D01*
X103565817Y-115731656D01*
X103562614Y-115761628D01*
X103540951Y-115964342D01*
X100254500Y-115964342D01*
X100254500Y-113718828D01*
X103546001Y-113718828D01*
X103547209Y-113731088D01*
X103558315Y-113786931D01*
X103567633Y-113809427D01*
X103609983Y-113872808D01*
X103627192Y-113890017D01*
X103690575Y-113932368D01*
X103713066Y-113941684D01*
X103768915Y-113952793D01*
X103781170Y-113954000D01*
X104727885Y-113954000D01*
X104743124Y-113949525D01*
X104744329Y-113948135D01*
X104746000Y-113940452D01*
X104746000Y-113935884D01*
X105254000Y-113935884D01*
X105258475Y-113951123D01*
X105259865Y-113952328D01*
X105267548Y-113953999D01*
X106218828Y-113953999D01*
X106231088Y-113952791D01*
X106286931Y-113941685D01*
X106309427Y-113932367D01*
X106372808Y-113890017D01*
X106390017Y-113872808D01*
X106432368Y-113809425D01*
X106441684Y-113786934D01*
X106452793Y-113731085D01*
X106454000Y-113718830D01*
X106454000Y-112772115D01*
X106449525Y-112756876D01*
X106448135Y-112755671D01*
X106440452Y-112754000D01*
X105272115Y-112754000D01*
X105256876Y-112758475D01*
X105255671Y-112759865D01*
X105254000Y-112767548D01*
X105254000Y-113935884D01*
X104746000Y-113935884D01*
X104746000Y-112772115D01*
X104741525Y-112756876D01*
X104740135Y-112755671D01*
X104732452Y-112754000D01*
X103564116Y-112754000D01*
X103548877Y-112758475D01*
X103547672Y-112759865D01*
X103546001Y-112767548D01*
X103546001Y-113718828D01*
X100254500Y-113718828D01*
X100254500Y-112227885D01*
X103546000Y-112227885D01*
X103550475Y-112243124D01*
X103551865Y-112244329D01*
X103559548Y-112246000D01*
X104727885Y-112246000D01*
X104743124Y-112241525D01*
X104744329Y-112240135D01*
X104746000Y-112232452D01*
X104746000Y-112227885D01*
X105254000Y-112227885D01*
X105258475Y-112243124D01*
X105259865Y-112244329D01*
X105267548Y-112246000D01*
X106435884Y-112246000D01*
X106451123Y-112241525D01*
X106452328Y-112240135D01*
X106453999Y-112232452D01*
X106453999Y-111281172D01*
X106452791Y-111268912D01*
X106441685Y-111213069D01*
X106432367Y-111190573D01*
X106390017Y-111127192D01*
X106372808Y-111109983D01*
X106309425Y-111067632D01*
X106286934Y-111058316D01*
X106231085Y-111047207D01*
X106218830Y-111046000D01*
X105272115Y-111046000D01*
X105256876Y-111050475D01*
X105255671Y-111051865D01*
X105254000Y-111059548D01*
X105254000Y-112227885D01*
X104746000Y-112227885D01*
X104746000Y-111064116D01*
X104741525Y-111048877D01*
X104740135Y-111047672D01*
X104732452Y-111046001D01*
X103781172Y-111046001D01*
X103768912Y-111047209D01*
X103713069Y-111058315D01*
X103690573Y-111067633D01*
X103627192Y-111109983D01*
X103609983Y-111127192D01*
X103567632Y-111190575D01*
X103558316Y-111213066D01*
X103547207Y-111268915D01*
X103546000Y-111281170D01*
X103546000Y-112227885D01*
X100254500Y-112227885D01*
X100254500Y-75037476D01*
X100256921Y-75012894D01*
X100257065Y-75012170D01*
X100259486Y-75000000D01*
X100257065Y-74987830D01*
X100257065Y-74977401D01*
X100256060Y-74964265D01*
X100272318Y-74591898D01*
X100273276Y-74580948D01*
X100299588Y-74381088D01*
X100301202Y-74368828D01*
X110396001Y-74368828D01*
X110397209Y-74381088D01*
X110408315Y-74436931D01*
X110417633Y-74459427D01*
X110459983Y-74522808D01*
X110477192Y-74540017D01*
X110540575Y-74582368D01*
X110563066Y-74591684D01*
X110618915Y-74602793D01*
X110631170Y-74604000D01*
X111227885Y-74604000D01*
X111243124Y-74599525D01*
X111244329Y-74598135D01*
X111246000Y-74590452D01*
X111246000Y-74585884D01*
X111754000Y-74585884D01*
X111758475Y-74601123D01*
X111759865Y-74602328D01*
X111767548Y-74603999D01*
X112368828Y-74603999D01*
X112381088Y-74602791D01*
X112436931Y-74591685D01*
X112459427Y-74582367D01*
X112522808Y-74540017D01*
X112540017Y-74522808D01*
X112582368Y-74459425D01*
X112591684Y-74436934D01*
X112602793Y-74381085D01*
X112604000Y-74368830D01*
X112604000Y-73772115D01*
X112599525Y-73756876D01*
X112598135Y-73755671D01*
X112590452Y-73754000D01*
X111772115Y-73754000D01*
X111756876Y-73758475D01*
X111755671Y-73759865D01*
X111754000Y-73767548D01*
X111754000Y-74585884D01*
X111246000Y-74585884D01*
X111246000Y-73772115D01*
X111241525Y-73756876D01*
X111240135Y-73755671D01*
X111232452Y-73754000D01*
X110414116Y-73754000D01*
X110398877Y-73758475D01*
X110397672Y-73759865D01*
X110396001Y-73767548D01*
X110396001Y-74368828D01*
X100301202Y-74368828D01*
X100325878Y-74181396D01*
X100327786Y-74170579D01*
X100337165Y-74128276D01*
X100415008Y-73777145D01*
X100417853Y-73766528D01*
X100477347Y-73577838D01*
X100539036Y-73382187D01*
X100542792Y-73371865D01*
X100571063Y-73303613D01*
X100602430Y-73227885D01*
X110396000Y-73227885D01*
X110400475Y-73243124D01*
X110401865Y-73244329D01*
X110409548Y-73246000D01*
X111227885Y-73246000D01*
X111243124Y-73241525D01*
X111244329Y-73240135D01*
X111246000Y-73232452D01*
X111246000Y-73227885D01*
X111754000Y-73227885D01*
X111758475Y-73243124D01*
X111759865Y-73244329D01*
X111767548Y-73246000D01*
X112585884Y-73246000D01*
X112601123Y-73241525D01*
X112602328Y-73240135D01*
X112603999Y-73232452D01*
X112603999Y-72631172D01*
X112602791Y-72618912D01*
X112591685Y-72563069D01*
X112582367Y-72540573D01*
X112540017Y-72477192D01*
X112522808Y-72459983D01*
X112459425Y-72417632D01*
X112436934Y-72408316D01*
X112381085Y-72397207D01*
X112368830Y-72396000D01*
X111772115Y-72396000D01*
X111756876Y-72400475D01*
X111755671Y-72401865D01*
X111754000Y-72409548D01*
X111754000Y-73227885D01*
X111246000Y-73227885D01*
X111246000Y-72414116D01*
X111241525Y-72398877D01*
X111240135Y-72397672D01*
X111232452Y-72396001D01*
X110631172Y-72396001D01*
X110618912Y-72397209D01*
X110563069Y-72408315D01*
X110540573Y-72417633D01*
X110477192Y-72459983D01*
X110459983Y-72477192D01*
X110417632Y-72540575D01*
X110408316Y-72563066D01*
X110397207Y-72618915D01*
X110396000Y-72631170D01*
X110396000Y-73227885D01*
X100602430Y-73227885D01*
X100697017Y-72999532D01*
X100701659Y-72989579D01*
X100740066Y-72915801D01*
X100887735Y-72632132D01*
X100893230Y-72622613D01*
X100903546Y-72606421D01*
X100996837Y-72459983D01*
X101109755Y-72282738D01*
X101116059Y-72273734D01*
X101231257Y-72123604D01*
X101361393Y-71954007D01*
X101368445Y-71945603D01*
X101529485Y-71769860D01*
X101640709Y-71648481D01*
X101648481Y-71640709D01*
X101869499Y-71438182D01*
X101945603Y-71368445D01*
X101954007Y-71361393D01*
X102273734Y-71116059D01*
X102282738Y-71109755D01*
X102622613Y-70893230D01*
X102632133Y-70887734D01*
X102704781Y-70849916D01*
X102989588Y-70701655D01*
X102999532Y-70697017D01*
X103371872Y-70542789D01*
X103382187Y-70539036D01*
X103766529Y-70417853D01*
X103777146Y-70415008D01*
X104170587Y-70327785D01*
X104181396Y-70325878D01*
X104580949Y-70273276D01*
X104591897Y-70272318D01*
X104643588Y-70270061D01*
X104964265Y-70256060D01*
X104977401Y-70257065D01*
X104987830Y-70257065D01*
X105000000Y-70259486D01*
X105012897Y-70256921D01*
X105037476Y-70254500D01*
X142962524Y-70254500D01*
X142987103Y-70256921D01*
G37*
%TD.AperFunction*%
%TD*%
M02*
