%TF.GenerationSoftware,KiCad,Pcbnew,(6.0.11-0)*%
%TF.CreationDate,2023-05-30T14:23:44-05:00*%
%TF.ProjectId,HoneywellStringLightsController,486f6e65-7977-4656-9c6c-537472696e67,rev?*%
%TF.SameCoordinates,Original*%
%TF.FileFunction,Paste,Top*%
%TF.FilePolarity,Positive*%
%FSLAX46Y46*%
G04 Gerber Fmt 4.6, Leading zero omitted, Abs format (unit mm)*
G04 Created by KiCad (PCBNEW (6.0.11-0)) date 2023-05-30 14:23:44*
%MOMM*%
%LPD*%
G01*
G04 APERTURE LIST*
G04 Aperture macros list*
%AMRoundRect*
0 Rectangle with rounded corners*
0 $1 Rounding radius*
0 $2 $3 $4 $5 $6 $7 $8 $9 X,Y pos of 4 corners*
0 Add a 4 corners polygon primitive as box body*
4,1,4,$2,$3,$4,$5,$6,$7,$8,$9,$2,$3,0*
0 Add four circle primitives for the rounded corners*
1,1,$1+$1,$2,$3*
1,1,$1+$1,$4,$5*
1,1,$1+$1,$6,$7*
1,1,$1+$1,$8,$9*
0 Add four rect primitives between the rounded corners*
20,1,$1+$1,$2,$3,$4,$5,0*
20,1,$1+$1,$4,$5,$6,$7,0*
20,1,$1+$1,$6,$7,$8,$9,0*
20,1,$1+$1,$8,$9,$2,$3,0*%
G04 Aperture macros list end*
%ADD10R,0.630000X1.050000*%
%ADD11R,1.050000X0.630000*%
%ADD12R,0.735000X0.735000*%
%ADD13RoundRect,0.250000X-1.500000X-0.550000X1.500000X-0.550000X1.500000X0.550000X-1.500000X0.550000X0*%
%ADD14RoundRect,0.250000X-0.450000X0.262500X-0.450000X-0.262500X0.450000X-0.262500X0.450000X0.262500X0*%
%ADD15R,0.900000X1.000000*%
%ADD16RoundRect,0.250000X-1.050000X-0.550000X1.050000X-0.550000X1.050000X0.550000X-1.050000X0.550000X0*%
%ADD17RoundRect,0.250000X-0.475000X0.250000X-0.475000X-0.250000X0.475000X-0.250000X0.475000X0.250000X0*%
%ADD18RoundRect,0.250000X-0.262500X-0.450000X0.262500X-0.450000X0.262500X0.450000X-0.262500X0.450000X0*%
%ADD19RoundRect,0.250000X-0.250000X-0.475000X0.250000X-0.475000X0.250000X0.475000X-0.250000X0.475000X0*%
%ADD20RoundRect,0.250000X0.450000X-0.262500X0.450000X0.262500X-0.450000X0.262500X-0.450000X-0.262500X0*%
%ADD21R,0.900000X1.200000*%
%ADD22RoundRect,0.243750X0.456250X-0.243750X0.456250X0.243750X-0.456250X0.243750X-0.456250X-0.243750X0*%
%ADD23RoundRect,0.150000X-0.825000X-0.150000X0.825000X-0.150000X0.825000X0.150000X-0.825000X0.150000X0*%
%ADD24RoundRect,0.150000X0.150000X-0.512500X0.150000X0.512500X-0.150000X0.512500X-0.150000X-0.512500X0*%
%ADD25RoundRect,0.250000X0.262500X0.450000X-0.262500X0.450000X-0.262500X-0.450000X0.262500X-0.450000X0*%
%ADD26RoundRect,0.250000X0.475000X-0.250000X0.475000X0.250000X-0.475000X0.250000X-0.475000X-0.250000X0*%
%ADD27RoundRect,0.250000X1.250000X0.550000X-1.250000X0.550000X-1.250000X-0.550000X1.250000X-0.550000X0*%
G04 APERTURE END LIST*
D10*
%TO.C,U1*%
X100995000Y-98350000D03*
X102265000Y-98350000D03*
X103535000Y-98350000D03*
X104805000Y-98350000D03*
X106075000Y-98350000D03*
X107345000Y-98350000D03*
X108615000Y-98350000D03*
X109885000Y-98350000D03*
X111155000Y-98350000D03*
X112425000Y-98350000D03*
X113695000Y-98350000D03*
X114965000Y-98350000D03*
X116235000Y-98350000D03*
X117505000Y-98350000D03*
D11*
X118755000Y-95310000D03*
X118755000Y-94040000D03*
X118755000Y-92770000D03*
X118755000Y-91500000D03*
X118755000Y-90230000D03*
X118755000Y-88960000D03*
X118755000Y-87690000D03*
X118755000Y-86420000D03*
X118755000Y-85150000D03*
X118755000Y-83880000D03*
D10*
X117505000Y-80850000D03*
X116235000Y-80850000D03*
X114965000Y-80850000D03*
X113695000Y-80850000D03*
X112425000Y-80850000D03*
X111155000Y-80850000D03*
X109885000Y-80850000D03*
X108615000Y-80850000D03*
X107345000Y-80850000D03*
X106075000Y-80850000D03*
X104805000Y-80850000D03*
X103535000Y-80850000D03*
X102265000Y-80850000D03*
X100995000Y-80850000D03*
D12*
X108335000Y-91805000D03*
X109860000Y-88755000D03*
X108335000Y-90280000D03*
X106810000Y-90280000D03*
X106810000Y-88755000D03*
X108335000Y-88755000D03*
X106810000Y-91805000D03*
X109860000Y-90280000D03*
X109860000Y-91805000D03*
%TD*%
D13*
%TO.C,C9*%
X132200000Y-95000000D03*
X137600000Y-95000000D03*
%TD*%
D14*
%TO.C,R1*%
X119000000Y-118687500D03*
X119000000Y-120512500D03*
%TD*%
D15*
%TO.C,SW1*%
X125850000Y-117950000D03*
X121750000Y-117950000D03*
X121750000Y-119550000D03*
X125850000Y-119550000D03*
%TD*%
D16*
%TO.C,C2*%
X118700000Y-110500000D03*
X122300000Y-110500000D03*
%TD*%
D17*
%TO.C,C13*%
X145500000Y-89050000D03*
X145500000Y-90950000D03*
%TD*%
D14*
%TO.C,R4*%
X111000000Y-118687500D03*
X111000000Y-120512500D03*
%TD*%
%TO.C,R2*%
X129000000Y-117837500D03*
X129000000Y-119662500D03*
%TD*%
D18*
%TO.C,R11*%
X127087500Y-81000000D03*
X128912500Y-81000000D03*
%TD*%
D19*
%TO.C,C5*%
X130240810Y-121900000D03*
X132140810Y-121900000D03*
%TD*%
D20*
%TO.C,R5*%
X113000000Y-103012500D03*
X113000000Y-101187500D03*
%TD*%
D18*
%TO.C,R10*%
X127087500Y-88500000D03*
X128912500Y-88500000D03*
%TD*%
D21*
%TO.C,D5*%
X139850000Y-109500000D03*
X143150000Y-109500000D03*
%TD*%
D18*
%TO.C,R9*%
X127087500Y-86000000D03*
X128912500Y-86000000D03*
%TD*%
D22*
%TO.C,D1*%
X119000000Y-124437500D03*
X119000000Y-122562500D03*
%TD*%
D23*
%TO.C,Q1*%
X132125000Y-86095000D03*
X132125000Y-87365000D03*
X132125000Y-88635000D03*
X132125000Y-89905000D03*
X137075000Y-89905000D03*
X137075000Y-88635000D03*
X137075000Y-87365000D03*
X137075000Y-86095000D03*
%TD*%
%TO.C,Q2*%
X132125000Y-79695000D03*
X132125000Y-80965000D03*
X132125000Y-82235000D03*
X132125000Y-83505000D03*
X137075000Y-83505000D03*
X137075000Y-82235000D03*
X137075000Y-80965000D03*
X137075000Y-79695000D03*
%TD*%
D24*
%TO.C,U2*%
X111550000Y-107937500D03*
X112500000Y-107937500D03*
X113450000Y-107937500D03*
X113450000Y-105662500D03*
X111550000Y-105662500D03*
%TD*%
D23*
%TO.C,Q4*%
X132125000Y-100195000D03*
X132125000Y-101465000D03*
X132125000Y-102735000D03*
X132125000Y-104005000D03*
X137075000Y-104005000D03*
X137075000Y-102735000D03*
X137075000Y-101465000D03*
X137075000Y-100195000D03*
%TD*%
D15*
%TO.C,SW2*%
X121750000Y-122800000D03*
X125850000Y-122800000D03*
X121750000Y-124400000D03*
X125850000Y-124400000D03*
%TD*%
D24*
%TO.C,U4*%
X141350000Y-115337500D03*
X142300000Y-115337500D03*
X143250000Y-115337500D03*
X143250000Y-113062500D03*
X141350000Y-113062500D03*
%TD*%
D14*
%TO.C,R3*%
X115000000Y-118687500D03*
X115000000Y-120512500D03*
%TD*%
D21*
%TO.C,D4*%
X139850000Y-89000000D03*
X143150000Y-89000000D03*
%TD*%
D18*
%TO.C,R16*%
X127087500Y-104000000D03*
X128912500Y-104000000D03*
%TD*%
%TO.C,R14*%
X127087500Y-109000000D03*
X128912500Y-109000000D03*
%TD*%
D24*
%TO.C,U3*%
X141350000Y-94837500D03*
X142300000Y-94837500D03*
X143250000Y-94837500D03*
X143250000Y-92562500D03*
X141350000Y-92562500D03*
%TD*%
D25*
%TO.C,R19*%
X128912500Y-114000000D03*
X127087500Y-114000000D03*
%TD*%
D19*
%TO.C,C11*%
X141350000Y-97200000D03*
X143250000Y-97200000D03*
%TD*%
D17*
%TO.C,C8*%
X109500000Y-101150000D03*
X109500000Y-103050000D03*
%TD*%
D26*
%TO.C,C3*%
X116500000Y-107750000D03*
X116500000Y-105850000D03*
%TD*%
D17*
%TO.C,C7*%
X102500000Y-101150000D03*
X102500000Y-103050000D03*
%TD*%
D27*
%TO.C,C6*%
X107623025Y-107084338D03*
X103223025Y-107084338D03*
%TD*%
D25*
%TO.C,R17*%
X128912500Y-93500000D03*
X127087500Y-93500000D03*
%TD*%
D22*
%TO.C,D2*%
X115000000Y-124437500D03*
X115000000Y-122562500D03*
%TD*%
D25*
%TO.C,R18*%
X128912500Y-91000000D03*
X127087500Y-91000000D03*
%TD*%
%TO.C,R20*%
X128912500Y-111500000D03*
X127087500Y-111500000D03*
%TD*%
D20*
%TO.C,R7*%
X145500000Y-94812500D03*
X145500000Y-92987500D03*
%TD*%
D22*
%TO.C,D3*%
X111000000Y-124437500D03*
X111000000Y-122562500D03*
%TD*%
D13*
%TO.C,C10*%
X132200000Y-115500000D03*
X137600000Y-115500000D03*
%TD*%
D17*
%TO.C,C4*%
X106000000Y-101150000D03*
X106000000Y-103050000D03*
%TD*%
D27*
%TO.C,C1*%
X115900000Y-113493501D03*
X111500000Y-113493501D03*
%TD*%
D23*
%TO.C,Q3*%
X132125000Y-106595000D03*
X132125000Y-107865000D03*
X132125000Y-109135000D03*
X132125000Y-110405000D03*
X137075000Y-110405000D03*
X137075000Y-109135000D03*
X137075000Y-107865000D03*
X137075000Y-106595000D03*
%TD*%
D17*
%TO.C,C14*%
X145500000Y-109550000D03*
X145500000Y-111450000D03*
%TD*%
D20*
%TO.C,R6*%
X116500000Y-103012500D03*
X116500000Y-101187500D03*
%TD*%
%TO.C,R8*%
X145500000Y-115312500D03*
X145500000Y-113487500D03*
%TD*%
D18*
%TO.C,R12*%
X127087500Y-83500000D03*
X128912500Y-83500000D03*
%TD*%
%TO.C,R13*%
X127087500Y-106500000D03*
X128912500Y-106500000D03*
%TD*%
D19*
%TO.C,C12*%
X141350000Y-117550000D03*
X143250000Y-117550000D03*
%TD*%
D18*
%TO.C,R15*%
X127087500Y-101500000D03*
X128912500Y-101500000D03*
%TD*%
M02*
